<?xml version="1.0" encoding="utf-8" standalone="no"?>
<!DOCTYPE svg PUBLIC "-//W3C//DTD SVG 1.1//EN"
  "http://www.w3.org/Graphics/SVG/1.1/DTD/svg11.dtd">
<!-- Created with matplotlib (https://matplotlib.org/) -->
<svg height="432pt" version="1.1" viewBox="0 0 720 432" width="720pt" xmlns="http://www.w3.org/2000/svg" xmlns:xlink="http://www.w3.org/1999/xlink">
 <metadata>
  <rdf:RDF xmlns:cc="http://creativecommons.org/ns#" xmlns:dc="http://purl.org/dc/elements/1.1/" xmlns:rdf="http://www.w3.org/1999/02/22-rdf-syntax-ns#">
   <cc:Work>
    <dc:type rdf:resource="http://purl.org/dc/dcmitype/StillImage"/>
    <dc:date>2021-01-29T10:28:57.104515</dc:date>
    <dc:format>image/svg+xml</dc:format>
    <dc:creator>
     <cc:Agent>
      <dc:title>Matplotlib v3.3.4, https://matplotlib.org/</dc:title>
     </cc:Agent>
    </dc:creator>
   </cc:Work>
  </rdf:RDF>
 </metadata>
 <defs>
  <style type="text/css">*{stroke-linecap:butt;stroke-linejoin:round;}</style>
 </defs>
 <g id="figure_1">
  <g id="patch_1">
   <path d="M 0 432 
L 720 432 
L 720 0 
L 0 0 
z
" style="fill:#ffffff;"/>
  </g>
  <g id="axes_1">
   <g id="patch_2">
    <path d="M 90 378 
L 648 378 
L 648 229.745455 
L 90 229.745455 
z
" style="fill:#e5e5e5;"/>
   </g>
   <g id="matplotlib.axis_1">
    <g id="xtick_1">
     <g id="line2d_1">
      <path clip-path="url(#peded85678d)" d="M 91.574048 378 
L 91.574048 229.745455 
" style="fill:none;stroke:#ffffff;stroke-linecap:square;stroke-width:0.8;"/>
     </g>
     <g id="line2d_2">
      <defs>
       <path d="M 0 0 
L 0 3.5 
" id="m3c0ee3f048" style="stroke:#555555;stroke-width:0.8;"/>
      </defs>
      <g>
       <use style="fill:#555555;stroke:#555555;stroke-width:0.8;" x="91.574048" xlink:href="#m3c0ee3f048" y="378"/>
      </g>
     </g>
     <g id="text_1">
      <!-- 0 -->
      <g style="fill:#555555;" transform="translate(89.074048 391.640625)scale(0.1 -0.1)">
       <defs>
        <path d="M 25.09375 62.703125 
C 15.203125 62.703125 5 50.5 5 30.59375 
C 5 10.40625 15.296875 -1.203125 25.203125 -1.203125 
C 34.203125 -1.203125 44.90625 8.59375 44.90625 30.09375 
C 44.90625 51.296875 34.703125 62.703125 25.09375 62.703125 
z
M 34.796875 48.40625 
L 12.90625 20 
C 12 23.5 11.5 27.40625 11.5 31.796875 
C 11.5 47.796875 18.796875 56.59375 25 56.59375 
C 28.40625 56.59375 32.09375 53.90625 34.796875 48.40625 
z
M 37.09375 41.796875 
C 38 38.296875 38.40625 34.09375 38.40625 29.203125 
C 38.40625 11.796875 30.90625 5.203125 25.40625 5.203125 
C 21.703125 5.203125 17.90625 8.203125 15.203125 13.703125 
z
" id="Inconsolata-48"/>
       </defs>
       <use xlink:href="#Inconsolata-48"/>
      </g>
     </g>
    </g>
    <g id="xtick_2">
     <g id="line2d_3">
      <path clip-path="url(#peded85678d)" d="M 170.276446 378 
L 170.276446 229.745455 
" style="fill:none;stroke:#ffffff;stroke-linecap:square;stroke-width:0.8;"/>
     </g>
     <g id="line2d_4">
      <g>
       <use style="fill:#555555;stroke:#555555;stroke-width:0.8;" x="170.276446" xlink:href="#m3c0ee3f048" y="378"/>
      </g>
     </g>
     <g id="text_2">
      <!-- 50 -->
      <g style="fill:#555555;" transform="translate(165.276446 391.640625)scale(0.1 -0.1)">
       <defs>
        <path d="M 10.59375 62.296875 
L 8.40625 30.59375 
L 12.90625 28.796875 
C 15.90625 32.59375 20.296875 34.703125 24.59375 34.703125 
C 31.09375 34.703125 37.296875 29.703125 37.296875 19.796875 
C 37.296875 10.203125 31.40625 5 24.703125 5 
C 18 5 13.59375 10.09375 13.296875 10.703125 
C 12.90625 11.5 13.40625 12.5 12.5 13.09375 
L 6.296875 8.40625 
C 10.5 2.296875 17.40625 -1.203125 24.796875 -1.203125 
C 35.59375 -1.203125 44.5 6.09375 44.5 19.59375 
C 44.5 33 36.09375 40.40625 25.59375 40.40625 
C 22.203125 40.40625 18.703125 39.59375 15.5 38 
L 16.40625 56 
L 42.203125 56 
L 42.203125 62.296875 
z
" id="Inconsolata-53"/>
       </defs>
       <use xlink:href="#Inconsolata-53"/>
       <use x="49.999985" xlink:href="#Inconsolata-48"/>
      </g>
     </g>
    </g>
    <g id="xtick_3">
     <g id="line2d_5">
      <path clip-path="url(#peded85678d)" d="M 248.978843 378 
L 248.978843 229.745455 
" style="fill:none;stroke:#ffffff;stroke-linecap:square;stroke-width:0.8;"/>
     </g>
     <g id="line2d_6">
      <g>
       <use style="fill:#555555;stroke:#555555;stroke-width:0.8;" x="248.978843" xlink:href="#m3c0ee3f048" y="378"/>
      </g>
     </g>
     <g id="text_3">
      <!-- 100 -->
      <g style="fill:#555555;" transform="translate(241.478843 391.640625)scale(0.1 -0.1)">
       <defs>
        <path d="M 29.90625 62.296875 
L 25.09375 62.296875 
L 8.796875 53.796875 
L 10.40625 49.90625 
L 22.90625 53.59375 
L 22.90625 -0.09375 
L 29.90625 -0.09375 
z
" id="Inconsolata-49"/>
       </defs>
       <use xlink:href="#Inconsolata-49"/>
       <use x="49.999985" xlink:href="#Inconsolata-48"/>
       <use x="99.999969" xlink:href="#Inconsolata-48"/>
      </g>
     </g>
    </g>
    <g id="xtick_4">
     <g id="line2d_7">
      <path clip-path="url(#peded85678d)" d="M 327.681241 378 
L 327.681241 229.745455 
" style="fill:none;stroke:#ffffff;stroke-linecap:square;stroke-width:0.8;"/>
     </g>
     <g id="line2d_8">
      <g>
       <use style="fill:#555555;stroke:#555555;stroke-width:0.8;" x="327.681241" xlink:href="#m3c0ee3f048" y="378"/>
      </g>
     </g>
     <g id="text_4">
      <!-- 150 -->
      <g style="fill:#555555;" transform="translate(320.181241 391.640625)scale(0.1 -0.1)">
       <use xlink:href="#Inconsolata-49"/>
       <use x="49.999985" xlink:href="#Inconsolata-53"/>
       <use x="99.999969" xlink:href="#Inconsolata-48"/>
      </g>
     </g>
    </g>
    <g id="xtick_5">
     <g id="line2d_9">
      <path clip-path="url(#peded85678d)" d="M 406.383639 378 
L 406.383639 229.745455 
" style="fill:none;stroke:#ffffff;stroke-linecap:square;stroke-width:0.8;"/>
     </g>
     <g id="line2d_10">
      <g>
       <use style="fill:#555555;stroke:#555555;stroke-width:0.8;" x="406.383639" xlink:href="#m3c0ee3f048" y="378"/>
      </g>
     </g>
     <g id="text_5">
      <!-- 200 -->
      <g style="fill:#555555;" transform="translate(398.883639 391.640625)scale(0.1 -0.1)">
       <defs>
        <path d="M 7.703125 52.59375 
L 12.796875 48.5 
C 13.40625 49.40625 13.09375 50 13.703125 50.796875 
C 15.203125 53.09375 18.90625 56.5 24.296875 56.5 
C 31 56.5 36.296875 51.40625 36.296875 44.703125 
C 36.296875 37.09375 29.90625 31.59375 25.40625 27.5 
C 18.296875 21.09375 12.5 14.703125 7.296875 4.40625 
L 7.296875 0 
L 43.90625 0 
L 43.90625 6.90625 
C 43.203125 7.203125 42.703125 6.703125 42.5 6.5 
C 42.09375 6.09375 41.90625 6.09375 41.5 6.09375 
L 15.296875 6.09375 
C 20.5 15.09375 27.796875 21.296875 32.296875 25.5 
C 36.796875 29.796875 43.203125 36.203125 43.203125 45.203125 
C 43.203125 54.90625 35.296875 62.703125 25.203125 62.703125 
C 18.09375 62.703125 11.40625 58.90625 7.703125 52.59375 
z
" id="Inconsolata-50"/>
       </defs>
       <use xlink:href="#Inconsolata-50"/>
       <use x="49.999985" xlink:href="#Inconsolata-48"/>
       <use x="99.999969" xlink:href="#Inconsolata-48"/>
      </g>
     </g>
    </g>
    <g id="xtick_6">
     <g id="line2d_11">
      <path clip-path="url(#peded85678d)" d="M 485.086037 378 
L 485.086037 229.745455 
" style="fill:none;stroke:#ffffff;stroke-linecap:square;stroke-width:0.8;"/>
     </g>
     <g id="line2d_12">
      <g>
       <use style="fill:#555555;stroke:#555555;stroke-width:0.8;" x="485.086037" xlink:href="#m3c0ee3f048" y="378"/>
      </g>
     </g>
     <g id="text_6">
      <!-- 250 -->
      <g style="fill:#555555;" transform="translate(477.586037 391.640625)scale(0.1 -0.1)">
       <use xlink:href="#Inconsolata-50"/>
       <use x="49.999985" xlink:href="#Inconsolata-53"/>
       <use x="99.999969" xlink:href="#Inconsolata-48"/>
      </g>
     </g>
    </g>
    <g id="xtick_7">
     <g id="line2d_13">
      <path clip-path="url(#peded85678d)" d="M 563.788434 378 
L 563.788434 229.745455 
" style="fill:none;stroke:#ffffff;stroke-linecap:square;stroke-width:0.8;"/>
     </g>
     <g id="line2d_14">
      <g>
       <use style="fill:#555555;stroke:#555555;stroke-width:0.8;" x="563.788434" xlink:href="#m3c0ee3f048" y="378"/>
      </g>
     </g>
     <g id="text_7">
      <!-- 300 -->
      <g style="fill:#555555;" transform="translate(556.288434 391.640625)scale(0.1 -0.1)">
       <defs>
        <path d="M 41 46.703125 
C 41 55.203125 33.796875 62.5 23.90625 62.5 
C 18.296875 62.5 12.796875 60.09375 8.90625 55.796875 
L 12.796875 51.5 
C 15.703125 54.59375 19.703125 56.296875 23.59375 56.296875 
C 30 56.296875 34.40625 51.796875 34.40625 46.5 
C 34.40625 42.796875 32.09375 38.59375 27.703125 36.703125 
C 26.59375 36.296875 23.796875 35.203125 17.90625 35.203125 
L 17.90625 29.59375 
C 18.90625 29.703125 20 29.796875 21.09375 29.796875 
C 29.5 29.796875 35.703125 25.40625 35.703125 17.90625 
C 35.703125 11.09375 30.5 5.203125 23.203125 5.203125 
C 17.40625 5.203125 13.90625 9 13.40625 9.5 
C 12.59375 10.40625 13 11.40625 12.09375 12.296875 
L 6.90625 6 
C 11 1.296875 17 -1.09375 23.203125 -1.09375 
C 35.203125 -1.09375 42.40625 7.40625 42.40625 17.09375 
C 42.40625 24.5 38.203125 30.796875 31.703125 33.203125 
C 37.296875 35.296875 41 40.59375 41 46.703125 
z
" id="Inconsolata-51"/>
       </defs>
       <use xlink:href="#Inconsolata-51"/>
       <use x="49.999985" xlink:href="#Inconsolata-48"/>
       <use x="99.999969" xlink:href="#Inconsolata-48"/>
      </g>
     </g>
    </g>
    <g id="xtick_8">
     <g id="line2d_15">
      <path clip-path="url(#peded85678d)" d="M 642.490832 378 
L 642.490832 229.745455 
" style="fill:none;stroke:#ffffff;stroke-linecap:square;stroke-width:0.8;"/>
     </g>
     <g id="line2d_16">
      <g>
       <use style="fill:#555555;stroke:#555555;stroke-width:0.8;" x="642.490832" xlink:href="#m3c0ee3f048" y="378"/>
      </g>
     </g>
     <g id="text_8">
      <!-- 350 -->
      <g style="fill:#555555;" transform="translate(634.990832 391.640625)scale(0.1 -0.1)">
       <use xlink:href="#Inconsolata-51"/>
       <use x="49.999985" xlink:href="#Inconsolata-53"/>
       <use x="99.999969" xlink:href="#Inconsolata-48"/>
      </g>
     </g>
    </g>
    <g id="text_9">
     <!-- days since 3 deaths -->
     <g style="fill:#555555;" transform="translate(312 405.290937)scale(0.12 -0.12)">
      <defs>
       <path d="M 37.09375 39 
C 34.90625 43.703125 30 46.796875 23.703125 46.796875 
C 15 46.796875 4.40625 40.59375 4.40625 23.203125 
C 4.40625 6.296875 13.796875 -1.09375 22.59375 -1.09375 
C 28.40625 -1.09375 33.796875 2.203125 36.703125 7.296875 
L 36.703125 3.296875 
C 36.703125 2.203125 36.796875 1.09375 37.09375 0 
L 44.296875 0 
C 43.90625 1.296875 43.90625 2.796875 43.90625 4.203125 
L 43.796875 63.59375 
C 43.796875 64.203125 43.796875 64.40625 44.203125 65 
C 44.40625 65.296875 44.796875 65.796875 44.703125 66.5 
L 37.09375 66.5 
z
M 24 40.90625 
C 28 40.90625 33.90625 38.796875 35.703125 32 
C 36.296875 29.90625 36.5 27.40625 36.5 22.296875 
C 36.5 18.796875 36.296875 16.296875 35.5 13.90625 
C 33.796875 8.5 29 5.296875 24.296875 5.296875 
C 19.09375 5.296875 11.40625 9.296875 11.40625 24.296875 
C 11.40625 37.40625 18.703125 40.90625 24 40.90625 
z
" id="Inconsolata-100"/>
       <path d="M 9 40.296875 
L 12.5 35.703125 
C 16.296875 39.59375 21.40625 40.796875 25.703125 40.796875 
C 31.09375 40.796875 33.796875 38.5 35.09375 36.40625 
C 36.59375 33.90625 36.5 30.90625 36.5 28.5 
L 36.5 26.90625 
L 35.09375 26.90625 
C 28.296875 26.90625 21.09375 26.90625 15.296875 24.796875 
C 8.09375 22.203125 4.90625 16.796875 4.90625 11.796875 
C 4.90625 5.09375 10.703125 -1.203125 20.203125 -1.203125 
C 25.796875 -1.203125 31.59375 0.90625 36.59375 5 
L 36.59375 0 
L 43.40625 0 
L 43.40625 28.296875 
C 43.40625 32 43.296875 35.5 41.203125 39.09375 
C 38.203125 44 32.40625 46.59375 25.296875 46.59375 
C 19.203125 46.59375 13.296875 44.703125 9 40.296875 
z
M 36.796875 21.40625 
L 36.796875 18.296875 
C 36.796875 16 36.796875 13 33.703125 9.703125 
C 32 8 27.703125 4.296875 21.703125 4.296875 
C 15.59375 4.296875 12.09375 8.203125 12.09375 12.203125 
C 12.09375 15.59375 14.40625 19.296875 20.09375 20.703125 
C 24.296875 21.703125 30.40625 21.40625 35.203125 21.40625 
z
" id="Inconsolata-97"/>
       <path d="M 4.5 45.59375 
L 23.09375 0.09375 
L 21.59375 -3.203125 
C 20.796875 -5.09375 19.90625 -7 18.5 -8.5 
C 16.59375 -10.59375 14.203125 -11.5 12.09375 -11.5 
C 8.703125 -11.5 7 -9.203125 6.703125 -8.796875 
C 6.40625 -8.296875 6.5 -7.59375 5.90625 -7.09375 
L 2.203125 -13.59375 
C 4.796875 -16.09375 8.296875 -17.40625 12.09375 -17.40625 
C 16.203125 -17.40625 20.5 -15.90625 23.5 -12.5 
C 25.5 -10.203125 26.5 -7.796875 27.5 -5.203125 
L 41.703125 32.5 
C 43.40625 36.796875 44.90625 41.203125 46.296875 45.703125 
L 38.796875 45.703125 
C 38 41.5 36.703125 37.5 35.296875 33.5 
L 26.59375 9 
L 13.203125 42.703125 
C 13.09375 43 13.09375 43.203125 13.09375 43.5 
C 13.09375 44.203125 13.59375 44.703125 13.5 45.59375 
z
" id="Inconsolata-121"/>
       <path d="M 43.203125 39.59375 
C 39 44.203125 32.90625 46.703125 26.09375 46.703125 
C 15.5 46.703125 8.59375 40.796875 8.59375 34 
C 8.59375 26 17.203125 23.09375 19.703125 22.203125 
C 23.59375 20.796875 28.59375 19.59375 32 18 
C 35.796875 16.203125 36.5 13.796875 36.5 12.203125 
C 36.5 7.90625 31.296875 5 24.796875 5 
C 17 5 12 9.703125 10.5 11.296875 
C 10.203125 11.703125 10.203125 12 10.203125 12.40625 
C 10.203125 12.5 10.296875 13.09375 9.796875 13.296875 
L 5.59375 6.203125 
C 11 1.203125 18 -1.09375 24.90625 -1.09375 
C 37.40625 -1.09375 43.90625 6.296875 43.90625 13.203125 
C 43.90625 16.296875 42.59375 20.5 37.203125 23.5 
C 32.09375 26.40625 24.703125 27.40625 20.40625 29.5 
C 16.703125 31.296875 15.90625 33.5 15.90625 35.09375 
C 15.90625 38.703125 20.40625 41.296875 25.5 41.296875 
C 32.09375 41.296875 36.5 37.296875 38.203125 35 
C 38.5 34.703125 38.40625 34.40625 38.40625 34.09375 
C 38.40625 33.5 38.796875 33.296875 39 33.296875 
z
" id="Inconsolata-115"/>
       <path id="Inconsolata-32"/>
       <path d="M 10.59375 45.703125 
L 10.59375 39.796875 
L 21.59375 39.796875 
L 21.59375 5.703125 
L 10 5.703125 
L 10 0 
L 39.59375 0 
L 39.59375 5.703125 
L 28.90625 5.703125 
L 28.90625 45.703125 
z
M 25.40625 65.5 
C 22.5 65.5 20.203125 63.203125 20.203125 60.40625 
C 20.203125 57.59375 22.5 55.296875 25.40625 55.296875 
C 28.296875 55.296875 30.59375 57.59375 30.59375 60.40625 
C 30.59375 63.203125 28.296875 65.5 25.40625 65.5 
z
" id="Inconsolata-105"/>
       <path d="M 6.796875 0 
L 14.09375 0 
L 14.09375 26.296875 
C 14.09375 29.296875 14.5 31.59375 16.40625 34.09375 
C 18.09375 36.40625 22.5 40.5 27.296875 40.5 
C 29.59375 40.5 31.90625 39.5 33.5 37.59375 
C 36 34.59375 36 30.703125 36 27.5 
L 36 0 
L 43.09375 0 
L 43.09375 27.703125 
C 43.09375 31.203125 43.09375 35 41.5 38.703125 
C 39.203125 43.796875 34.5 46.703125 29.296875 46.703125 
C 23.09375 46.703125 17.5 42.703125 14.09375 37.59375 
L 14.09375 45.59375 
L 6.796875 45.59375 
z
" id="Inconsolata-110"/>
       <path d="M 45.59375 38.09375 
C 42 43.40625 35.90625 46.59375 28.5 46.59375 
C 15.09375 46.59375 5.59375 36.5 5.59375 22.796875 
C 5.59375 9 15.09375 -1.203125 28.09375 -1.203125 
C 34.40625 -1.203125 40.59375 1.40625 44.90625 6.09375 
L 40.796875 10.90625 
C 37.703125 7.40625 33.203125 5.40625 28.703125 5.40625 
C 19.796875 5.40625 13 12.796875 13 23.5 
C 13 33.90625 19.703125 40.40625 28.09375 40.40625 
C 35.90625 40.40625 39.59375 35 39.90625 34.40625 
C 40.296875 33.703125 39.703125 32.703125 40.5 32.09375 
z
" id="Inconsolata-99"/>
       <path d="M 25.796875 46.703125 
C 14.90625 46.703125 4.796875 38.90625 4.796875 22.296875 
C 4.796875 7 14.296875 -1.09375 26.703125 -1.09375 
C 33.296875 -1.09375 39.203125 1.296875 43.09375 6 
L 39.09375 9.90625 
C 36.203125 6.5 31.796875 4.703125 27.296875 4.703125 
C 21.203125 4.703125 12.296875 8.09375 11.796875 21.796875 
L 44.203125 21.796875 
C 44.5 24.90625 44.40625 27.90625 43.90625 30.5 
C 41.796875 42.796875 33.296875 46.703125 25.796875 46.703125 
z
M 12 27.296875 
C 13.5 38.09375 20.40625 41.203125 25.296875 41.203125 
C 32.703125 41.203125 38 34.703125 37.09375 27.296875 
z
" id="Inconsolata-101"/>
       <path d="M 18.796875 57.90625 
L 17.90625 45.59375 
L 7 45.59375 
L 6.90625 39.703125 
L 17.59375 39.703125 
C 17 31.90625 16.703125 24.09375 16.703125 16.40625 
C 16.703125 12.296875 16.703125 7.703125 19.40625 3.90625 
C 21.59375 0.90625 25.09375 -0.90625 29.796875 -0.90625 
C 35.203125 -0.90625 40.5 1.40625 44.40625 4.203125 
L 42.203125 9.90625 
C 38.296875 7 34.703125 5.703125 31.90625 5.703125 
C 28.5 5.703125 25 7.59375 24.203125 13.09375 
C 24.203125 13.5 23.90625 15.203125 23.90625 21.90625 
C 23.90625 27.796875 24.203125 33.796875 24.796875 39.703125 
L 39.796875 39.703125 
L 39.796875 45.703125 
L 24.90625 45.703125 
C 24.90625 45.703125 25.59375 53.90625 26.09375 56.5 
C 26.203125 57.5 27 58.09375 26.59375 59.203125 
z
" id="Inconsolata-116"/>
       <path d="M 6.90625 0 
L 14.296875 0 
L 14.296875 26.296875 
C 14.296875 29.296875 14.59375 31.59375 16.5 34.09375 
C 18.296875 36.40625 22.703125 40.5 27.5 40.5 
C 29.796875 40.5 32.09375 39.5 33.703125 37.59375 
C 36.203125 34.59375 36.203125 30.703125 36.203125 27.5 
L 36.203125 0 
L 43.296875 0 
L 43.296875 27.703125 
C 43.296875 31.203125 43.203125 35 41.59375 38.703125 
C 39.296875 43.796875 34.703125 46.703125 29.5 46.703125 
C 23.296875 46.703125 17.59375 42.703125 14.296875 37.59375 
L 14.296875 64.09375 
C 14.296875 64.40625 14.296875 64.703125 14.59375 65 
C 14.90625 65.296875 15.296875 65.59375 15.296875 66.09375 
C 15.296875 66.203125 15.296875 66.296875 15.203125 66.40625 
L 6.90625 66.40625 
z
" id="Inconsolata-104"/>
      </defs>
      <use xlink:href="#Inconsolata-100"/>
      <use x="49.999985" xlink:href="#Inconsolata-97"/>
      <use x="99.999969" xlink:href="#Inconsolata-121"/>
      <use x="149.999954" xlink:href="#Inconsolata-115"/>
      <use x="199.999939" xlink:href="#Inconsolata-32"/>
      <use x="249.999924" xlink:href="#Inconsolata-115"/>
      <use x="299.999908" xlink:href="#Inconsolata-105"/>
      <use x="349.999893" xlink:href="#Inconsolata-110"/>
      <use x="399.999878" xlink:href="#Inconsolata-99"/>
      <use x="449.999863" xlink:href="#Inconsolata-101"/>
      <use x="499.999847" xlink:href="#Inconsolata-32"/>
      <use x="549.999832" xlink:href="#Inconsolata-51"/>
      <use x="599.999817" xlink:href="#Inconsolata-32"/>
      <use x="649.999802" xlink:href="#Inconsolata-100"/>
      <use x="699.999786" xlink:href="#Inconsolata-101"/>
      <use x="749.999771" xlink:href="#Inconsolata-97"/>
      <use x="799.999756" xlink:href="#Inconsolata-116"/>
      <use x="849.999741" xlink:href="#Inconsolata-104"/>
      <use x="899.999725" xlink:href="#Inconsolata-115"/>
     </g>
    </g>
   </g>
   <g id="matplotlib.axis_2">
    <g id="ytick_1">
     <g id="line2d_17">
      <path clip-path="url(#peded85678d)" d="M 90 378 
L 648 378 
" style="fill:none;stroke:#ffffff;stroke-linecap:square;stroke-width:0.8;"/>
     </g>
     <g id="line2d_18">
      <defs>
       <path d="M 0 0 
L -3.5 0 
" id="m7f576b9747" style="stroke:#555555;stroke-width:0.8;"/>
      </defs>
      <g>
       <use style="fill:#555555;stroke:#555555;stroke-width:0.8;" x="90" xlink:href="#m7f576b9747" y="378"/>
      </g>
     </g>
     <g id="line2d_19">
      <defs>
       <path d="M 0 0 
L 3.5 0 
" id="mf24a481fa4" style="stroke:#555555;stroke-width:0.8;"/>
      </defs>
      <g>
       <use style="fill:#555555;stroke:#555555;stroke-width:0.8;" x="648" xlink:href="#mf24a481fa4" y="378"/>
      </g>
     </g>
     <g id="text_10">
      <!-- 0.01 -->
      <g style="fill:#555555;" transform="translate(63 381.320312)scale(0.1 -0.1)">
       <defs>
        <path d="M 29.703125 4.59375 
C 29.703125 7.703125 27.09375 10.296875 23.796875 10.296875 
C 20.5 10.296875 17.90625 7.703125 17.90625 4.59375 
C 17.90625 1.40625 20.5 -1.203125 23.796875 -1.203125 
C 27.09375 -1.203125 29.703125 1.40625 29.703125 4.59375 
z
" id="Inconsolata-46"/>
       </defs>
       <use xlink:href="#Inconsolata-48"/>
       <use x="49.999985" xlink:href="#Inconsolata-46"/>
       <use x="99.999969" xlink:href="#Inconsolata-48"/>
       <use x="149.999954" xlink:href="#Inconsolata-49"/>
      </g>
     </g>
     <g id="text_11">
      <!-- 0.01 -->
      <g style="fill:#555555;" transform="translate(655 381.320312)scale(0.1 -0.1)">
       <use xlink:href="#Inconsolata-48"/>
       <use x="49.999985" xlink:href="#Inconsolata-46"/>
       <use x="99.999969" xlink:href="#Inconsolata-48"/>
       <use x="149.999954" xlink:href="#Inconsolata-49"/>
      </g>
     </g>
    </g>
    <g id="ytick_2">
     <g id="line2d_20">
      <path clip-path="url(#peded85678d)" d="M 90 314.911108 
L 648 314.911108 
" style="fill:none;stroke:#ffffff;stroke-linecap:square;stroke-width:0.8;"/>
     </g>
     <g id="line2d_21">
      <g>
       <use style="fill:#555555;stroke:#555555;stroke-width:0.8;" x="90" xlink:href="#m7f576b9747" y="314.911108"/>
      </g>
     </g>
     <g id="line2d_22">
      <g>
       <use style="fill:#555555;stroke:#555555;stroke-width:0.8;" x="648" xlink:href="#mf24a481fa4" y="314.911108"/>
      </g>
     </g>
     <g id="text_12">
      <!-- 0.1 -->
      <g style="fill:#555555;" transform="translate(68 318.231421)scale(0.1 -0.1)">
       <use xlink:href="#Inconsolata-48"/>
       <use x="49.999985" xlink:href="#Inconsolata-46"/>
       <use x="99.999969" xlink:href="#Inconsolata-49"/>
      </g>
     </g>
     <g id="text_13">
      <!-- 0.1 -->
      <g style="fill:#555555;" transform="translate(655 318.231421)scale(0.1 -0.1)">
       <use xlink:href="#Inconsolata-48"/>
       <use x="49.999985" xlink:href="#Inconsolata-46"/>
       <use x="99.999969" xlink:href="#Inconsolata-49"/>
      </g>
     </g>
    </g>
    <g id="ytick_3">
     <g id="line2d_23">
      <path clip-path="url(#peded85678d)" d="M 90 251.822217 
L 648 251.822217 
" style="fill:none;stroke:#ffffff;stroke-linecap:square;stroke-width:0.8;"/>
     </g>
     <g id="line2d_24">
      <g>
       <use style="fill:#555555;stroke:#555555;stroke-width:0.8;" x="90" xlink:href="#m7f576b9747" y="251.822217"/>
      </g>
     </g>
     <g id="line2d_25">
      <g>
       <use style="fill:#555555;stroke:#555555;stroke-width:0.8;" x="648" xlink:href="#mf24a481fa4" y="251.822217"/>
      </g>
     </g>
     <g id="text_14">
      <!-- 1 -->
      <g style="fill:#555555;" transform="translate(78 255.142529)scale(0.1 -0.1)">
       <use xlink:href="#Inconsolata-49"/>
      </g>
     </g>
     <g id="text_15">
      <!-- 1 -->
      <g style="fill:#555555;" transform="translate(655 255.142529)scale(0.1 -0.1)">
       <use xlink:href="#Inconsolata-49"/>
      </g>
     </g>
    </g>
    <g id="ytick_4">
     <g id="line2d_26">
      <defs>
       <path d="M 0 0 
L -2 0 
" id="maa3104f6d9" style="stroke:#555555;stroke-width:0.6;"/>
      </defs>
      <g>
       <use style="fill:#555555;stroke:#555555;stroke-width:0.6;" x="90" xlink:href="#maa3104f6d9" y="359.008351"/>
      </g>
     </g>
     <g id="line2d_27">
      <defs>
       <path d="M 0 0 
L 2 0 
" id="m0147b817e4" style="stroke:#555555;stroke-width:0.6;"/>
      </defs>
      <g>
       <use style="fill:#555555;stroke:#555555;stroke-width:0.6;" x="648" xlink:href="#m0147b817e4" y="359.008351"/>
      </g>
     </g>
    </g>
    <g id="ytick_5">
     <g id="line2d_28">
      <g>
       <use style="fill:#555555;stroke:#555555;stroke-width:0.6;" x="90" xlink:href="#maa3104f6d9" y="347.898949"/>
      </g>
     </g>
     <g id="line2d_29">
      <g>
       <use style="fill:#555555;stroke:#555555;stroke-width:0.6;" x="648" xlink:href="#m0147b817e4" y="347.898949"/>
      </g>
     </g>
    </g>
    <g id="ytick_6">
     <g id="line2d_30">
      <g>
       <use style="fill:#555555;stroke:#555555;stroke-width:0.6;" x="90" xlink:href="#maa3104f6d9" y="340.016702"/>
      </g>
     </g>
     <g id="line2d_31">
      <g>
       <use style="fill:#555555;stroke:#555555;stroke-width:0.6;" x="648" xlink:href="#m0147b817e4" y="340.016702"/>
      </g>
     </g>
    </g>
    <g id="ytick_7">
     <g id="line2d_32">
      <g>
       <use style="fill:#555555;stroke:#555555;stroke-width:0.6;" x="90" xlink:href="#maa3104f6d9" y="333.902757"/>
      </g>
     </g>
     <g id="line2d_33">
      <g>
       <use style="fill:#555555;stroke:#555555;stroke-width:0.6;" x="648" xlink:href="#m0147b817e4" y="333.902757"/>
      </g>
     </g>
    </g>
    <g id="ytick_8">
     <g id="line2d_34">
      <g>
       <use style="fill:#555555;stroke:#555555;stroke-width:0.6;" x="90" xlink:href="#maa3104f6d9" y="328.9073"/>
      </g>
     </g>
     <g id="line2d_35">
      <g>
       <use style="fill:#555555;stroke:#555555;stroke-width:0.6;" x="648" xlink:href="#m0147b817e4" y="328.9073"/>
      </g>
     </g>
    </g>
    <g id="ytick_9">
     <g id="line2d_36">
      <g>
       <use style="fill:#555555;stroke:#555555;stroke-width:0.6;" x="90" xlink:href="#maa3104f6d9" y="324.683701"/>
      </g>
     </g>
     <g id="line2d_37">
      <g>
       <use style="fill:#555555;stroke:#555555;stroke-width:0.6;" x="648" xlink:href="#m0147b817e4" y="324.683701"/>
      </g>
     </g>
    </g>
    <g id="ytick_10">
     <g id="line2d_38">
      <g>
       <use style="fill:#555555;stroke:#555555;stroke-width:0.6;" x="90" xlink:href="#maa3104f6d9" y="321.025054"/>
      </g>
     </g>
     <g id="line2d_39">
      <g>
       <use style="fill:#555555;stroke:#555555;stroke-width:0.6;" x="648" xlink:href="#m0147b817e4" y="321.025054"/>
      </g>
     </g>
    </g>
    <g id="ytick_11">
     <g id="line2d_40">
      <g>
       <use style="fill:#555555;stroke:#555555;stroke-width:0.6;" x="90" xlink:href="#maa3104f6d9" y="317.797898"/>
      </g>
     </g>
     <g id="line2d_41">
      <g>
       <use style="fill:#555555;stroke:#555555;stroke-width:0.6;" x="648" xlink:href="#m0147b817e4" y="317.797898"/>
      </g>
     </g>
    </g>
    <g id="ytick_12">
     <g id="line2d_42">
      <g>
       <use style="fill:#555555;stroke:#555555;stroke-width:0.6;" x="90" xlink:href="#maa3104f6d9" y="295.919459"/>
      </g>
     </g>
     <g id="line2d_43">
      <g>
       <use style="fill:#555555;stroke:#555555;stroke-width:0.6;" x="648" xlink:href="#m0147b817e4" y="295.919459"/>
      </g>
     </g>
    </g>
    <g id="ytick_13">
     <g id="line2d_44">
      <g>
       <use style="fill:#555555;stroke:#555555;stroke-width:0.6;" x="90" xlink:href="#maa3104f6d9" y="284.810057"/>
      </g>
     </g>
     <g id="line2d_45">
      <g>
       <use style="fill:#555555;stroke:#555555;stroke-width:0.6;" x="648" xlink:href="#m0147b817e4" y="284.810057"/>
      </g>
     </g>
    </g>
    <g id="ytick_14">
     <g id="line2d_46">
      <g>
       <use style="fill:#555555;stroke:#555555;stroke-width:0.6;" x="90" xlink:href="#maa3104f6d9" y="276.927811"/>
      </g>
     </g>
     <g id="line2d_47">
      <g>
       <use style="fill:#555555;stroke:#555555;stroke-width:0.6;" x="648" xlink:href="#m0147b817e4" y="276.927811"/>
      </g>
     </g>
    </g>
    <g id="ytick_15">
     <g id="line2d_48">
      <g>
       <use style="fill:#555555;stroke:#555555;stroke-width:0.6;" x="90" xlink:href="#maa3104f6d9" y="270.813865"/>
      </g>
     </g>
     <g id="line2d_49">
      <g>
       <use style="fill:#555555;stroke:#555555;stroke-width:0.6;" x="648" xlink:href="#m0147b817e4" y="270.813865"/>
      </g>
     </g>
    </g>
    <g id="ytick_16">
     <g id="line2d_50">
      <g>
       <use style="fill:#555555;stroke:#555555;stroke-width:0.6;" x="90" xlink:href="#maa3104f6d9" y="265.818408"/>
      </g>
     </g>
     <g id="line2d_51">
      <g>
       <use style="fill:#555555;stroke:#555555;stroke-width:0.6;" x="648" xlink:href="#m0147b817e4" y="265.818408"/>
      </g>
     </g>
    </g>
    <g id="ytick_17">
     <g id="line2d_52">
      <g>
       <use style="fill:#555555;stroke:#555555;stroke-width:0.6;" x="90" xlink:href="#maa3104f6d9" y="261.59481"/>
      </g>
     </g>
     <g id="line2d_53">
      <g>
       <use style="fill:#555555;stroke:#555555;stroke-width:0.6;" x="648" xlink:href="#m0147b817e4" y="261.59481"/>
      </g>
     </g>
    </g>
    <g id="ytick_18">
     <g id="line2d_54">
      <g>
       <use style="fill:#555555;stroke:#555555;stroke-width:0.6;" x="90" xlink:href="#maa3104f6d9" y="257.936162"/>
      </g>
     </g>
     <g id="line2d_55">
      <g>
       <use style="fill:#555555;stroke:#555555;stroke-width:0.6;" x="648" xlink:href="#m0147b817e4" y="257.936162"/>
      </g>
     </g>
    </g>
    <g id="ytick_19">
     <g id="line2d_56">
      <g>
       <use style="fill:#555555;stroke:#555555;stroke-width:0.6;" x="90" xlink:href="#maa3104f6d9" y="254.709006"/>
      </g>
     </g>
     <g id="line2d_57">
      <g>
       <use style="fill:#555555;stroke:#555555;stroke-width:0.6;" x="648" xlink:href="#m0147b817e4" y="254.709006"/>
      </g>
     </g>
    </g>
    <g id="ytick_20">
     <g id="line2d_58">
      <g>
       <use style="fill:#555555;stroke:#555555;stroke-width:0.6;" x="90" xlink:href="#maa3104f6d9" y="232.830568"/>
      </g>
     </g>
     <g id="line2d_59">
      <g>
       <use style="fill:#555555;stroke:#555555;stroke-width:0.6;" x="648" xlink:href="#m0147b817e4" y="232.830568"/>
      </g>
     </g>
    </g>
    <g id="text_16">
     <!-- daily new deaths -->
     <g style="fill:#555555;" transform="translate(33.654875 351.872727)rotate(-90)scale(0.12 -0.12)">
      <defs>
       <path d="M 8.40625 66.40625 
L 8.40625 60.59375 
L 21.40625 60.59375 
L 21.40625 5.703125 
L 7.796875 5.703125 
L 7.796875 0 
L 42.09375 0 
L 42.09375 5.703125 
L 28.59375 5.703125 
L 28.59375 66.40625 
z
" id="Inconsolata-108"/>
       <path d="M 1.5 45.703125 
L 10.703125 -0.09375 
L 17.203125 -0.09375 
L 25.203125 29.5 
L 33.703125 -0.09375 
L 40.40625 -0.09375 
C 43.5 15 46.09375 30.296875 48 45.59375 
L 41.40625 45.59375 
C 41.59375 40.09375 41.09375 35 37.09375 9 
L 27.5 41.40625 
L 23.09375 41.40625 
L 15.203125 8.90625 
L 8.59375 41.90625 
C 8.40625 42.59375 8.40625 42.90625 8.703125 43.703125 
C 8.796875 44.203125 9.09375 44.90625 8.796875 45.703125 
z
" id="Inconsolata-119"/>
      </defs>
      <use xlink:href="#Inconsolata-100"/>
      <use x="49.999985" xlink:href="#Inconsolata-97"/>
      <use x="99.999969" xlink:href="#Inconsolata-105"/>
      <use x="149.999954" xlink:href="#Inconsolata-108"/>
      <use x="199.999939" xlink:href="#Inconsolata-121"/>
      <use x="249.999924" xlink:href="#Inconsolata-32"/>
      <use x="299.999908" xlink:href="#Inconsolata-110"/>
      <use x="349.999893" xlink:href="#Inconsolata-101"/>
      <use x="399.999878" xlink:href="#Inconsolata-119"/>
      <use x="449.999863" xlink:href="#Inconsolata-32"/>
      <use x="499.999847" xlink:href="#Inconsolata-100"/>
      <use x="549.999832" xlink:href="#Inconsolata-101"/>
      <use x="599.999817" xlink:href="#Inconsolata-97"/>
      <use x="649.999802" xlink:href="#Inconsolata-116"/>
      <use x="699.999786" xlink:href="#Inconsolata-104"/>
      <use x="749.999771" xlink:href="#Inconsolata-115"/>
     </g>
     <!-- per 100K people -->
     <g style="fill:#555555;" transform="translate(45.306125 348.872727)rotate(-90)scale(0.12 -0.12)">
      <defs>
       <path d="M 5.90625 45.59375 
L 6 -16.703125 
L 13.296875 -16.703125 
L 13.296875 6 
C 16.40625 1.5 21.5 -1.296875 27 -1.296875 
C 36.40625 -1.296875 46.203125 6.59375 46.203125 23.296875 
C 46.203125 39.40625 36.703125 46.59375 27.703125 46.59375 
C 21.796875 46.59375 16.296875 43.59375 13.203125 38.59375 
L 13.203125 45.59375 
z
M 25 40.5 
C 29 40.5 38.703125 38.40625 38.703125 21.796875 
C 38.703125 7.40625 29.296875 5.09375 25 5.09375 
C 20.703125 5.09375 16.296875 7.296875 14.5 11.40625 
C 13.203125 14.5 13.203125 18.296875 13.203125 24.90625 
C 13.203125 28.703125 13.40625 31.5 14.40625 33.90625 
C 16.203125 38 20.40625 40.5 25 40.5 
z
" id="Inconsolata-112"/>
       <path d="M 9.90625 45.59375 
L 9.90625 -0.09375 
L 17.09375 -0.09375 
L 17.09375 22.09375 
C 17.09375 24.90625 17.203125 27.90625 20.296875 32.796875 
C 24.5 39.40625 29.90625 40.5 33.203125 40.5 
C 37 40.5 39.40625 38.703125 40.703125 37.09375 
C 41.296875 36.296875 41.59375 35.5 42.40625 34.796875 
L 45.796875 41.703125 
C 42.90625 44.703125 38.703125 46.703125 33.59375 46.703125 
C 26.90625 46.703125 20.09375 43.296875 17.09375 36.796875 
L 17.40625 45.59375 
z
" id="Inconsolata-114"/>
       <path d="M 4.203125 62.296875 
L 4.203125 0 
L 11.59375 0 
L 11.59375 25.796875 
L 16.5 31.09375 
L 38.203125 -0.5 
C 38.203125 -0.5 42.09375 -0.09375 47.09375 -0.09375 
L 21.90625 35.296875 
L 45.40625 62.296875 
L 42.796875 62.296875 
C 41.09375 62.296875 39.40625 62.296875 37.703125 62.796875 
L 11.59375 33.5 
L 11.59375 59.796875 
C 11.59375 60.203125 11.59375 60.5 12 60.90625 
C 12.203125 61.203125 12.703125 61.703125 12.5 62.296875 
z
" id="Inconsolata-75"/>
       <path d="M 46 22.59375 
C 46 38.40625 36 46.59375 25.59375 46.59375 
C 14 46.59375 4 36.59375 4 22.40625 
C 4 8.5 13.90625 -1.296875 25.40625 -1.296875 
C 36.203125 -1.296875 46 7.40625 46 22.59375 
z
M 25.09375 40.5 
C 31.703125 40.5 38.703125 34.796875 38.703125 22.296875 
C 38.703125 10.796875 32.09375 5 25.5 5 
C 18.203125 5 11.59375 11.796875 11.59375 23.09375 
C 11.59375 34.296875 18.09375 40.5 25.09375 40.5 
z
" id="Inconsolata-111"/>
      </defs>
      <use xlink:href="#Inconsolata-112"/>
      <use x="49.999985" xlink:href="#Inconsolata-101"/>
      <use x="99.999969" xlink:href="#Inconsolata-114"/>
      <use x="149.999954" xlink:href="#Inconsolata-32"/>
      <use x="199.999939" xlink:href="#Inconsolata-49"/>
      <use x="249.999924" xlink:href="#Inconsolata-48"/>
      <use x="299.999908" xlink:href="#Inconsolata-48"/>
      <use x="349.999893" xlink:href="#Inconsolata-75"/>
      <use x="399.999878" xlink:href="#Inconsolata-32"/>
      <use x="449.999863" xlink:href="#Inconsolata-112"/>
      <use x="499.999847" xlink:href="#Inconsolata-101"/>
      <use x="549.999832" xlink:href="#Inconsolata-111"/>
      <use x="599.999817" xlink:href="#Inconsolata-112"/>
      <use x="649.999802" xlink:href="#Inconsolata-108"/>
      <use x="699.999786" xlink:href="#Inconsolata-101"/>
     </g>
     <!-- (rolling 7-day mean) -->
     <g style="fill:#555555;" transform="translate(56.9 363.872727)rotate(-90)scale(0.12 -0.12)">
      <defs>
       <path d="M 39.09375 66.59375 
C 23.703125 59.796875 13.796875 44.09375 13.796875 25.796875 
C 13.796875 7.59375 23.40625 -9 39.203125 -17.296875 
L 42.5 -12 
C 28.796875 -4.09375 20.796875 10.59375 20.796875 26.09375 
C 20.796875 40.40625 27.703125 53.203125 39.40625 60 
C 39.59375 60.203125 39.90625 60.40625 40.296875 60.40625 
C 40.59375 60.40625 40.90625 60.203125 41.296875 60.203125 
C 41.5 60.203125 41.796875 60.296875 42.203125 60.40625 
z
" id="Inconsolata-40"/>
       <path d="M 12.5 31.40625 
C 12.5 36.90625 17.09375 41.40625 22.59375 41.40625 
C 28.203125 41.40625 32.703125 36.90625 32.703125 31.40625 
C 32.703125 25.90625 28.203125 21.40625 22.59375 21.40625 
C 17 21.40625 12.5 25.90625 12.5 31.40625 
z
M 23 47.09375 
C 13.90625 47.09375 6 39.90625 6 31 
C 6 26 8.5 21.296875 12.703125 18.59375 
C 9.40625 15.796875 7.5 12.703125 7.5 9.796875 
C 7.5 7.90625 8.296875 5.203125 11.203125 3.703125 
C 6.296875 0.59375 3.796875 -2.796875 3.796875 -6.40625 
C 3.796875 -11.40625 8.40625 -17.296875 24.40625 -17.296875 
C 39.90625 -17.296875 45.5 -9.40625 45.5 -3.296875 
C 45.5 0.703125 43.203125 4.703125 38.40625 6.59375 
C 33.59375 8.59375 28.09375 7.90625 22.90625 7.90625 
C 19.5 7.90625 17.296875 8.203125 16.40625 8.5 
C 14.59375 9 13.59375 10.09375 13.59375 11.5 
C 13.59375 13.90625 16.40625 16.203125 16.90625 16.59375 
C 18.703125 15.90625 20.703125 15.59375 22.703125 15.59375 
C 31.703125 15.59375 39.09375 22.796875 39.09375 31.203125 
C 39.09375 34 38.296875 36.703125 36.796875 39 
C 39.203125 40.40625 42 41.203125 44.796875 41.203125 
C 45.703125 41.203125 46.5 41.09375 47.40625 40.90625 
L 46.59375 46.796875 
C 42 47.203125 37.40625 45.703125 33.90625 42.796875 
C 31 45.59375 27.203125 47.09375 23 47.09375 
z
M 16.09375 2.40625 
C 17.796875 2.203125 20.203125 2 23.703125 1.796875 
C 27.09375 1.703125 30.796875 2 33.40625 1.59375 
C 37.59375 0.90625 38.90625 -1.703125 38.90625 -3.703125 
C 38.90625 -5.703125 37.703125 -8.09375 34.59375 -9.796875 
C 31.203125 -11.59375 27.40625 -11.796875 24.296875 -11.796875 
C 22.203125 -11.796875 18.296875 -11.703125 14.90625 -10.296875 
C 11.203125 -8.796875 10.40625 -6.296875 10.40625 -4.703125 
C 10.40625 -1.40625 13.5 1 16.09375 2.40625 
z
" id="Inconsolata-103"/>
       <path d="M 7.796875 62.296875 
L 7.796875 55.59375 
L 34.5 55.59375 
C 31.296875 48.203125 28.296875 40.796875 25.40625 33.296875 
C 21.203125 22.296875 17.203125 11.203125 13.5 0 
L 21.40625 0 
C 24.40625 9.796875 27.703125 19.5 31.296875 29.09375 
C 34.90625 39 38.90625 48.703125 43.09375 58.40625 
L 43.09375 62.296875 
z
" id="Inconsolata-55"/>
       <path d="M 7 34.703125 
L 7 28.09375 
L 43 28.09375 
L 43 34.703125 
z
" id="Inconsolata-45"/>
       <path d="M 3.703125 0 
L 10.296875 0 
L 10.296875 30.40625 
C 10.296875 32.59375 10.5 34.59375 11.796875 37 
C 13.40625 40 15.40625 41.203125 17.296875 41.203125 
C 18.90625 41.203125 20.703125 40.203125 21.5 37.703125 
C 22.09375 35.796875 22 33.59375 22 31.703125 
L 22 0 
L 28.703125 0 
L 28.703125 30.203125 
C 28.703125 32.59375 28.90625 34.5 30.59375 37.40625 
C 31.40625 38.59375 33.09375 41.5 35.90625 41.5 
C 37.40625 41.5 38.796875 40.59375 39.5 38.90625 
C 40.40625 37 40.203125 34.40625 40.203125 32.296875 
L 40.203125 -0.09375 
L 47 -0.09375 
L 47 32.40625 
C 47 36.203125 47.09375 40 45.09375 43.09375 
C 43.40625 45.703125 40.5 46.703125 38 46.703125 
C 33.59375 46.703125 29.5 44.09375 27.703125 40.09375 
C 27 43.90625 23.796875 46.703125 19.703125 46.703125 
C 15.90625 46.703125 12.40625 44.296875 10.296875 41.09375 
L 10.40625 45.59375 
L 3.703125 45.59375 
z
" id="Inconsolata-109"/>
       <path d="M 7.703125 60.296875 
C 20.90625 53.203125 29.296875 39.59375 29.296875 24.703125 
C 29.296875 9.703125 20.703125 -4.296875 7.203125 -11.40625 
L 9.09375 -17.5 
C 25.703125 -9.59375 36.40625 7 36.40625 25 
C 36.40625 42.796875 25.90625 59 9.59375 66.5 
z
" id="Inconsolata-41"/>
      </defs>
      <use xlink:href="#Inconsolata-40"/>
      <use x="49.999985" xlink:href="#Inconsolata-114"/>
      <use x="99.999969" xlink:href="#Inconsolata-111"/>
      <use x="149.999954" xlink:href="#Inconsolata-108"/>
      <use x="199.999939" xlink:href="#Inconsolata-108"/>
      <use x="249.999924" xlink:href="#Inconsolata-105"/>
      <use x="299.999908" xlink:href="#Inconsolata-110"/>
      <use x="349.999893" xlink:href="#Inconsolata-103"/>
      <use x="399.999878" xlink:href="#Inconsolata-32"/>
      <use x="449.999863" xlink:href="#Inconsolata-55"/>
      <use x="499.999847" xlink:href="#Inconsolata-45"/>
      <use x="549.999832" xlink:href="#Inconsolata-100"/>
      <use x="599.999817" xlink:href="#Inconsolata-97"/>
      <use x="649.999802" xlink:href="#Inconsolata-121"/>
      <use x="699.999786" xlink:href="#Inconsolata-32"/>
      <use x="749.999771" xlink:href="#Inconsolata-109"/>
      <use x="799.999756" xlink:href="#Inconsolata-101"/>
      <use x="849.999741" xlink:href="#Inconsolata-97"/>
      <use x="899.999725" xlink:href="#Inconsolata-110"/>
      <use x="949.99971" xlink:href="#Inconsolata-41"/>
     </g>
    </g>
   </g>
   <g id="line2d_60">
    <path clip-path="url(#peded85678d)" d="M 75.520216 433 
L 75.833568 427.007652 
L 77.407616 419.125406 
L 78.981664 413.01146 
L 80.555712 408.016003 
L 82.12976 408.016003 
L 83.703808 410.400042 
L 85.277856 403.792405 
L 86.851904 410.400042 
L 88.425952 394.019812 
L 90 396.906601 
L 91.574048 390.190452 
L 93.148096 391.408393 
L 94.722144 383.839283 
L 96.296192 384.800756 
L 97.87024 380.298991 
L 99.444288 387.905866 
L 101.018336 386.831252 
L 102.592384 387.905866 
L 104.166432 382.011996 
L 105.74048 389.024355 
L 107.314528 384.800756 
L 108.888575 387.905866 
L 110.462623 391.408393 
L 112.036671 385.797199 
L 113.610719 389.024355 
L 115.184767 387.905866 
L 116.758815 384.800756 
L 118.332863 382.910409 
L 119.906911 377.914952 
L 121.480959 377.914952 
L 124.629055 373.691353 
L 126.203103 375.028163 
L 127.777151 371.801007 
L 129.351199 373.691353 
L 130.925247 374.351606 
L 132.499295 370.609551 
L 134.073343 373.691353 
L 135.647391 375.721849 
L 137.221439 376.433556 
L 138.795487 378.68681 
L 141.943583 382.011996 
L 143.51763 384.800756 
L 145.091678 382.910409 
L 146.665726 378.68681 
L 148.239774 378.68681 
L 149.813822 379.481045 
L 151.38787 379.481045 
L 152.961918 382.011996 
L 154.535966 382.011996 
L 156.110014 382.910409 
L 157.684062 387.905866 
L 159.25811 387.905866 
L 160.832158 391.408393 
L 163.980254 394.019812 
L 165.554302 395.425205 
L 167.12835 401.902058 
L 168.702398 405.822901 
L 170.276446 410.400042 
L 171.850494 413.01146 
L 173.424542 413.01146 
L 174.99859 415.89825 
L 176.572638 419.125406 
L 178.146685 415.89825 
L 179.720733 415.89825 
L 181.294781 419.125406 
L 182.868829 413.01146 
L 184.442877 419.125406 
L 186.016925 415.89825 
L 187.590973 413.01146 
L 189.165021 415.89825 
L 190.739069 415.89825 
L 192.313117 419.125406 
L 193.887165 427.007652 
L 195.461213 427.007652 
L 196.310245 433 
M 204.056468 433 
L 204.905501 427.007652 
L 206.479549 427.007652 
L 208.053597 422.784053 
L 209.884296 433 
M 219.796948 433 
L 220.64598 427.007652 
L 222.220028 427.007652 
L 223.794076 432.003109 
L 225.368124 432.003109 
L 225.480237 433 
M 289.791977 433 
L 289.90409 432.003109 
L 291.478138 427.007652 
L 293.052186 432.003109 
L 294.626234 427.007652 
L 296.456934 433 
M 302.239822 433 
L 302.496474 432.003109 
L 304.070522 427.007652 
L 305.64457 427.007652 
L 307.218618 422.784053 
L 308.792666 422.784053 
L 310.366714 419.125406 
L 311.940762 427.007652 
L 313.771461 433 
M 364.60936 433 
L 365.458392 427.007652 
L 367.03244 427.007652 
L 368.606488 422.784053 
L 370.180536 408.016003 
L 371.754584 403.792405 
L 373.328632 401.902058 
L 374.90268 403.792405 
L 376.476728 403.792405 
L 378.050776 400.133757 
L 379.624824 401.902058 
L 381.198872 408.016003 
L 382.77292 410.400042 
L 384.346968 408.016003 
L 385.921016 398.472693 
L 387.495063 396.906601 
L 389.069111 398.472693 
L 390.643159 395.425205 
L 392.217207 391.408393 
L 393.791255 389.024355 
L 395.365303 385.797199 
L 396.939351 386.831252 
L 398.513399 390.190452 
L 400.087447 386.831252 
L 401.661495 385.797199 
L 403.235543 390.190452 
L 404.809591 387.905866 
L 406.383639 391.408393 
L 407.957687 392.683002 
L 411.105783 392.683002 
L 412.679831 396.906601 
L 414.253879 392.683002 
L 415.827927 396.906601 
L 417.401975 392.683002 
L 418.976023 395.425205 
L 420.550071 387.905866 
L 422.124118 391.408393 
L 423.698166 392.683002 
L 425.272214 392.683002 
L 426.846262 394.019812 
L 428.42031 400.133757 
L 429.994358 401.902058 
L 431.568406 408.016003 
L 434.716502 408.016003 
L 436.29055 413.01146 
L 437.864598 410.400042 
L 439.438646 410.400042 
L 442.586742 405.822901 
L 444.16079 408.016003 
L 445.734838 405.822901 
L 447.308886 405.822901 
L 448.882934 408.016003 
L 450.456982 410.400042 
L 452.03103 405.822901 
L 453.605078 408.016003 
L 455.179126 403.792405 
L 458.327221 403.792405 
L 459.901269 405.822901 
L 463.049365 405.822901 
L 464.623413 410.400042 
L 466.197461 415.89825 
L 467.771509 419.125406 
L 469.345557 422.784053 
L 470.919605 415.89825 
L 472.493653 410.400042 
L 475.641749 405.822901 
L 480.363893 405.822901 
L 481.937941 408.016003 
L 483.511989 408.016003 
L 485.086037 405.822901 
L 486.660085 405.822901 
L 488.234133 408.016003 
L 489.808181 408.016003 
L 491.382228 401.902058 
L 492.956276 401.902058 
L 494.530324 403.792405 
L 496.104372 415.89825 
L 497.67842 415.89825 
L 499.252468 410.400042 
L 500.826516 405.822901 
L 502.400564 410.400042 
L 503.974612 408.016003 
L 505.54866 401.902058 
L 508.696756 398.472693 
L 510.270804 398.472693 
L 511.844852 401.902058 
L 513.4189 395.425205 
L 516.566996 398.472693 
L 518.141044 400.133757 
L 519.715092 405.822901 
L 521.28914 403.792405 
L 522.863188 394.019812 
L 524.437236 396.906601 
L 526.011283 391.408393 
L 527.585331 390.190452 
L 529.159379 386.831252 
L 530.733427 382.910409 
L 532.307475 378.68681 
L 533.881523 377.914952 
L 535.455571 376.433556 
L 537.029619 378.68681 
L 538.603667 376.433556 
L 540.177715 370.032706 
L 541.751763 365.809107 
L 543.325811 359.695162 
L 544.899859 358.545378 
L 546.473907 355.696147 
L 548.047955 351.617903 
L 549.622003 347.063192 
L 551.196051 344.474223 
L 552.770099 343.373707 
L 554.344147 344.474223 
L 557.492243 341.903668 
L 559.066291 341.903668 
L 560.640339 344.699731 
L 562.214386 341.29702 
L 563.788434 340.703513 
L 565.362482 339.931655 
L 566.93653 339.931655 
L 570.084626 338.092094 
L 571.658674 336.704499 
L 573.232722 339.180946 
L 574.80677 339.180946 
L 576.380818 339.553729 
L 577.954866 336.368308 
L 579.528914 337.389513 
L 581.102962 336.535888 
L 582.67701 337.216647 
L 584.251058 337.389513 
L 585.825106 337.389513 
L 587.399154 338.996439 
L 588.973202 341.497747 
L 590.54725 341.497747 
L 592.121298 344.028698 
L 593.695346 344.028698 
L 595.269394 345.387612 
L 596.843441 346.093209 
L 598.417489 344.699731 
L 599.991537 347.063192 
L 601.565585 349.649938 
L 603.139633 349.922569 
L 604.713681 351.041057 
L 606.287729 353.425095 
L 607.861777 356.730201 
L 609.435825 359.695162 
L 611.009873 359.306515 
L 615.732017 359.306515 
L 615.732017 359.306515 
" style="fill:none;stroke:#e24a33;stroke-linecap:square;stroke-width:4;"/>
   </g>
   <g id="line2d_61">
    <defs>
     <path d="M 0 3 
C 0.795609 3 1.55874 2.683901 2.12132 2.12132 
C 2.683901 1.55874 3 0.795609 3 0 
C 3 -0.795609 2.683901 -1.55874 2.12132 -2.12132 
C 1.55874 -2.683901 0.795609 -3 0 -3 
C -0.795609 -3 -1.55874 -2.683901 -2.12132 -2.12132 
C -2.683901 -1.55874 -3 -0.795609 -3 0 
C -3 0.795609 -2.683901 1.55874 -2.12132 2.12132 
C -1.55874 2.683901 -0.795609 3 0 3 
z
" id="m42f7841b5a" style="stroke:#e24a33;"/>
    </defs>
    <g clip-path="url(#peded85678d)">
     <use style="fill:#e24a33;stroke:#e24a33;" x="615.732017" xlink:href="#m42f7841b5a" y="359.306515"/>
    </g>
   </g>
   <g id="line2d_62">
    <path clip-path="url(#peded85678d)" d="M 86.018771 433 
L 86.851904 429.355388 
L 88.425952 423.85718 
L 90 415.359197 
L 91.574048 404.865532 
L 93.148096 401.363005 
L 94.722144 387.808745 
L 96.296192 377.375899 
L 97.87024 371.261954 
L 99.444288 368.484981 
L 102.592384 355.566045 
L 104.166432 347.580987 
L 110.462623 322.847333 
L 113.610719 313.477121 
L 115.184767 309.520833 
L 116.758815 305.067952 
L 118.332863 302.190949 
L 119.906911 299.991071 
L 121.480959 298.927924 
L 123.055007 296.106387 
L 124.629055 294.374858 
L 126.203103 290.510004 
L 127.777151 289.181413 
L 129.351199 289.327933 
L 130.925247 293.271387 
L 132.499295 290.337982 
L 134.073343 291.386696 
L 135.647391 293.569902 
L 137.221439 290.01597 
L 138.795487 290.20493 
L 140.369535 287.671191 
L 141.943583 285.383839 
L 143.51763 288.036634 
L 145.091678 286.272713 
L 146.665726 285.130581 
L 148.239774 289.641914 
L 149.813822 288.764481 
L 151.38787 290.915639 
L 152.961918 290.72173 
L 154.535966 291.26817 
L 156.110014 293.871706 
L 157.684062 293.50566 
L 159.25811 295.570729 
L 160.832158 299.006245 
L 162.406206 300.956415 
L 163.980254 302.132279 
L 165.554302 303.483744 
L 167.12835 304.201122 
L 168.702398 310.897965 
L 170.276446 306.13213 
L 171.850494 307.487596 
L 173.424542 307.310025 
L 178.146685 311.345474 
L 179.720733 308.356335 
L 181.294781 314.933898 
L 182.868829 319.724396 
L 184.442877 326.301674 
L 186.016925 326.160441 
L 187.590973 325.88014 
L 189.165021 329.688592 
L 190.739069 329.608595 
L 192.313117 334.877002 
L 193.887165 331.596112 
L 195.461213 330.584335 
L 197.035261 331.254685 
L 198.609309 331.424866 
L 201.757405 334.113213 
L 203.331453 334.780356 
L 204.905501 336.471585 
L 206.479549 335.563242 
L 208.053597 336.267112 
L 211.201693 338.716045 
L 212.77574 345.649624 
L 214.349788 348.203722 
L 215.923836 349.658886 
L 219.071932 353.579729 
L 220.64598 353.199179 
L 222.220028 354.160652 
L 223.794076 348.361643 
L 225.368124 352.270305 
L 228.51622 357.265762 
L 230.090268 358.38425 
L 233.238364 360.274597 
L 234.812412 368.156843 
L 236.38646 363.655078 
L 237.960508 362.569821 
L 239.534556 362.305093 
L 241.108604 362.837132 
L 242.682652 365.075041 
L 244.2567 365.664293 
L 245.830748 365.075041 
L 247.404795 370.540882 
L 248.978843 375.182796 
L 250.552891 370.187339 
L 252.126939 372.002517 
L 253.700987 372.002517 
L 255.275035 370.540882 
L 256.849083 370.899046 
L 258.423131 374.352455 
L 259.997179 374.764481 
L 261.571227 385.258146 
L 263.145275 381.296742 
L 264.719323 379.759938 
L 266.293371 384.655942 
L 267.867419 387.148492 
L 269.441467 381.828781 
L 271.015515 381.828781 
L 272.589563 380.774837 
L 274.163611 382.371356 
L 275.737659 383.489844 
L 277.311707 381.296742 
L 278.885755 384.655942 
L 280.459803 392.938183 
L 282.03385 396.367548 
L 285.181946 406.140141 
L 286.755994 406.140141 
L 288.330042 407.47695 
L 291.478138 404.865532 
L 293.052186 403.647591 
L 294.626234 394.599247 
L 296.200282 393.756129 
L 299.348378 395.469134 
L 304.070522 392.938183 
L 305.64457 399.254337 
L 307.218618 396.367548 
L 308.792666 396.367548 
L 310.366714 397.296422 
L 311.940762 394.599247 
L 313.51481 385.873883 
L 315.088858 390.621382 
L 316.662906 383.489844 
L 318.236953 384.06669 
L 321.385049 382.924893 
L 322.959097 385.258146 
L 324.533145 392.938183 
L 326.107193 391.372091 
L 330.829337 393.756129 
L 333.977433 393.756129 
L 335.551481 391.372091 
L 337.125529 384.655942 
L 338.699577 391.372091 
L 340.273625 390.621382 
L 341.847673 388.485302 
L 344.995769 388.485302 
L 346.569817 391.372091 
L 348.143865 399.254337 
L 349.717913 402.481493 
L 351.291961 399.254337 
L 352.866008 401.363005 
L 354.440056 399.254337 
L 356.014104 400.288391 
L 357.588152 390.621382 
L 359.1622 394.599247 
L 360.736248 390.621382 
L 362.310296 396.367548 
L 363.884344 396.367548 
L 365.458392 398.257894 
L 367.03244 397.296422 
L 368.606488 407.47695 
L 370.180536 403.647591 
L 371.754584 406.140141 
L 373.328632 403.647591 
L 376.476728 401.363005 
L 378.050776 395.469134 
L 381.198872 395.469134 
L 382.77292 389.890695 
L 384.346968 391.372091 
L 385.921016 391.372091 
L 387.495063 392.938183 
L 389.069111 389.890695 
L 390.643159 382.371356 
L 392.217207 377.375899 
L 393.791255 375.182796 
L 395.365303 372.763653 
L 396.939351 371.629733 
L 398.513399 370.187339 
L 400.087447 370.187339 
L 401.661495 372.380442 
L 403.235543 372.002517 
L 404.809591 374.352455 
L 406.383639 372.380442 
L 407.957687 373.54654 
L 409.531735 367.512128 
L 411.105783 368.484981 
L 412.679831 367.195371 
L 414.253879 367.832589 
L 415.827927 369.153286 
L 417.401975 366.572636 
L 418.976023 365.368083 
L 420.550071 367.512128 
L 422.124118 359.313124 
L 423.698166 355.360807 
L 425.272214 353.199179 
L 426.846262 348.203722 
L 428.42031 349.658886 
L 429.994358 348.520479 
L 431.568406 344.115428 
L 433.142454 344.388059 
L 434.716502 345.081745 
L 436.29055 341.652381 
L 437.864598 343.711502 
L 439.438646 338.274113 
L 441.012694 336.781183 
L 442.586742 338.38393 
L 444.16079 339.507003 
L 445.734838 332.646687 
L 447.308886 329.449297 
L 448.882934 324.520101 
L 450.456982 322.291299 
L 452.03103 322.108434 
L 453.605078 315.310524 
L 455.179126 314.47028 
L 456.753173 308.876118 
L 458.327221 306.234049 
L 459.901269 304.775951 
L 461.475317 305.628146 
L 463.049365 304.455114 
L 464.623413 308.577892 
L 466.197461 298.591098 
L 467.771509 299.08479 
L 470.919605 296.129915 
L 472.493653 295.181433 
L 474.067701 295.272535 
L 475.641749 290.586806 
L 477.215797 291.9265 
L 478.789845 291.150155 
L 480.363893 290.185976 
L 481.937941 288.926874 
L 486.660085 286.954609 
L 488.234133 285.848923 
L 489.808181 283.8832 
L 491.382228 281.602227 
L 492.956276 280.053841 
L 496.104372 279.3559 
L 497.67842 278.267545 
L 500.826516 275.749944 
L 502.400564 275.660587 
L 503.974612 274.471267 
L 505.54866 273.506113 
L 507.122708 273.249612 
L 508.696756 272.673618 
L 510.270804 271.836561 
L 511.844852 272.070327 
L 513.4189 270.492825 
L 514.992948 270.281248 
L 516.566996 269.638237 
L 518.141044 269.141508 
L 519.715092 268.421463 
L 521.28914 265.639333 
L 522.863188 263.619337 
L 524.437236 262.56214 
L 526.011283 261.055647 
L 527.585331 260.511404 
L 529.159379 260.364251 
L 530.733427 259.226882 
L 533.881523 258.264565 
L 535.455571 260.306884 
L 537.029619 263.526082 
L 538.603667 263.893764 
L 543.325811 261.160549 
L 546.473907 259.318856 
L 548.047955 258.687428 
L 551.196051 259.116919 
L 552.770099 258.460295 
L 554.344147 259.141317 
L 555.918195 258.448393 
L 559.066291 251.765636 
L 560.640339 250.668975 
L 562.214386 250.543844 
L 563.788434 250.966207 
L 565.362482 250.601869 
L 566.93653 250.031447 
L 568.510578 250.21146 
L 570.084626 252.685348 
L 571.658674 251.812296 
L 573.232722 251.358412 
L 574.80677 253.762084 
L 576.380818 250.709317 
L 577.954866 251.593679 
L 579.528914 252.752928 
L 581.102962 251.161608 
L 582.67701 254.039278 
L 584.251058 254.110286 
L 585.825106 251.82631 
L 587.399154 258.347431 
L 588.973202 259.153524 
L 590.54725 256.155241 
L 595.269394 256.155241 
L 595.269394 256.155241 
" style="fill:none;stroke:#348abd;stroke-linecap:square;stroke-opacity:0.4;stroke-width:2;"/>
   </g>
   <g id="line2d_63">
    <defs>
     <path d="M 0 3 
C 0.795609 3 1.55874 2.683901 2.12132 2.12132 
C 2.683901 1.55874 3 0.795609 3 0 
C 3 -0.795609 2.683901 -1.55874 2.12132 -2.12132 
C 1.55874 -2.683901 0.795609 -3 0 -3 
C -0.795609 -3 -1.55874 -2.683901 -2.12132 -2.12132 
C -2.683901 -1.55874 -3 -0.795609 -3 0 
C -3 0.795609 -2.683901 1.55874 -2.12132 2.12132 
C -1.55874 2.683901 -0.795609 3 0 3 
z
" id="mcd51b87f16" style="stroke:#348abd;stroke-opacity:0.4;"/>
    </defs>
    <g clip-path="url(#peded85678d)">
     <use style="fill:#348abd;fill-opacity:0.4;stroke:#348abd;stroke-opacity:0.4;" x="595.269394" xlink:href="#mcd51b87f16" y="256.155241"/>
    </g>
   </g>
   <g id="line2d_64">
    <path clip-path="url(#peded85678d)" d="M 60.791528 433 
L 61.667137 426.820081 
L 63.241185 426.820081 
L 64.815233 418.937835 
L 69.537377 418.937835 
L 71.111425 426.820081 
L 71.987033 433 
M 72.911527 433 
L 74.25952 403.604834 
L 75.833568 407.828433 
L 77.407616 403.604834 
L 78.981664 396.71903 
L 80.555712 393.832241 
L 82.12976 393.832241 
L 83.703808 388.836784 
L 85.277856 391.220822 
L 86.851904 382.722838 
L 88.425952 380.954537 
L 90 376.245985 
L 91.574048 371.011232 
L 93.148096 366.617979 
L 94.722144 363.73119 
L 96.296192 366.617979 
L 97.87024 367.652032 
L 99.444288 366.617979 
L 101.018336 368.726647 
L 102.592384 373.503783 
L 104.166432 379.293474 
L 105.74048 386.643681 
L 107.314528 388.836784 
L 108.888575 388.836784 
L 110.462623 393.832241 
L 112.036671 403.604834 
L 113.610719 407.828433 
L 115.184767 412.82389 
L 116.758815 418.937835 
L 118.332863 388.836784 
L 119.906911 386.643681 
L 121.480959 386.643681 
L 123.055007 380.954537 
L 124.629055 380.954537 
L 126.203103 372.229173 
L 127.777151 369.845135 
L 129.351199 377.727381 
L 130.925247 384.613185 
L 132.499295 384.613185 
L 134.073343 388.836784 
L 135.647391 386.643681 
L 137.221439 399.946186 
L 138.795487 407.828433 
L 140.369535 418.937835 
L 141.943583 418.937835 
L 143.51763 426.820081 
L 144.393239 433 
M 161.530597 433 
L 162.406206 426.820081 
L 163.980254 426.820081 
L 165.554302 418.937835 
L 167.12835 426.820081 
L 171.850494 426.820081 
L 172.726102 433 
M 240.232995 433 
L 241.108604 426.820081 
L 242.682652 418.937835 
L 243.848139 433 
M 246.139812 433 
L 247.404795 412.82389 
L 250.552891 393.832241 
L 252.126939 391.220822 
L 253.700987 384.613185 
L 255.275035 382.722838 
L 256.849083 377.727381 
L 258.423131 379.293474 
L 259.997179 374.840592 
L 261.571227 371.011232 
L 263.145275 366.617979 
L 264.719323 361.119771 
L 266.293371 357.254336 
L 267.867419 355.172386 
L 271.015515 346.629887 
L 272.589563 346.144934 
L 274.163611 346.629887 
L 275.737659 348.138479 
L 277.311707 344.739541 
L 278.885755 342.546438 
L 280.459803 340.127295 
L 282.03385 342.128122 
L 283.607898 340.515942 
L 285.181946 337.904523 
L 286.755994 334.559012 
L 288.330042 333.027935 
L 289.90409 331.01872 
L 291.478138 329.40654 
L 293.052186 329.14683 
L 294.626234 328.382153 
L 296.200282 330.470718 
L 297.77433 330.470718 
L 299.348378 328.634681 
L 300.922426 328.889559 
L 302.496474 331.296886 
L 304.070522 330.200774 
L 305.64457 331.577906 
L 307.218618 329.14683 
L 308.792666 329.14683 
L 311.940762 334.559012 
L 313.51481 331.01872 
L 315.088858 328.382153 
L 316.662906 327.883973 
L 318.236953 326.91399 
L 319.811001 328.382153 
L 321.385049 322.520736 
L 322.959097 323.136473 
L 324.533145 327.153285 
L 326.107193 329.14683 
L 327.681241 318.912875 
L 330.829337 321.135646 
L 332.403385 328.13193 
L 333.977433 327.394689 
L 335.551481 326.208393 
L 337.125529 328.13193 
L 338.699577 344.739541 
L 340.273625 347.123579 
L 341.847673 346.144934 
L 343.421721 347.62633 
L 344.995769 352.019584 
L 346.569817 353.867418 
L 348.143865 353.237525 
L 349.717913 355.848943 
L 351.291961 355.172386 
L 352.866008 356.54263 
L 354.440056 359.507591 
L 356.014104 357.254336 
L 357.588152 359.507591 
L 359.1622 364.660064 
L 360.736248 361.962888 
L 362.310296 367.652032 
L 363.884344 371.011232 
L 365.458392 369.845135 
L 367.03244 365.621536 
L 368.606488 366.617979 
L 370.180536 366.617979 
L 371.754584 373.503783 
L 373.328632 371.011232 
L 374.90268 372.229173 
L 376.476728 376.245985 
L 378.050776 386.643681 
L 379.624824 391.220822 
L 381.198872 396.71903 
L 382.77292 403.604834 
L 384.346968 418.937835 
L 389.069111 418.937835 
L 390.643159 403.604834 
L 395.365303 403.604834 
L 396.939351 407.828433 
L 398.513399 403.604834 
L 400.087447 407.828433 
L 400.894517 433 
L 400.894517 433 
" style="fill:none;stroke:#988ed5;stroke-linecap:square;stroke-opacity:0.4;stroke-width:2;"/>
   </g>
   <g id="line2d_65">
    <defs>
     <path d="M 0 3 
C 0.795609 3 1.55874 2.683901 2.12132 2.12132 
C 2.683901 1.55874 3 0.795609 3 0 
C 3 -0.795609 2.683901 -1.55874 2.12132 -2.12132 
C 1.55874 -2.683901 0.795609 -3 0 -3 
C -0.795609 -3 -1.55874 -2.683901 -2.12132 -2.12132 
C -2.683901 -1.55874 -3 -0.795609 -3 0 
C -3 0.795609 -2.683901 1.55874 -2.12132 2.12132 
C -1.55874 2.683901 -0.795609 3 0 3 
z
" id="m4f219885b0" style="stroke:#988ed5;stroke-opacity:0.4;"/>
    </defs>
    <g clip-path="url(#peded85678d)"/>
   </g>
   <g id="line2d_66">
    <path clip-path="url(#peded85678d)" d="M 68.898367 433 
L 69.537377 429.800079 
L 71.111425 423.686134 
L 72.685472 423.686134 
L 74.25952 429.800079 
L 74.89853 433 
M 78.716452 433 
L 78.981664 429.800079 
L 80.555712 429.800079 
L 82.12976 423.686134 
L 83.703808 407.581275 
L 85.277856 402.083067 
L 86.851904 402.083067 
L 88.425952 397.505925 
L 90 393.585083 
L 91.574048 381.873477 
L 93.148096 381.873477 
L 94.722144 375.522308 
L 96.296192 366.034631 
L 97.87024 357.985824 
L 99.444288 355.148896 
L 101.018336 350.606328 
L 102.592384 349.124932 
L 104.166432 342.724082 
L 105.74048 337.53901 
L 107.314528 337.303823 
L 108.888575 338.994175 
L 110.462623 334.628611 
L 112.036671 332.780777 
L 113.610719 332.780777 
L 115.184767 333.586693 
L 116.758815 335.056732 
L 118.332863 332.386538 
L 119.906911 330.314136 
L 123.055007 334.841835 
L 124.629055 333.382981 
L 126.203103 332.780777 
L 127.777151 332.386538 
L 129.351199 332.386538 
L 130.925247 328.387523 
L 132.499295 325.961235 
L 134.073343 326.272592 
L 135.647391 325.197978 
L 137.221439 323.307631 
L 138.795487 322.889315 
L 140.369535 324.019338 
L 141.943583 329.246502 
L 143.51763 332.386538 
L 145.091678 331.805615 
L 146.665726 333.180772 
L 148.239774 336.610136 
L 149.813822 339.244397 
L 151.38787 338.746217 
L 152.961918 335.491648 
L 154.535966 336.382756 
L 156.110014 336.157248 
L 157.684062 338.256933 
L 159.25811 335.93358 
L 160.832158 334.841835 
L 162.406206 334.841835 
L 163.980254 334.207077 
L 165.554302 334.417034 
L 167.12835 335.491648 
L 168.702398 335.491648 
L 170.276446 339.244397 
L 171.850494 341.332963 
L 173.424542 344.798522 
L 174.99859 349.48784 
L 176.572638 348.413225 
L 178.146685 350.989539 
L 179.720733 350.989539 
L 181.294781 349.124932 
L 182.868829 352.990367 
L 184.442877 352.990367 
L 186.016925 351.772426 
L 187.590973 352.172421 
L 189.165021 352.172421 
L 190.739069 352.578341 
L 192.313117 352.172421 
L 193.887165 345.421257 
L 195.461213 348.064187 
L 197.035261 345.738014 
L 198.609309 343.890179 
L 200.183357 343.593969 
L 203.331453 344.189627 
L 204.905501 344.189627 
L 206.479549 342.159131 
L 208.053597 346.058475 
L 209.627645 346.382729 
L 211.201693 344.492383 
L 212.77574 344.492383 
L 214.349788 344.798522 
L 215.923836 347.719539 
L 217.497884 341.332963 
L 219.071932 338.500483 
L 220.64598 339.244397 
L 222.220028 339.244397 
L 223.794076 340.795707 
L 225.368124 340.795707 
L 226.942172 338.994175 
L 228.51622 342.724082 
L 230.090268 343.010987 
L 231.664316 344.798522 
L 233.238364 347.042982 
L 236.38646 345.10812 
L 237.960508 347.379172 
L 239.534556 347.719539 
L 241.108604 348.413225 
L 242.682652 348.766768 
L 244.2567 348.064187 
L 245.830748 348.766768 
L 247.404795 353.408683 
L 248.978843 353.408683 
L 250.552891 356.062286 
L 252.126939 357.985824 
L 253.700987 357.492132 
L 255.275035 358.488575 
L 256.849083 357.985824 
L 258.423131 355.601785 
L 259.997179 359.522628 
L 261.571227 358.488575 
L 263.145275 360.597242 
L 264.719323 360.597242 
L 266.293371 359.000723 
L 267.867419 360.054667 
L 269.441467 361.715731 
L 271.015515 361.715731 
L 272.589563 362.881828 
L 274.163611 364.729662 
L 275.737659 362.881828 
L 277.311707 362.292576 
L 278.885755 361.150779 
L 280.459803 362.881828 
L 282.03385 359.522628 
L 283.607898 356.530659 
L 285.181946 355.148896 
L 286.755994 357.007178 
L 288.330042 355.601785 
L 289.90409 357.492132 
L 291.478138 357.492132 
L 293.052186 354.703372 
L 294.626234 353.408683 
L 296.200282 350.989539 
L 297.77433 348.064187 
L 299.348378 349.124932 
L 300.922426 348.766768 
L 302.496474 346.710867 
L 304.070522 349.855619 
L 305.64457 351.378187 
L 307.218618 350.989539 
L 308.792666 351.772426 
L 310.366714 351.378187 
L 311.940762 349.124932 
L 313.51481 349.48784 
L 315.088858 346.710867 
L 316.662906 347.379172 
L 318.236953 347.719539 
L 319.811001 347.042982 
L 321.385049 348.413225 
L 322.959097 349.48784 
L 324.533145 347.379172 
L 326.107193 347.379172 
L 327.681241 346.058475 
L 329.255289 347.719539 
L 330.829337 347.379172 
L 332.403385 348.413225 
L 333.977433 348.064187 
L 335.551481 347.379172 
L 337.125529 346.382729 
L 338.699577 347.042982 
L 340.273625 347.042982 
L 341.847673 347.379172 
L 343.421721 345.421257 
L 344.995769 346.058475 
L 346.569817 348.413225 
L 348.143865 351.772426 
L 349.717913 352.578341 
L 351.291961 351.772426 
L 352.866008 351.772426 
L 354.440056 352.172421 
L 357.588152 344.189627 
L 359.1622 344.492383 
L 360.736248 343.300927 
L 362.310296 341.332963 
L 363.884344 341.605594 
L 365.458392 340.268784 
L 367.03244 343.010987 
L 368.606488 344.798522 
L 370.180536 339.751804 
L 371.754584 337.53901 
L 373.328632 336.157248 
L 374.90268 331.997891 
L 376.476728 332.582948 
L 378.050776 330.679464 
L 379.624824 327.554658 
L 381.198872 327.228474 
L 382.77292 326.429608 
L 384.346968 325.806873 
L 385.921016 325.500734 
L 387.495063 322.889315 
L 389.069111 321.017426 
L 390.643159 318.312174 
L 392.217207 313.492918 
L 393.791255 309.395875 
L 395.365303 307.359339 
L 396.939351 305.906882 
L 400.087447 305.027689 
L 401.661495 304.740784 
L 403.235543 301.961232 
L 404.809591 300.948677 
L 406.383639 296.381096 
L 407.957687 294.797479 
L 409.531735 293.966398 
L 411.105783 293.678991 
L 412.679831 291.61448 
L 414.253879 291.002671 
L 415.827927 287.862085 
L 417.401975 287.064548 
L 418.976023 283.721188 
L 420.550071 282.490286 
L 422.124118 282.363877 
L 423.698166 281.586764 
L 425.272214 278.571555 
L 426.846262 275.168042 
L 428.42031 274.004975 
L 429.994358 271.752944 
L 431.568406 270.395756 
L 433.142454 269.454662 
L 434.716502 267.645794 
L 436.29055 265.197341 
L 437.864598 264.090988 
L 439.438646 260.416161 
L 441.012694 259.456641 
L 445.734838 256.019239 
L 447.308886 255.340624 
L 448.882934 256.444417 
L 450.456982 256.764591 
L 452.03103 254.427041 
L 453.605078 253.67541 
L 455.179126 254.009415 
L 456.753173 253.708628 
L 458.327221 251.855977 
L 459.901269 248.342683 
L 461.475317 246.519216 
L 464.623413 246.054454 
L 466.197461 245.945744 
L 467.771509 244.459516 
L 469.345557 243.903924 
L 472.493653 244.721635 
L 474.067701 244.52283 
L 477.215797 245.180378 
L 478.789845 245.929058 
L 480.363893 246.476638 
L 481.937941 246.138372 
L 483.511989 246.544795 
L 485.086037 247.38498 
L 486.660085 247.873075 
L 489.808181 248.479657 
L 491.382228 248.857582 
L 492.956276 250.286433 
L 494.530324 250.159608 
L 496.104372 250.159608 
L 497.67842 250.551731 
L 499.252468 250.512265 
L 500.826516 251.130468 
L 502.400564 250.759865 
L 503.974612 251.150644 
L 505.54866 252.368126 
L 507.122708 252.569319 
L 508.696756 253.051805 
L 510.270804 253.2581 
L 511.844852 253.697551 
L 513.4189 255.211576 
L 514.992948 254.449798 
L 516.566996 256.653337 
L 518.141044 262.305497 
L 519.715092 263.641548 
L 521.28914 264.416591 
L 522.863188 264.449365 
L 524.437236 262.96538 
L 526.011283 262.381416 
L 527.585331 260.02273 
L 529.159379 259.566183 
L 530.733427 259.511357 
L 532.307475 259.333927 
L 533.881523 258.87524 
L 535.455571 259.036254 
L 537.029619 264.188263 
L 538.603667 265.332479 
L 540.177715 260.176619 
L 541.751763 258.582483 
L 543.325811 258.14913 
L 544.899859 258.305921 
L 546.473907 259.26599 
L 548.047955 256.727456 
L 549.622003 256.055425 
L 551.196051 256.888737 
L 552.770099 257.340382 
L 554.344147 257.63288 
L 557.492243 258.622221 
L 559.066291 258.123085 
L 560.640339 258.662016 
L 566.93653 259.98091 
L 568.510578 260.743617 
L 570.084626 261.191254 
L 574.80677 261.191254 
L 574.80677 261.191254 
" style="fill:none;stroke:#777777;stroke-linecap:square;stroke-opacity:0.4;stroke-width:2;"/>
   </g>
   <g id="line2d_67">
    <defs>
     <path d="M 0 3 
C 0.795609 3 1.55874 2.683901 2.12132 2.12132 
C 2.683901 1.55874 3 0.795609 3 0 
C 3 -0.795609 2.683901 -1.55874 2.12132 -2.12132 
C 1.55874 -2.683901 0.795609 -3 0 -3 
C -0.795609 -3 -1.55874 -2.683901 -2.12132 -2.12132 
C -2.683901 -1.55874 -3 -0.795609 -3 0 
C -3 0.795609 -2.683901 1.55874 -2.12132 2.12132 
C -1.55874 2.683901 -0.795609 3 0 3 
z
" id="mf3dbe479d1" style="stroke:#777777;stroke-opacity:0.4;"/>
    </defs>
    <g clip-path="url(#peded85678d)">
     <use style="fill:#777777;fill-opacity:0.4;stroke:#777777;stroke-opacity:0.4;" x="574.80677" xlink:href="#mf3dbe479d1" y="261.191254"/>
    </g>
   </g>
   <g id="line2d_68">
    <path clip-path="url(#peded85678d)" d="M 67.963248 433 
L 67.963329 429.76435 
L 71.111425 391.781052 
L 72.685472 391.781052 
L 74.25952 385.667107 
L 77.407616 359.486898 
L 78.981664 361.680001 
L 80.555712 364.06404 
L 82.12976 361.680001 
L 83.703808 355.566056 
L 85.277856 350.570599 
L 86.851904 350.570599 
L 88.425952 353.797755 
L 90 347.683809 
L 91.574048 343.85445 
L 93.148096 342.688352 
L 96.296192 345.072391 
L 97.87024 346.347 
L 99.444288 345.072391 
L 102.592384 345.072391 
L 104.166432 347.683809 
L 107.314528 345.072391 
L 108.888575 341.569864 
L 110.462623 342.688352 
L 112.036671 342.688352 
L 113.610719 340.49525 
L 115.184767 337.503281 
L 116.758815 336.574407 
L 118.332863 336.574407 
L 119.906911 339.461196 
L 121.480959 338.464754 
L 124.629055 338.464754 
L 126.203103 339.461196 
L 129.351199 337.503281 
L 130.925247 334.806106 
L 132.499295 334.806106 
L 134.073343 332.350808 
L 135.647391 333.145042 
L 137.221439 332.350808 
L 138.795487 332.350808 
L 140.369535 333.145042 
L 141.943583 333.145042 
L 143.51763 331.57895 
L 145.091678 333.962988 
L 146.665726 333.962988 
L 148.239774 333.145042 
L 152.961918 333.145042 
L 154.535966 333.962988 
L 156.110014 333.962988 
L 157.684062 332.350808 
L 159.25811 333.145042 
L 160.832158 333.145042 
L 163.980254 331.57895 
L 165.554302 331.57895 
L 168.702398 333.145042 
L 170.276446 333.145042 
L 171.850494 332.350808 
L 173.424542 333.145042 
L 174.99859 333.145042 
L 176.572638 331.57895 
L 178.146685 329.385847 
L 179.720733 328.692161 
L 181.294781 328.692161 
L 182.868829 329.385847 
L 184.442877 328.692161 
L 186.016925 329.385847 
L 187.590973 331.57895 
L 190.739069 331.57895 
L 192.313117 330.097554 
L 195.461213 328.692161 
L 197.035261 330.097554 
L 198.609309 329.385847 
L 200.183357 329.385847 
L 201.757405 330.097554 
L 203.331453 331.57895 
L 204.905501 331.57895 
L 206.479549 333.145042 
L 208.053597 330.828241 
L 211.201693 332.350808 
L 212.77574 331.57895 
L 214.349788 330.097554 
L 215.923836 329.385847 
L 217.497884 328.015604 
L 219.071932 328.692161 
L 222.220028 326.080742 
L 223.794076 325.465005 
L 225.368124 326.080742 
L 226.942172 327.355351 
L 228.51622 328.015604 
L 230.090268 328.015604 
L 231.664316 329.385847 
L 236.38646 331.57895 
L 237.960508 330.828241 
L 241.108604 332.350808 
L 242.682652 332.350808 
L 244.2567 333.962988 
L 245.830748 333.962988 
L 247.404795 333.145042 
L 248.978843 333.962988 
L 250.552891 332.350808 
L 253.700987 332.350808 
L 255.275035 331.57895 
L 258.423131 333.145042 
L 259.997179 332.350808 
L 261.571227 333.962988 
L 264.719323 333.962988 
L 267.867419 337.503281 
L 269.441467 339.461196 
L 271.015515 342.688352 
L 272.589563 345.072391 
L 274.163611 347.683809 
L 275.737659 350.570599 
L 278.885755 350.570599 
L 282.03385 347.683809 
L 283.607898 350.570599 
L 285.181946 343.85445 
L 288.330042 341.569864 
L 289.90409 339.461196 
L 293.052186 337.503281 
L 294.626234 333.145042 
L 296.200282 334.806106 
L 297.77433 333.962988 
L 299.348378 332.350808 
L 304.070522 332.350808 
L 305.64457 333.145042 
L 307.218618 333.145042 
L 308.792666 332.350808 
L 310.366714 333.145042 
L 316.662906 333.145042 
L 318.236953 332.350808 
L 322.959097 332.350808 
L 326.107193 330.828241 
L 327.681241 329.385847 
L 329.255289 329.385847 
L 330.829337 328.692161 
L 332.403385 328.692161 
L 333.977433 328.015604 
L 335.551481 329.385847 
L 337.125529 332.350808 
L 338.699577 334.806106 
L 340.273625 336.574407 
L 341.847673 337.503281 
L 343.421721 336.574407 
L 344.995769 337.503281 
L 346.569817 335.675994 
L 348.143865 333.145042 
L 349.717913 330.828241 
L 351.291961 330.097554 
L 352.866008 330.828241 
L 359.1622 330.828241 
L 360.736248 330.097554 
L 362.310296 333.962988 
L 363.884344 328.692161 
L 365.458392 328.692161 
L 367.03244 328.015604 
L 370.180536 328.015604 
L 371.754584 333.145042 
L 373.328632 325.465005 
L 374.90268 329.385847 
L 379.624824 331.57895 
L 381.198872 331.57895 
L 382.77292 328.692161 
L 384.346968 333.962988 
L 389.069111 336.574407 
L 390.643159 337.503281 
L 392.217207 342.688352 
L 393.791255 338.464754 
L 401.661495 338.464754 
L 403.235543 334.806106 
L 404.809591 339.461196 
L 406.383639 338.464754 
L 407.957687 338.464754 
L 412.679831 341.569864 
L 414.253879 342.688352 
L 415.827927 342.688352 
L 417.401975 345.072391 
L 418.976023 345.072391 
L 420.550071 342.688352 
L 422.124118 339.461196 
L 423.698166 337.503281 
L 425.272214 334.806106 
L 426.846262 332.350808 
L 428.42031 329.385847 
L 429.994358 327.355351 
L 431.568406 326.080742 
L 433.142454 325.465005 
L 434.716502 324.273549 
L 436.29055 323.696704 
L 437.864598 322.578215 
L 439.438646 322.578215 
L 442.586742 321.503601 
L 444.16079 321.503601 
L 445.734838 320.469548 
L 447.308886 319.966797 
L 448.882934 320.469548 
L 450.456982 319.966797 
L 452.03103 320.469548 
L 453.605078 320.469548 
L 455.179126 319.966797 
L 456.753173 320.981696 
L 463.049365 318.988151 
L 464.623413 319.473105 
L 466.197461 319.473105 
L 467.771509 318.988151 
L 469.345557 319.473105 
L 472.493653 319.473105 
L 475.641749 317.582758 
L 477.215797 317.129869 
L 478.789845 317.129869 
L 480.363893 316.684345 
L 481.937941 316.684345 
L 488.234133 318.511632 
L 489.808181 318.043259 
L 491.382228 318.043259 
L 494.530324 317.129869 
L 496.104372 317.129869 
L 499.252468 315.389656 
L 500.826516 314.97134 
L 505.54866 314.97134 
L 507.122708 314.559314 
L 508.696756 314.559314 
L 511.844852 315.389656 
L 514.992948 315.389656 
L 516.566996 314.97134 
L 519.715092 315.814457 
L 521.28914 315.814457 
L 524.437236 314.97134 
L 526.011283 314.97134 
L 527.585331 315.389656 
L 529.159379 315.389656 
L 530.733427 314.97134 
L 532.307475 314.97134 
L 535.455571 315.814457 
L 537.029619 314.97134 
L 538.603667 314.559314 
L 541.751763 314.559314 
L 544.899859 313.753399 
L 549.622003 313.753399 
L 549.622003 313.753399 
" style="fill:none;stroke:#fbc15e;stroke-linecap:square;stroke-opacity:0.4;stroke-width:2;"/>
   </g>
   <g id="line2d_69">
    <defs>
     <path d="M 0 3 
C 0.795609 3 1.55874 2.683901 2.12132 2.12132 
C 2.683901 1.55874 3 0.795609 3 0 
C 3 -0.795609 2.683901 -1.55874 2.12132 -2.12132 
C 1.55874 -2.683901 0.795609 -3 0 -3 
C -0.795609 -3 -1.55874 -2.683901 -2.12132 -2.12132 
C -2.683901 -1.55874 -3 -0.795609 -3 0 
C -3 0.795609 -2.683901 1.55874 -2.12132 2.12132 
C -1.55874 2.683901 -0.795609 3 0 3 
z
" id="mef773db32d" style="stroke:#fbc15e;stroke-opacity:0.4;"/>
    </defs>
    <g clip-path="url(#peded85678d)">
     <use style="fill:#fbc15e;fill-opacity:0.4;stroke:#fbc15e;stroke-opacity:0.4;" x="549.622003" xlink:href="#mef773db32d" y="313.753399"/>
    </g>
   </g>
   <g id="line2d_70">
    <path clip-path="url(#peded85678d)" d="M 72.685331 433 
L 72.685472 427.357339 
L 75.833568 427.357339 
L 77.407616 408.36569 
L 78.981664 408.36569 
L 80.555712 397.256287 
L 82.12976 389.374041 
L 83.703808 397.256287 
L 85.277856 364.268447 
L 86.851904 359.27299 
L 90 359.27299 
L 91.574048 340.281341 
L 93.148096 340.281341 
L 94.722144 328.42123 
L 96.296192 324.303624 
L 97.87024 314.277333 
L 99.444288 305.956691 
L 101.018336 299.583036 
L 102.592384 302.584948 
L 104.166432 295.06561 
L 105.74048 290.070153 
L 107.314528 285.535197 
L 110.462623 281.915276 
L 112.036671 277.306851 
L 113.610719 270.091848 
L 115.184767 268.05506 
L 116.758815 267.249144 
L 118.332863 266.083047 
L 119.906911 263.059603 
L 121.480959 262.187586 
L 123.055007 262.788322 
L 124.629055 264.030814 
L 126.203103 262.720919 
L 127.777151 262.386371 
L 129.351199 262.452955 
L 130.925247 265.332338 
L 132.499295 263.81978 
L 134.073343 265.111078 
L 135.647391 266.621056 
L 137.221439 267.328678 
L 138.795487 268.219127 
L 140.369535 268.885401 
L 141.943583 268.301531 
L 143.51763 272.292294 
L 145.091678 271.913061 
L 146.665726 270.715596 
L 148.239774 273.965293 
L 149.813822 274.169005 
L 151.38787 274.78939 
L 152.961918 278.239678 
L 154.535966 279.952683 
L 156.110014 277.65295 
L 159.25811 281.245336 
L 160.832158 283.88324 
L 162.406206 287.458734 
L 163.980254 287.792874 
L 165.554302 289.707245 
L 167.12835 296.413381 
L 168.702398 302.298043 
L 170.276446 304.372483 
L 171.850494 309.802364 
L 173.424542 311.346387 
L 174.99859 311.746382 
L 176.572638 310.563501 
L 178.146685 314.722858 
L 179.720733 310.18029 
L 181.294781 312.982644 
L 182.868829 314.277333 
L 186.016925 320.724741 
L 187.590973 321.289692 
L 189.165021 325.608592 
L 190.739069 340.281341 
L 192.313117 342.665379 
L 193.887165 338.088238 
L 195.461213 339.162853 
L 197.035261 338.088238 
L 198.609309 339.162853 
L 200.183357 337.054185 
L 201.757405 340.281341 
L 203.331453 339.162853 
L 204.905501 343.939989 
L 206.479549 351.390743 
L 208.053597 355.049391 
L 209.627645 355.049391 
L 211.201693 374.04104 
L 212.77574 383.260096 
L 214.349788 389.374041 
L 215.923836 408.36569 
L 219.071932 408.36569 
L 220.64598 427.357339 
L 222.220028 397.256287 
L 223.794076 355.049391 
L 226.942172 351.390743 
L 228.51622 349.72968 
L 231.664316 349.72968 
L 233.238364 351.390743 
L 234.812412 345.276798 
L 236.38646 345.276798 
L 239.534556 348.163587 
L 242.682652 348.163587 
L 244.2567 349.72968 
L 245.830748 408.36569 
L 248.978843 408.36569 
L 250.552891 378.264639 
L 255.275035 378.264639 
L 256.849083 374.04104 
L 259.997179 374.04104 
L 261.571227 397.256287 
L 267.867419 397.256287 
L 269.441467 427.357339 
L 272.589563 427.357339 
L 274.163611 397.256287 
L 277.311707 397.256287 
L 278.885755 408.36569 
L 280.459803 408.36569 
L 282.03385 397.256287 
L 283.607898 397.256287 
L 285.181946 427.357339 
L 286.755994 427.357339 
L 288.330042 397.256287 
L 289.90409 389.374041 
L 291.478138 389.374041 
L 293.052186 378.264639 
L 294.626234 370.382392 
L 297.77433 370.382392 
L 299.348378 374.04104 
L 300.922426 378.264639 
L 302.496474 374.04104 
L 304.070522 383.260096 
L 305.64457 389.374041 
L 308.792666 389.374041 
L 310.366714 397.256287 
L 311.940762 397.256287 
L 313.51481 383.260096 
L 319.811001 383.260096 
L 321.385049 378.264639 
L 322.959097 367.155236 
L 324.533145 374.04104 
L 326.107193 378.264639 
L 327.681241 383.260096 
L 330.829337 383.260096 
L 332.403385 389.374041 
L 333.977433 408.36569 
L 335.551481 383.260096 
L 337.125529 374.04104 
L 338.699577 367.155236 
L 340.273625 367.155236 
L 341.847673 364.268447 
L 344.995769 364.268447 
L 348.143865 383.260096 
L 349.717913 389.374041 
L 351.291961 383.260096 
L 352.866008 389.374041 
L 354.440056 383.260096 
L 356.014104 367.155236 
L 357.588152 370.382392 
L 359.1622 364.268447 
L 360.736248 367.155236 
L 362.310296 370.382392 
L 365.458392 370.382392 
L 367.03244 374.04104 
L 368.606488 370.382392 
L 370.180536 374.04104 
L 373.328632 374.04104 
L 374.90268 370.382392 
L 376.476728 361.657028 
L 378.050776 364.268447 
L 379.624824 345.276798 
L 381.198872 342.665379 
L 382.77292 339.162853 
L 384.346968 339.162853 
L 385.921016 340.281341 
L 389.069111 338.088238 
L 390.643159 343.939989 
L 392.217207 346.682191 
L 396.939351 346.682191 
L 398.513399 353.159044 
L 400.087447 353.159044 
L 403.235543 357.079887 
L 404.809591 361.657028 
L 407.957687 357.079887 
L 409.531735 357.079887 
L 411.105783 359.27299 
L 412.679831 370.382392 
L 414.253879 357.079887 
L 415.827927 357.079887 
L 417.401975 359.27299 
L 418.976023 361.657028 
L 420.550071 348.163587 
L 423.698166 337.054185 
L 425.272214 336.057742 
L 426.846262 330.738031 
L 428.42031 330.738031 
L 429.994358 329.943797 
L 431.568406 324.94834 
L 433.142454 324.94834 
L 433.145153 433 
M 444.160174 433 
L 444.16079 408.36569 
L 445.734838 296.413381 
L 447.308886 289.349081 
L 448.882934 280.851097 
L 450.456982 280.079239 
L 452.03103 276.852083 
L 453.605078 271.725394 
L 455.179126 268.969836 
L 456.753173 263.402526 
L 458.327221 261.342467 
L 459.901269 261.024239 
L 461.475317 259.847597 
L 463.049365 260.213738 
L 464.623413 257.192129 
L 466.197461 254.872354 
L 467.771509 254.075231 
L 469.345557 252.640392 
L 470.919605 251.859475 
L 474.067701 252.224194 
L 475.641749 250.576633 
L 477.215797 249.851632 
L 478.789845 249.809577 
L 481.937941 248.778636 
L 483.511989 248.65749 
L 485.086037 248.376882 
L 486.660085 248.416793 
L 488.234133 250.147842 
L 489.808181 250.837165 
L 491.382228 250.750046 
L 492.956276 253.06301 
L 494.530324 252.547356 
L 496.104372 252.362226 
L 497.67842 252.408391 
L 499.252468 250.663202 
L 502.400564 248.981745 
L 503.974612 247.015395 
L 505.54866 247.746082 
L 507.122708 247.902426 
L 508.696756 248.65749 
L 510.270804 249.767586 
L 511.844852 249.268649 
L 513.4189 250.19042 
L 514.992948 250.53345 
L 516.566996 249.809577 
L 518.141044 250.490336 
L 519.715092 249.516982 
L 521.28914 248.941002 
L 524.437236 249.351177 
L 526.011283 250.619883 
L 527.585331 250.924563 
L 529.159379 250.447289 
L 530.733427 250.880829 
L 532.307475 249.55859 
L 533.881523 249.893752 
L 535.455571 251.589086 
L 537.029619 252.178338 
L 538.603667 252.500956 
L 540.177715 252.640392 
L 541.751763 252.96853 
L 543.325811 253.540359 
L 544.899859 253.733652 
L 546.473907 254.620753 
L 548.047955 254.721116 
L 549.622003 255.177357 
L 551.196051 255.126286 
L 552.770099 254.173612 
L 554.344147 255.745503 
L 555.918195 256.272426 
L 557.492243 255.331141 
L 559.066291 255.693364 
L 562.214386 256.007698 
L 563.788434 260.213738 
L 565.362482 259.847597 
L 566.93653 262.386371 
L 568.510578 262.653682 
L 570.084626 262.121643 
L 571.658674 261.729286 
L 573.232722 262.187586 
L 574.80677 261.342467 
L 576.380818 263.960289 
L 577.954866 262.991531 
L 579.528914 264.243486 
L 581.102962 264.030814 
L 582.67701 264.964559 
L 584.251058 264.386191 
L 585.825106 266.543548 
L 588.973202 267.973393 
L 592.121298 267.891969 
L 595.269394 267.891969 
L 595.269394 267.891969 
" style="fill:none;stroke:#8eba42;stroke-linecap:square;stroke-opacity:0.4;stroke-width:2;"/>
   </g>
   <g id="line2d_71">
    <defs>
     <path d="M 0 3 
C 0.795609 3 1.55874 2.683901 2.12132 2.12132 
C 2.683901 1.55874 3 0.795609 3 0 
C 3 -0.795609 2.683901 -1.55874 2.12132 -2.12132 
C 1.55874 -2.683901 0.795609 -3 0 -3 
C -0.795609 -3 -1.55874 -2.683901 -2.12132 -2.12132 
C -2.683901 -1.55874 -3 -0.795609 -3 0 
C -3 0.795609 -2.683901 1.55874 -2.12132 2.12132 
C -1.55874 2.683901 -0.795609 3 0 3 
z
" id="me5dc510ffc" style="stroke:#8eba42;stroke-opacity:0.4;"/>
    </defs>
    <g clip-path="url(#peded85678d)">
     <use style="fill:#8eba42;fill-opacity:0.4;stroke:#8eba42;stroke-opacity:0.4;" x="595.269394" xlink:href="#me5dc510ffc" y="267.891969"/>
    </g>
   </g>
   <g id="line2d_72">
    <path clip-path="url(#peded85678d)" d="M 93.145576 433 
L 93.148096 432.984955 
L 94.722144 428.137202 
L 96.296192 425.324565 
L 97.87024 420.440714 
L 99.444288 408.777774 
L 101.018336 399.558718 
L 102.592384 388.189606 
L 104.166432 379.168201 
L 105.74048 369.370823 
L 107.314528 362.369655 
L 108.888575 356.471452 
L 113.610719 334.264683 
L 116.758815 320.278123 
L 118.332863 313.456622 
L 119.906911 308.502505 
L 121.480959 304.083494 
L 123.055007 298.007985 
L 126.203103 287.407587 
L 127.777151 283.79851 
L 130.925247 277.362062 
L 132.499295 274.339518 
L 134.073343 270.599246 
L 135.647391 268.595033 
L 138.795487 265.449805 
L 140.369535 264.330145 
L 143.51763 263.508062 
L 145.091678 263.747517 
L 146.665726 262.924658 
L 148.239774 263.006734 
L 151.38787 263.522625 
L 152.961918 263.308597 
L 154.535966 262.889049 
L 156.110014 262.720536 
L 157.684062 263.022821 
L 159.25811 262.498623 
L 160.832158 262.377856 
L 162.406206 262.848156 
L 163.980254 263.913249 
L 165.554302 265.29979 
L 167.12835 265.916763 
L 168.702398 265.736525 
L 170.276446 265.841355 
L 171.850494 266.385753 
L 173.424542 266.387775 
L 174.99859 266.860854 
L 176.572638 267.150335 
L 178.146685 267.01969 
L 179.720733 267.373662 
L 181.294781 268.407232 
L 184.442877 269.094781 
L 186.016925 269.560653 
L 187.590973 270.306129 
L 190.739069 273.456713 
L 192.313117 273.820215 
L 193.887165 274.030497 
L 195.461213 274.734189 
L 197.035261 275.142974 
L 198.609309 274.657532 
L 200.183357 274.97928 
L 201.757405 275.614514 
L 203.331453 277.289736 
L 204.905501 278.599623 
L 208.053597 279.498142 
L 209.627645 281.588678 
L 211.201693 284.710412 
L 214.349788 284.928291 
L 215.923836 285.240285 
L 217.497884 286.044459 
L 219.071932 285.690492 
L 220.64598 284.797356 
L 222.220028 283.344307 
L 223.794076 285.312791 
L 225.368124 285.920462 
L 228.51622 288.180316 
L 230.090268 289.295446 
L 231.664316 290.604282 
L 234.812412 291.702392 
L 236.38646 292.555856 
L 237.960508 292.926121 
L 239.534556 292.561111 
L 242.682652 293.934992 
L 244.2567 294.493153 
L 247.404795 296.335611 
L 250.552891 298.356366 
L 252.126939 298.460447 
L 253.700987 298.447415 
L 256.849083 298.213898 
L 258.423131 299.180216 
L 259.997179 299.401909 
L 261.571227 300.064136 
L 264.719323 300.098709 
L 266.293371 301.584334 
L 267.867419 302.026147 
L 269.441467 300.643775 
L 271.015515 300.411846 
L 272.589563 301.959419 
L 274.163611 301.870701 
L 275.737659 302.078159 
L 277.311707 298.149384 
L 278.885755 297.137296 
L 280.459803 295.49816 
L 282.03385 294.628821 
L 283.607898 292.356931 
L 285.181946 291.529782 
L 286.755994 291.207791 
L 288.330042 292.603182 
L 289.90409 292.025131 
L 291.478138 292.247616 
L 293.052186 291.702392 
L 294.626234 290.904375 
L 296.200282 290.879653 
L 297.77433 290.307441 
L 299.348378 289.379535 
L 300.922426 288.23411 
L 302.496474 287.634931 
L 304.070522 286.626418 
L 305.64457 286.584135 
L 307.218618 286.369503 
L 308.792666 284.009229 
L 310.366714 283.108831 
L 311.940762 282.359933 
L 315.088858 281.51484 
L 316.662906 280.766694 
L 318.236953 281.13475 
L 319.811001 283.172173 
L 324.533145 283.273077 
L 327.681241 283.449616 
L 329.255289 282.9937 
L 330.829337 283.03821 
L 332.403385 284.248727 
L 333.977433 283.806144 
L 335.551481 284.451223 
L 337.125529 284.066981 
L 338.699577 284.256488 
L 340.273625 284.097831 
L 341.847673 284.466862 
L 343.421721 283.453385 
L 344.995769 284.190592 
L 346.569817 284.097831 
L 348.143865 285.039881 
L 349.717913 285.280542 
L 351.291961 285.764201 
L 352.866008 285.784711 
L 356.014104 286.529265 
L 357.588152 286.457677 
L 359.1622 287.001346 
L 360.736248 287.311968 
L 362.310296 287.377127 
L 363.884344 287.005636 
L 367.03244 288.536418 
L 368.606488 288.727639 
L 370.180536 288.74592 
L 371.754584 289.318778 
L 373.328632 289.459191 
L 374.90268 290.672866 
L 376.476728 293.764246 
L 378.050776 293.156075 
L 379.624824 293.929468 
L 381.198872 292.655863 
L 382.77292 292.947431 
L 384.346968 293.038183 
L 385.921016 292.362148 
L 387.495063 288.333008 
L 389.069111 289.128037 
L 390.643159 289.370179 
L 392.217207 290.702312 
L 393.791255 290.731789 
L 395.365303 291.459023 
L 396.939351 291.39348 
L 398.513399 292.788009 
L 400.087447 292.273604 
L 401.661495 291.963363 
L 403.235543 291.911996 
L 406.383639 291.489326 
L 407.957687 291.958222 
L 411.105783 293.39881 
L 412.679831 293.786218 
L 414.253879 293.791714 
L 415.827927 294.240573 
L 417.401975 293.874283 
L 418.976023 293.18294 
L 420.550071 294.145756 
L 422.124118 294.324508 
L 423.698166 293.687482 
L 425.272214 293.540043 
L 426.846262 293.753267 
L 428.42031 293.355499 
L 429.994358 293.957102 
L 433.142454 293.139969 
L 434.716502 293.896344 
L 436.29055 294.173609 
L 437.864598 293.523709 
L 439.438646 293.42049 
L 442.586742 292.128387 
L 444.16079 291.19279 
L 447.308886 290.751458 
L 448.882934 289.846698 
L 450.456982 290.114523 
L 453.605078 289.76591 
L 455.179126 290.506603 
L 458.327221 289.652259 
L 459.901269 289.894332 
L 463.049365 289.459191 
L 464.623413 286.779178 
L 466.197461 286.424053 
L 469.345557 285.075845 
L 470.919605 284.596224 
L 472.493653 284.345894 
L 474.067701 283.737513 
L 475.641749 284.470773 
L 477.215797 283.216973 
L 478.789845 283.079073 
L 480.363893 283.127446 
L 481.937941 282.204655 
L 483.511989 281.652126 
L 485.086037 281.49378 
L 486.660085 280.433879 
L 488.234133 278.93632 
L 489.808181 276.497738 
L 491.382228 274.499423 
L 496.104372 272.76427 
L 499.252468 270.712642 
L 500.826516 272.525484 
L 502.400564 273.706432 
L 503.974612 274.371966 
L 505.54866 274.483119 
L 507.122708 273.830823 
L 510.270804 271.417621 
L 511.844852 267.751384 
L 513.4189 265.342567 
L 514.992948 263.517163 
L 518.141044 262.553054 
L 519.715092 262.572394 
L 521.28914 262.099848 
L 522.863188 262.035958 
L 524.437236 260.856138 
L 526.011283 260.701285 
L 527.585331 260.287175 
L 529.159379 260.238676 
L 530.733427 259.423913 
L 532.307475 258.473201 
L 533.881523 257.78527 
L 535.455571 258.556622 
L 540.177715 257.651202 
L 541.751763 257.197904 
L 543.325811 257.661492 
L 544.899859 258.374939 
L 546.473907 260.937208 
L 548.047955 262.370871 
L 549.622003 262.865928 
L 551.196051 262.770096 
L 552.770099 262.261097 
L 554.344147 261.582674 
L 555.918195 260.671731 
L 557.492243 259.309694 
L 559.066291 258.257488 
L 565.362482 257.494396 
L 566.93653 256.720712 
L 568.510578 254.004498 
L 570.084626 252.842046 
L 571.658674 252.260089 
L 573.232722 252.246813 
L 574.80677 251.396238 
L 577.954866 251.333146 
L 579.528914 251.60524 
L 581.102962 251.486453 
L 582.67701 251.572257 
L 584.251058 252.289076 
L 585.825106 254.414087 
L 587.399154 253.879988 
L 588.973202 253.532571 
L 592.121298 253.618696 
L 593.695346 253.588268 
L 595.269394 252.947059 
L 596.843441 251.371685 
L 599.991537 252.280618 
L 604.713681 252.280618 
L 604.713681 252.280618 
" style="fill:none;stroke:#ffb5b8;stroke-linecap:square;stroke-opacity:0.4;stroke-width:2;"/>
   </g>
   <g id="line2d_73">
    <defs>
     <path d="M 0 3 
C 0.795609 3 1.55874 2.683901 2.12132 2.12132 
C 2.683901 1.55874 3 0.795609 3 0 
C 3 -0.795609 2.683901 -1.55874 2.12132 -2.12132 
C 1.55874 -2.683901 0.795609 -3 0 -3 
C -0.795609 -3 -1.55874 -2.683901 -2.12132 -2.12132 
C -2.683901 -1.55874 -3 -0.795609 -3 0 
C -3 0.795609 -2.683901 1.55874 -2.12132 2.12132 
C -1.55874 2.683901 -0.795609 3 0 3 
z
" id="ma471425a24" style="stroke:#ffb5b8;stroke-opacity:0.4;"/>
    </defs>
    <g clip-path="url(#peded85678d)">
     <use style="fill:#ffb5b8;fill-opacity:0.4;stroke:#ffb5b8;stroke-opacity:0.4;" x="604.713681" xlink:href="#ma471425a24" y="252.280618"/>
    </g>
   </g>
   <g id="patch_3">
    <path d="M 90 378 
L 90 229.745455 
" style="fill:none;stroke:#ffffff;stroke-linecap:square;stroke-linejoin:miter;"/>
   </g>
   <g id="patch_4">
    <path d="M 648 378 
L 648 229.745455 
" style="fill:none;stroke:#ffffff;stroke-linecap:square;stroke-linejoin:miter;"/>
   </g>
   <g id="patch_5">
    <path d="M 90 378 
L 648 378 
" style="fill:none;stroke:#ffffff;stroke-linecap:square;stroke-linejoin:miter;"/>
   </g>
   <g id="patch_6">
    <path d="M 90 229.745455 
L 648 229.745455 
" style="fill:none;stroke:#ffffff;stroke-linecap:square;stroke-linejoin:miter;"/>
   </g>
   <g id="text_17">
    <!-- Korea, South -->
    <g transform="translate(618.880113 359.306515)scale(0.1 -0.1)">
     <defs>
      <path d="M 30.5 1.90625 
C 30.5 7 27.09375 10.203125 23.59375 10.203125 
C 20.296875 10.203125 17.796875 7.5 17.796875 4.5 
C 17.796875 1.796875 19.703125 0.703125 20.59375 0.09375 
C 21.5 -0.5 22.90625 -1.40625 22.90625 -3.5 
C 22.90625 -5.09375 22 -6.796875 21.5 -7.59375 
C 20.5 -9.203125 18.796875 -11.703125 16.40625 -13.90625 
L 19.90625 -16.90625 
C 26.90625 -9.796875 30.5 -3.296875 30.5 1.90625 
z
" id="Inconsolata-44"/>
      <path d="M 43.40625 54.796875 
C 39.203125 59.90625 33 62.59375 26.203125 62.59375 
C 14.90625 62.59375 7.203125 55.203125 7.203125 46.59375 
C 7.203125 43 8.59375 38.296875 13.796875 34.5 
C 19.59375 30.203125 28.59375 28.09375 33.296875 25.09375 
C 37.40625 22.59375 38.5 19.296875 38.5 16.5 
C 38.5 11.09375 33.90625 5.203125 24.90625 5.203125 
C 18.09375 5.203125 12.796875 8.59375 10 12.09375 
C 9.703125 12.5 9.703125 12.703125 9.703125 13.09375 
C 9.703125 13.296875 9.703125 13.90625 9.296875 14.09375 
L 5.09375 6.90625 
C 10 1.59375 17 -1.09375 24.703125 -1.09375 
C 39.90625 -1.09375 45.5 9.09375 45.5 16.90625 
C 45.5 20.203125 44.5 24.5 40.59375 28.203125 
C 35.203125 33.296875 26.40625 35.09375 20.703125 38.40625 
C 15.5 41.5 14.40625 45.203125 14.40625 47.703125 
C 14.40625 52.5 18.5 56.796875 25.59375 56.796875 
C 31.40625 56.796875 35.90625 54.203125 38.296875 50.703125 
C 38.59375 50.296875 38.5 50.09375 38.5 49.703125 
C 38.5 49.09375 38.796875 48.90625 39 48.90625 
z
" id="Inconsolata-83"/>
      <path d="M 6.203125 45.59375 
L 6.203125 20.09375 
C 6.203125 16.203125 6.203125 12.203125 8 8.09375 
C 10.59375 2.09375 16.203125 -1.203125 22.203125 -1.203125 
C 27.90625 -1.203125 33.296875 1.90625 36.296875 6.90625 
L 36.203125 3.5 
C 36.203125 2.296875 36.203125 1.09375 36.40625 0 
L 44 0 
C 43.5 1.296875 43.40625 2.796875 43.40625 4.09375 
L 43.40625 45.59375 
L 36.203125 45.59375 
L 36.203125 20.5 
C 36.203125 17 35.90625 14.296875 34.40625 11.5 
C 32.296875 7.59375 28.203125 4.703125 23.796875 4.703125 
C 20.296875 4.703125 16.90625 6.703125 15.09375 10.296875 
C 13.5 13.5 13.5 17.09375 13.5 20.09375 
L 13.5 45.59375 
z
" id="Inconsolata-117"/>
     </defs>
     <use xlink:href="#Inconsolata-75"/>
     <use x="49.999985" xlink:href="#Inconsolata-111"/>
     <use x="99.999969" xlink:href="#Inconsolata-114"/>
     <use x="149.999954" xlink:href="#Inconsolata-101"/>
     <use x="199.999939" xlink:href="#Inconsolata-97"/>
     <use x="249.999924" xlink:href="#Inconsolata-44"/>
     <use x="299.999908" xlink:href="#Inconsolata-32"/>
     <use x="349.999893" xlink:href="#Inconsolata-83"/>
     <use x="399.999878" xlink:href="#Inconsolata-111"/>
     <use x="449.999863" xlink:href="#Inconsolata-117"/>
     <use x="499.999847" xlink:href="#Inconsolata-116"/>
     <use x="549.999832" xlink:href="#Inconsolata-104"/>
    </g>
   </g>
   <g id="text_18">
    <!-- Germany -->
    <g transform="translate(598.417489 256.155241)scale(0.1 -0.1)">
     <defs>
      <path d="M 27.703125 62.90625 
C 19.40625 62.90625 3.59375 57.703125 3.59375 30.40625 
C 3.59375 6.796875 16.796875 -1 27.59375 -1 
C 33.40625 -1 40.09375 1.09375 45.90625 5.5 
L 45.90625 29.796875 
L 28.203125 29.796875 
L 28.203125 23.796875 
L 39.5 23.796875 
L 39.5 8.90625 
C 36 6.40625 32 5.09375 28.296875 5.09375 
C 24.203125 5.09375 19.796875 6.703125 16.40625 10.59375 
C 11.203125 16.5 10.5 25.296875 10.5 31.796875 
C 10.5 37.59375 11.203125 43.203125 13.59375 47.796875 
C 16.796875 53.90625 22.40625 56.703125 27.59375 56.703125 
C 33.203125 56.703125 37.59375 53.59375 39.5 49.40625 
C 39.796875 48.703125 40.09375 47.90625 40.90625 47.40625 
L 45.796875 52.40625 
C 42.203125 58.90625 35.40625 62.90625 27.703125 62.90625 
z
" id="Inconsolata-71"/>
     </defs>
     <use xlink:href="#Inconsolata-71"/>
     <use x="49.999985" xlink:href="#Inconsolata-101"/>
     <use x="99.999969" xlink:href="#Inconsolata-114"/>
     <use x="149.999954" xlink:href="#Inconsolata-109"/>
     <use x="199.999939" xlink:href="#Inconsolata-97"/>
     <use x="249.999924" xlink:href="#Inconsolata-110"/>
     <use x="299.999908" xlink:href="#Inconsolata-121"/>
    </g>
   </g>
   <g id="text_19">
    <!-- Poland -->
    <g transform="translate(577.954866 261.191254)scale(0.1 -0.1)">
     <defs>
      <path d="M 5.796875 62.296875 
L 5.796875 0 
L 13.09375 0 
L 13.09375 27.5 
L 25.296875 27.5 
C 29.203125 27.5 32.90625 27.59375 36.703125 29.5 
C 42.5 32.40625 45.5 38.40625 45.5 44.703125 
C 45.5 51 42.5 57.09375 36.59375 60.09375 
C 32.703125 62.203125 28.796875 62.296875 24.796875 62.296875 
z
M 13.09375 55.703125 
L 24.796875 55.703125 
C 27.40625 55.703125 29.90625 55.59375 32.5 54.40625 
C 36.296875 52.40625 38.40625 48.40625 38.40625 44.40625 
C 38.40625 40.40625 36.40625 36.703125 32.796875 34.90625 
C 30.40625 33.703125 28 33.59375 25.59375 33.59375 
L 13 33.59375 
z
" id="Inconsolata-80"/>
     </defs>
     <use xlink:href="#Inconsolata-80"/>
     <use x="49.999985" xlink:href="#Inconsolata-111"/>
     <use x="99.999969" xlink:href="#Inconsolata-108"/>
     <use x="149.999954" xlink:href="#Inconsolata-97"/>
     <use x="199.999939" xlink:href="#Inconsolata-110"/>
     <use x="249.999924" xlink:href="#Inconsolata-100"/>
    </g>
   </g>
   <g id="text_20">
    <!-- Belarus -->
    <g transform="translate(552.770099 313.753399)scale(0.1 -0.1)">
     <defs>
      <path d="M 4.796875 62.296875 
L 4.796875 0 
L 22.40625 0 
C 26.59375 0 30.90625 0 35.203125 1.796875 
C 41.90625 4.703125 45.59375 10.796875 45.59375 17.203125 
C 45.59375 24.5 40.90625 31 34 33.296875 
C 39.5 35.59375 43.203125 41.09375 43.203125 47 
C 43.203125 52.59375 40 58 34.09375 60.5 
C 30.203125 62.203125 26.296875 62.296875 22.5 62.296875 
z
M 11.703125 56.296875 
L 21.5 56.296875 
C 24.203125 56.296875 27 56.296875 29.796875 55.203125 
C 33.90625 53.5 36.09375 50 36.09375 46.40625 
C 36.09375 42.796875 34 39.40625 30.09375 37.703125 
C 27.203125 36.5 24.203125 36.5 21.40625 36.5 
L 11.703125 36.5 
z
M 11.703125 30.59375 
L 21.90625 30.59375 
C 25 30.59375 28.09375 30.5 31.203125 29 
C 35.796875 26.90625 38.296875 22.40625 38.296875 17.90625 
C 38.296875 13.40625 35.90625 9.296875 31.59375 7.296875 
C 28.90625 6.09375 26.296875 6.09375 23.59375 6.09375 
L 11.703125 6.09375 
z
" id="Inconsolata-66"/>
     </defs>
     <use xlink:href="#Inconsolata-66"/>
     <use x="49.999985" xlink:href="#Inconsolata-101"/>
     <use x="99.999969" xlink:href="#Inconsolata-108"/>
     <use x="149.999954" xlink:href="#Inconsolata-97"/>
     <use x="199.999939" xlink:href="#Inconsolata-114"/>
     <use x="249.999924" xlink:href="#Inconsolata-117"/>
     <use x="299.999908" xlink:href="#Inconsolata-115"/>
    </g>
   </g>
   <g id="text_21">
    <!-- Switzerland -->
    <g transform="translate(598.417489 267.891969)scale(0.1 -0.1)">
     <defs>
      <path d="M 7 45.703125 
L 7 39.40625 
L 33.296875 39.40625 
L 5 4.796875 
L 5 -0.09375 
L 44.90625 -0.09375 
L 44.90625 6.703125 
C 43.703125 6.90625 43.296875 6.09375 41.90625 6.09375 
L 14.703125 6.09375 
L 42.59375 40.796875 
L 42.59375 45.703125 
z
" id="Inconsolata-122"/>
     </defs>
     <use xlink:href="#Inconsolata-83"/>
     <use x="49.999985" xlink:href="#Inconsolata-119"/>
     <use x="99.999969" xlink:href="#Inconsolata-105"/>
     <use x="149.999954" xlink:href="#Inconsolata-116"/>
     <use x="199.999939" xlink:href="#Inconsolata-122"/>
     <use x="249.999924" xlink:href="#Inconsolata-101"/>
     <use x="299.999908" xlink:href="#Inconsolata-114"/>
     <use x="349.999893" xlink:href="#Inconsolata-108"/>
     <use x="399.999878" xlink:href="#Inconsolata-97"/>
     <use x="449.999863" xlink:href="#Inconsolata-110"/>
     <use x="499.999847" xlink:href="#Inconsolata-100"/>
    </g>
   </g>
   <g id="text_22">
    <!-- US -->
    <g transform="translate(607.861777 252.280618)scale(0.1 -0.1)">
     <defs>
      <path d="M 5 62.296875 
L 5 21.40625 
C 5 17 5.09375 12.796875 7.40625 8.5 
C 10.796875 2.09375 17.796875 -1.203125 25.09375 -1.203125 
C 32.296875 -1.203125 39.296875 2 42.796875 8.59375 
C 45.203125 12.90625 45.296875 17.203125 45.296875 21.796875 
L 45.296875 62.296875 
L 38.703125 62.296875 
L 38.703125 21.59375 
C 38.703125 18.40625 38.59375 15.296875 37.09375 12.09375 
C 34.796875 7.296875 30.09375 4.796875 25.203125 4.796875 
C 20.296875 4.796875 15.59375 7.40625 13.40625 12.203125 
C 11.90625 15.203125 11.90625 18.296875 11.90625 21.40625 
L 11.90625 59.09375 
C 11.90625 59.5 11.90625 59.90625 12.296875 60.40625 
C 12.5 60.703125 12.90625 61.203125 12.90625 61.796875 
C 12.90625 61.90625 12.90625 62.09375 12.796875 62.296875 
z
" id="Inconsolata-85"/>
     </defs>
     <use xlink:href="#Inconsolata-85"/>
     <use x="49.999985" xlink:href="#Inconsolata-83"/>
    </g>
   </g>
  </g>
 </g>
 <defs>
  <clipPath id="peded85678d">
   <rect height="148.254545" width="558" x="90" y="229.745455"/>
  </clipPath>
 </defs>
</svg>
