<?xml version="1.0" encoding="utf-8" standalone="no"?>
<!DOCTYPE svg PUBLIC "-//W3C//DTD SVG 1.1//EN"
  "http://www.w3.org/Graphics/SVG/1.1/DTD/svg11.dtd">
<!-- Created with matplotlib (https://matplotlib.org/) -->
<svg height="180pt" version="1.1" viewBox="0 0 720 180" width="720pt" xmlns="http://www.w3.org/2000/svg" xmlns:xlink="http://www.w3.org/1999/xlink">
 <metadata>
  <rdf:RDF xmlns:cc="http://creativecommons.org/ns#" xmlns:dc="http://purl.org/dc/elements/1.1/" xmlns:rdf="http://www.w3.org/1999/02/22-rdf-syntax-ns#">
   <cc:Work>
    <dc:type rdf:resource="http://purl.org/dc/dcmitype/StillImage"/>
    <dc:date>2021-01-29T10:28:55.107176</dc:date>
    <dc:format>image/svg+xml</dc:format>
    <dc:creator>
     <cc:Agent>
      <dc:title>Matplotlib v3.3.4, https://matplotlib.org/</dc:title>
     </cc:Agent>
    </dc:creator>
   </cc:Work>
  </rdf:RDF>
 </metadata>
 <defs>
  <style type="text/css">*{stroke-linecap:butt;stroke-linejoin:round;}</style>
 </defs>
 <g id="figure_1">
  <g id="patch_1">
   <path d="M 0 180 
L 720 180 
L 720 0 
L 0 0 
z
" style="fill:#ffffff;"/>
  </g>
  <g id="axes_1">
   <g id="patch_2">
    <path d="M 90 157.5 
L 648 157.5 
L 648 21.6 
L 90 21.6 
z
" style="fill:#e5e5e5;"/>
   </g>
   <g id="matplotlib.axis_1">
    <g id="xtick_1">
     <g id="line2d_1">
      <path clip-path="url(#p52310ecfbc)" d="M 168.545455 157.5 
L 168.545455 21.6 
" style="fill:none;stroke:#ffffff;stroke-linecap:square;stroke-width:0.8;"/>
     </g>
     <g id="line2d_2">
      <defs>
       <path d="M 0 0 
L 0 3.5 
" id="m1c84f0bf7f" style="stroke:#555555;stroke-width:0.8;"/>
      </defs>
      <g>
       <use style="fill:#555555;stroke:#555555;stroke-width:0.8;" x="168.545455" xlink:href="#m1c84f0bf7f" y="157.5"/>
      </g>
     </g>
     <g id="text_1">
      <!-- 2020-02 -->
      <g style="fill:#555555;" transform="translate(151.045455 171.140625)scale(0.1 -0.1)">
       <defs>
        <path d="M 7.703125 52.59375 
L 12.796875 48.5 
C 13.40625 49.40625 13.09375 50 13.703125 50.796875 
C 15.203125 53.09375 18.90625 56.5 24.296875 56.5 
C 31 56.5 36.296875 51.40625 36.296875 44.703125 
C 36.296875 37.09375 29.90625 31.59375 25.40625 27.5 
C 18.296875 21.09375 12.5 14.703125 7.296875 4.40625 
L 7.296875 0 
L 43.90625 0 
L 43.90625 6.90625 
C 43.203125 7.203125 42.703125 6.703125 42.5 6.5 
C 42.09375 6.09375 41.90625 6.09375 41.5 6.09375 
L 15.296875 6.09375 
C 20.5 15.09375 27.796875 21.296875 32.296875 25.5 
C 36.796875 29.796875 43.203125 36.203125 43.203125 45.203125 
C 43.203125 54.90625 35.296875 62.703125 25.203125 62.703125 
C 18.09375 62.703125 11.40625 58.90625 7.703125 52.59375 
z
" id="Inconsolata-50"/>
        <path d="M 25.09375 62.703125 
C 15.203125 62.703125 5 50.5 5 30.59375 
C 5 10.40625 15.296875 -1.203125 25.203125 -1.203125 
C 34.203125 -1.203125 44.90625 8.59375 44.90625 30.09375 
C 44.90625 51.296875 34.703125 62.703125 25.09375 62.703125 
z
M 34.796875 48.40625 
L 12.90625 20 
C 12 23.5 11.5 27.40625 11.5 31.796875 
C 11.5 47.796875 18.796875 56.59375 25 56.59375 
C 28.40625 56.59375 32.09375 53.90625 34.796875 48.40625 
z
M 37.09375 41.796875 
C 38 38.296875 38.40625 34.09375 38.40625 29.203125 
C 38.40625 11.796875 30.90625 5.203125 25.40625 5.203125 
C 21.703125 5.203125 17.90625 8.203125 15.203125 13.703125 
z
" id="Inconsolata-48"/>
        <path d="M 7 34.703125 
L 7 28.09375 
L 43 28.09375 
L 43 34.703125 
z
" id="Inconsolata-45"/>
       </defs>
       <use xlink:href="#Inconsolata-50"/>
       <use x="49.999985" xlink:href="#Inconsolata-48"/>
       <use x="99.999969" xlink:href="#Inconsolata-50"/>
       <use x="149.999954" xlink:href="#Inconsolata-48"/>
       <use x="199.999939" xlink:href="#Inconsolata-45"/>
       <use x="249.999924" xlink:href="#Inconsolata-48"/>
       <use x="299.999908" xlink:href="#Inconsolata-50"/>
      </g>
     </g>
    </g>
    <g id="xtick_2">
     <g id="line2d_3">
      <path clip-path="url(#p52310ecfbc)" d="M 251.727273 157.5 
L 251.727273 21.6 
" style="fill:none;stroke:#ffffff;stroke-linecap:square;stroke-width:0.8;"/>
     </g>
     <g id="line2d_4">
      <g>
       <use style="fill:#555555;stroke:#555555;stroke-width:0.8;" x="251.727273" xlink:href="#m1c84f0bf7f" y="157.5"/>
      </g>
     </g>
     <g id="text_2">
      <!-- 2020-04 -->
      <g style="fill:#555555;" transform="translate(234.227273 171.140625)scale(0.1 -0.1)">
       <defs>
        <path d="M 31.296875 62.296875 
L 4.796875 22.40625 
L 4.796875 17.203125 
L 29.90625 17.203125 
L 29.90625 0 
L 37.09375 0 
L 37.09375 17.09375 
L 45.203125 17.09375 
L 45.203125 23.296875 
L 37.09375 23.296875 
L 37.09375 62.296875 
z
M 30 51.203125 
L 30 23.296875 
L 11.703125 23.296875 
z
" id="Inconsolata-52"/>
       </defs>
       <use xlink:href="#Inconsolata-50"/>
       <use x="49.999985" xlink:href="#Inconsolata-48"/>
       <use x="99.999969" xlink:href="#Inconsolata-50"/>
       <use x="149.999954" xlink:href="#Inconsolata-48"/>
       <use x="199.999939" xlink:href="#Inconsolata-45"/>
       <use x="249.999924" xlink:href="#Inconsolata-48"/>
       <use x="299.999908" xlink:href="#Inconsolata-52"/>
      </g>
     </g>
    </g>
    <g id="xtick_3">
     <g id="line2d_5">
      <path clip-path="url(#p52310ecfbc)" d="M 334.909091 157.5 
L 334.909091 21.6 
" style="fill:none;stroke:#ffffff;stroke-linecap:square;stroke-width:0.8;"/>
     </g>
     <g id="line2d_6">
      <g>
       <use style="fill:#555555;stroke:#555555;stroke-width:0.8;" x="334.909091" xlink:href="#m1c84f0bf7f" y="157.5"/>
      </g>
     </g>
     <g id="text_3">
      <!-- 2020-06 -->
      <g style="fill:#555555;" transform="translate(317.409091 171.140625)scale(0.1 -0.1)">
       <defs>
        <path d="M 28.703125 63 
C 21.203125 63 13.203125 58.40625 9.296875 47.5 
C 7.203125 41.59375 6.703125 34.296875 6.703125 28.296875 
C 6.703125 21 7.40625 13.203125 11.40625 7.203125 
C 15 1.703125 20.59375 -1.09375 26.09375 -1.09375 
C 35.59375 -1.09375 43.90625 6.90625 43.90625 19.796875 
C 43.90625 32.703125 35.59375 40.203125 26.796875 40.203125 
C 21.40625 40.203125 16.296875 37.296875 13.59375 32.703125 
C 14 54 24.203125 56.796875 28.703125 56.796875 
C 32.796875 56.796875 35.59375 54.59375 36 54.203125 
C 36.59375 53.5 36.59375 52.59375 37.5 51.90625 
L 42.296875 57.296875 
C 38.703125 60.90625 33.703125 63 28.703125 63 
z
M 26.09375 34 
C 31.09375 34 37.09375 30.09375 37.09375 19.40625 
C 37.09375 9.703125 31.703125 5.09375 26.40625 5.09375 
C 18.796875 5.09375 13.09375 14 13.90625 25.703125 
C 16.703125 30.796875 21.5 34 26.09375 34 
z
" id="Inconsolata-54"/>
       </defs>
       <use xlink:href="#Inconsolata-50"/>
       <use x="49.999985" xlink:href="#Inconsolata-48"/>
       <use x="99.999969" xlink:href="#Inconsolata-50"/>
       <use x="149.999954" xlink:href="#Inconsolata-48"/>
       <use x="199.999939" xlink:href="#Inconsolata-45"/>
       <use x="249.999924" xlink:href="#Inconsolata-48"/>
       <use x="299.999908" xlink:href="#Inconsolata-54"/>
      </g>
     </g>
    </g>
    <g id="xtick_4">
     <g id="line2d_7">
      <path clip-path="url(#p52310ecfbc)" d="M 419.454545 157.5 
L 419.454545 21.6 
" style="fill:none;stroke:#ffffff;stroke-linecap:square;stroke-width:0.8;"/>
     </g>
     <g id="line2d_8">
      <g>
       <use style="fill:#555555;stroke:#555555;stroke-width:0.8;" x="419.454545" xlink:href="#m1c84f0bf7f" y="157.5"/>
      </g>
     </g>
     <g id="text_4">
      <!-- 2020-08 -->
      <g style="fill:#555555;" transform="translate(401.954545 171.140625)scale(0.1 -0.1)">
       <defs>
        <path d="M 25.796875 63 
C 16.203125 63 8.90625 56.09375 8.90625 47.703125 
C 8.90625 41.59375 12.796875 36 18.40625 33.09375 
C 11 29.59375 6 22.796875 6 15.59375 
C 6 6.296875 14.203125 -1.09375 24.90625 -1.09375 
C 35.796875 -1.09375 44.09375 6.5 44.09375 16 
C 44.09375 23.40625 39.09375 30 32.09375 33.296875 
C 38.09375 36.40625 42 42.296875 42 48.296875 
C 42 56.5 34.90625 63 25.796875 63 
z
M 23.703125 30.203125 
C 31.703125 27.703125 37 22.203125 37 16.09375 
C 37 10.09375 31.90625 5.203125 25.203125 5.203125 
C 18.40625 5.203125 13.203125 10.296875 13.203125 16.5 
C 13.203125 22.40625 17.796875 27.796875 23.703125 30.203125 
z
M 25.203125 57.203125 
C 30.796875 57.203125 35.203125 53 35.203125 47.796875 
C 35.203125 43 31.5 38.40625 26.59375 35.796875 
C 26.59375 35.796875 15.59375 40 15.59375 48.296875 
C 15.59375 53.203125 19.796875 57.203125 25.203125 57.203125 
z
" id="Inconsolata-56"/>
       </defs>
       <use xlink:href="#Inconsolata-50"/>
       <use x="49.999985" xlink:href="#Inconsolata-48"/>
       <use x="99.999969" xlink:href="#Inconsolata-50"/>
       <use x="149.999954" xlink:href="#Inconsolata-48"/>
       <use x="199.999939" xlink:href="#Inconsolata-45"/>
       <use x="249.999924" xlink:href="#Inconsolata-48"/>
       <use x="299.999908" xlink:href="#Inconsolata-56"/>
      </g>
     </g>
    </g>
    <g id="xtick_5">
     <g id="line2d_9">
      <path clip-path="url(#p52310ecfbc)" d="M 502.636364 157.5 
L 502.636364 21.6 
" style="fill:none;stroke:#ffffff;stroke-linecap:square;stroke-width:0.8;"/>
     </g>
     <g id="line2d_10">
      <g>
       <use style="fill:#555555;stroke:#555555;stroke-width:0.8;" x="502.636364" xlink:href="#m1c84f0bf7f" y="157.5"/>
      </g>
     </g>
     <g id="text_5">
      <!-- 2020-10 -->
      <g style="fill:#555555;" transform="translate(485.136364 171.140625)scale(0.1 -0.1)">
       <defs>
        <path d="M 29.90625 62.296875 
L 25.09375 62.296875 
L 8.796875 53.796875 
L 10.40625 49.90625 
L 22.90625 53.59375 
L 22.90625 -0.09375 
L 29.90625 -0.09375 
z
" id="Inconsolata-49"/>
       </defs>
       <use xlink:href="#Inconsolata-50"/>
       <use x="49.999985" xlink:href="#Inconsolata-48"/>
       <use x="99.999969" xlink:href="#Inconsolata-50"/>
       <use x="149.999954" xlink:href="#Inconsolata-48"/>
       <use x="199.999939" xlink:href="#Inconsolata-45"/>
       <use x="249.999924" xlink:href="#Inconsolata-49"/>
       <use x="299.999908" xlink:href="#Inconsolata-48"/>
      </g>
     </g>
    </g>
    <g id="xtick_6">
     <g id="line2d_11">
      <path clip-path="url(#p52310ecfbc)" d="M 585.818182 157.5 
L 585.818182 21.6 
" style="fill:none;stroke:#ffffff;stroke-linecap:square;stroke-width:0.8;"/>
     </g>
     <g id="line2d_12">
      <g>
       <use style="fill:#555555;stroke:#555555;stroke-width:0.8;" x="585.818182" xlink:href="#m1c84f0bf7f" y="157.5"/>
      </g>
     </g>
     <g id="text_6">
      <!-- 2020-12 -->
      <g style="fill:#555555;" transform="translate(568.318182 171.140625)scale(0.1 -0.1)">
       <use xlink:href="#Inconsolata-50"/>
       <use x="49.999985" xlink:href="#Inconsolata-48"/>
       <use x="99.999969" xlink:href="#Inconsolata-50"/>
       <use x="149.999954" xlink:href="#Inconsolata-48"/>
       <use x="199.999939" xlink:href="#Inconsolata-45"/>
       <use x="249.999924" xlink:href="#Inconsolata-49"/>
       <use x="299.999908" xlink:href="#Inconsolata-50"/>
      </g>
     </g>
    </g>
   </g>
   <g id="matplotlib.axis_2">
    <g id="ytick_1">
     <g id="line2d_13">
      <path clip-path="url(#p52310ecfbc)" d="M 90 126.051156 
L 648 126.051156 
" style="fill:none;stroke:#ffffff;stroke-linecap:square;stroke-width:0.8;"/>
     </g>
     <g id="line2d_14">
      <defs>
       <path d="M 0 0 
L -3.5 0 
" id="m06342666d6" style="stroke:#555555;stroke-width:0.8;"/>
      </defs>
      <g>
       <use style="fill:#555555;stroke:#555555;stroke-width:0.8;" x="90" xlink:href="#m06342666d6" y="126.051156"/>
      </g>
     </g>
     <g id="line2d_15">
      <defs>
       <path d="M 0 0 
L 3.5 0 
" id="mc80bd31b58" style="stroke:#555555;stroke-width:0.8;"/>
      </defs>
      <g>
       <use style="fill:#555555;stroke:#555555;stroke-width:0.8;" x="648" xlink:href="#mc80bd31b58" y="126.051156"/>
      </g>
     </g>
     <g id="text_7">
      <!-- 10 -->
      <g style="fill:#555555;" transform="translate(73 129.371469)scale(0.1 -0.1)">
       <use xlink:href="#Inconsolata-49"/>
       <use x="49.999985" xlink:href="#Inconsolata-48"/>
      </g>
     </g>
     <g id="text_8">
      <!-- 10 -->
      <g style="fill:#555555;" transform="translate(655 129.371469)scale(0.1 -0.1)">
       <use xlink:href="#Inconsolata-49"/>
       <use x="49.999985" xlink:href="#Inconsolata-48"/>
      </g>
     </g>
    </g>
    <g id="ytick_2">
     <g id="line2d_16">
      <path clip-path="url(#p52310ecfbc)" d="M 90 75.508015 
L 648 75.508015 
" style="fill:none;stroke:#ffffff;stroke-linecap:square;stroke-width:0.8;"/>
     </g>
     <g id="line2d_17">
      <g>
       <use style="fill:#555555;stroke:#555555;stroke-width:0.8;" x="90" xlink:href="#m06342666d6" y="75.508015"/>
      </g>
     </g>
     <g id="line2d_18">
      <g>
       <use style="fill:#555555;stroke:#555555;stroke-width:0.8;" x="648" xlink:href="#mc80bd31b58" y="75.508015"/>
      </g>
     </g>
     <g id="text_9">
      <!-- 1000 -->
      <g style="fill:#555555;" transform="translate(63 78.828327)scale(0.1 -0.1)">
       <use xlink:href="#Inconsolata-49"/>
       <use x="49.999985" xlink:href="#Inconsolata-48"/>
       <use x="99.999969" xlink:href="#Inconsolata-48"/>
       <use x="149.999954" xlink:href="#Inconsolata-48"/>
      </g>
     </g>
     <g id="text_10">
      <!-- 1000 -->
      <g style="fill:#555555;" transform="translate(655 78.828327)scale(0.1 -0.1)">
       <use xlink:href="#Inconsolata-49"/>
       <use x="49.999985" xlink:href="#Inconsolata-48"/>
       <use x="99.999969" xlink:href="#Inconsolata-48"/>
       <use x="149.999954" xlink:href="#Inconsolata-48"/>
      </g>
     </g>
    </g>
    <g id="ytick_3">
     <g id="line2d_19">
      <path clip-path="url(#p52310ecfbc)" d="M 90 24.964873 
L 648 24.964873 
" style="fill:none;stroke:#ffffff;stroke-linecap:square;stroke-width:0.8;"/>
     </g>
     <g id="line2d_20">
      <g>
       <use style="fill:#555555;stroke:#555555;stroke-width:0.8;" x="90" xlink:href="#m06342666d6" y="24.964873"/>
      </g>
     </g>
     <g id="line2d_21">
      <g>
       <use style="fill:#555555;stroke:#555555;stroke-width:0.8;" x="648" xlink:href="#mc80bd31b58" y="24.964873"/>
      </g>
     </g>
     <g id="text_11">
      <!-- 100000 -->
      <g style="fill:#555555;" transform="translate(53 28.285186)scale(0.1 -0.1)">
       <use xlink:href="#Inconsolata-49"/>
       <use x="49.999985" xlink:href="#Inconsolata-48"/>
       <use x="99.999969" xlink:href="#Inconsolata-48"/>
       <use x="149.999954" xlink:href="#Inconsolata-48"/>
       <use x="199.999939" xlink:href="#Inconsolata-48"/>
       <use x="249.999924" xlink:href="#Inconsolata-48"/>
      </g>
     </g>
     <g id="text_12">
      <!-- 100000 -->
      <g style="fill:#555555;" transform="translate(655 28.285186)scale(0.1 -0.1)">
       <use xlink:href="#Inconsolata-49"/>
       <use x="49.999985" xlink:href="#Inconsolata-48"/>
       <use x="99.999969" xlink:href="#Inconsolata-48"/>
       <use x="149.999954" xlink:href="#Inconsolata-48"/>
       <use x="199.999939" xlink:href="#Inconsolata-48"/>
       <use x="249.999924" xlink:href="#Inconsolata-48"/>
      </g>
     </g>
    </g>
    <g id="text_13">
     <!-- total numbers -->
     <g style="fill:#555555;" transform="translate(46.995625 128.55)rotate(-90)scale(0.12 -0.12)">
      <defs>
       <path d="M 18.796875 57.90625 
L 17.90625 45.59375 
L 7 45.59375 
L 6.90625 39.703125 
L 17.59375 39.703125 
C 17 31.90625 16.703125 24.09375 16.703125 16.40625 
C 16.703125 12.296875 16.703125 7.703125 19.40625 3.90625 
C 21.59375 0.90625 25.09375 -0.90625 29.796875 -0.90625 
C 35.203125 -0.90625 40.5 1.40625 44.40625 4.203125 
L 42.203125 9.90625 
C 38.296875 7 34.703125 5.703125 31.90625 5.703125 
C 28.5 5.703125 25 7.59375 24.203125 13.09375 
C 24.203125 13.5 23.90625 15.203125 23.90625 21.90625 
C 23.90625 27.796875 24.203125 33.796875 24.796875 39.703125 
L 39.796875 39.703125 
L 39.796875 45.703125 
L 24.90625 45.703125 
C 24.90625 45.703125 25.59375 53.90625 26.09375 56.5 
C 26.203125 57.5 27 58.09375 26.59375 59.203125 
z
" id="Inconsolata-116"/>
       <path d="M 46 22.59375 
C 46 38.40625 36 46.59375 25.59375 46.59375 
C 14 46.59375 4 36.59375 4 22.40625 
C 4 8.5 13.90625 -1.296875 25.40625 -1.296875 
C 36.203125 -1.296875 46 7.40625 46 22.59375 
z
M 25.09375 40.5 
C 31.703125 40.5 38.703125 34.796875 38.703125 22.296875 
C 38.703125 10.796875 32.09375 5 25.5 5 
C 18.203125 5 11.59375 11.796875 11.59375 23.09375 
C 11.59375 34.296875 18.09375 40.5 25.09375 40.5 
z
" id="Inconsolata-111"/>
       <path d="M 9 40.296875 
L 12.5 35.703125 
C 16.296875 39.59375 21.40625 40.796875 25.703125 40.796875 
C 31.09375 40.796875 33.796875 38.5 35.09375 36.40625 
C 36.59375 33.90625 36.5 30.90625 36.5 28.5 
L 36.5 26.90625 
L 35.09375 26.90625 
C 28.296875 26.90625 21.09375 26.90625 15.296875 24.796875 
C 8.09375 22.203125 4.90625 16.796875 4.90625 11.796875 
C 4.90625 5.09375 10.703125 -1.203125 20.203125 -1.203125 
C 25.796875 -1.203125 31.59375 0.90625 36.59375 5 
L 36.59375 0 
L 43.40625 0 
L 43.40625 28.296875 
C 43.40625 32 43.296875 35.5 41.203125 39.09375 
C 38.203125 44 32.40625 46.59375 25.296875 46.59375 
C 19.203125 46.59375 13.296875 44.703125 9 40.296875 
z
M 36.796875 21.40625 
L 36.796875 18.296875 
C 36.796875 16 36.796875 13 33.703125 9.703125 
C 32 8 27.703125 4.296875 21.703125 4.296875 
C 15.59375 4.296875 12.09375 8.203125 12.09375 12.203125 
C 12.09375 15.59375 14.40625 19.296875 20.09375 20.703125 
C 24.296875 21.703125 30.40625 21.40625 35.203125 21.40625 
z
" id="Inconsolata-97"/>
       <path d="M 8.40625 66.40625 
L 8.40625 60.59375 
L 21.40625 60.59375 
L 21.40625 5.703125 
L 7.796875 5.703125 
L 7.796875 0 
L 42.09375 0 
L 42.09375 5.703125 
L 28.59375 5.703125 
L 28.59375 66.40625 
z
" id="Inconsolata-108"/>
       <path id="Inconsolata-32"/>
       <path d="M 6.796875 0 
L 14.09375 0 
L 14.09375 26.296875 
C 14.09375 29.296875 14.5 31.59375 16.40625 34.09375 
C 18.09375 36.40625 22.5 40.5 27.296875 40.5 
C 29.59375 40.5 31.90625 39.5 33.5 37.59375 
C 36 34.59375 36 30.703125 36 27.5 
L 36 0 
L 43.09375 0 
L 43.09375 27.703125 
C 43.09375 31.203125 43.09375 35 41.5 38.703125 
C 39.203125 43.796875 34.5 46.703125 29.296875 46.703125 
C 23.09375 46.703125 17.5 42.703125 14.09375 37.59375 
L 14.09375 45.59375 
L 6.796875 45.59375 
z
" id="Inconsolata-110"/>
       <path d="M 6.203125 45.59375 
L 6.203125 20.09375 
C 6.203125 16.203125 6.203125 12.203125 8 8.09375 
C 10.59375 2.09375 16.203125 -1.203125 22.203125 -1.203125 
C 27.90625 -1.203125 33.296875 1.90625 36.296875 6.90625 
L 36.203125 3.5 
C 36.203125 2.296875 36.203125 1.09375 36.40625 0 
L 44 0 
C 43.5 1.296875 43.40625 2.796875 43.40625 4.09375 
L 43.40625 45.59375 
L 36.203125 45.59375 
L 36.203125 20.5 
C 36.203125 17 35.90625 14.296875 34.40625 11.5 
C 32.296875 7.59375 28.203125 4.703125 23.796875 4.703125 
C 20.296875 4.703125 16.90625 6.703125 15.09375 10.296875 
C 13.5 13.5 13.5 17.09375 13.5 20.09375 
L 13.5 45.59375 
z
" id="Inconsolata-117"/>
       <path d="M 3.703125 0 
L 10.296875 0 
L 10.296875 30.40625 
C 10.296875 32.59375 10.5 34.59375 11.796875 37 
C 13.40625 40 15.40625 41.203125 17.296875 41.203125 
C 18.90625 41.203125 20.703125 40.203125 21.5 37.703125 
C 22.09375 35.796875 22 33.59375 22 31.703125 
L 22 0 
L 28.703125 0 
L 28.703125 30.203125 
C 28.703125 32.59375 28.90625 34.5 30.59375 37.40625 
C 31.40625 38.59375 33.09375 41.5 35.90625 41.5 
C 37.40625 41.5 38.796875 40.59375 39.5 38.90625 
C 40.40625 37 40.203125 34.40625 40.203125 32.296875 
L 40.203125 -0.09375 
L 47 -0.09375 
L 47 32.40625 
C 47 36.203125 47.09375 40 45.09375 43.09375 
C 43.40625 45.703125 40.5 46.703125 38 46.703125 
C 33.59375 46.703125 29.5 44.09375 27.703125 40.09375 
C 27 43.90625 23.796875 46.703125 19.703125 46.703125 
C 15.90625 46.703125 12.40625 44.296875 10.296875 41.09375 
L 10.40625 45.59375 
L 3.703125 45.59375 
z
" id="Inconsolata-109"/>
       <path d="M 5.90625 66.5 
L 5.90625 0 
L 10.59375 0 
L 13.09375 6 
C 16.09375 1.5 21.09375 -1.203125 26.59375 -1.203125 
C 36 -1.203125 45.703125 6.796875 45.703125 23.40625 
C 45.703125 39.296875 36.296875 46.703125 27.296875 46.703125 
C 21.5 46.703125 16.09375 43.59375 13.203125 38.59375 
L 13.203125 64.203125 
C 13.203125 64.796875 13.296875 65 13.796875 65.40625 
C 14 65.5 14.5 65.90625 14.40625 66.5 
z
M 24.796875 40.5 
C 29.09375 40.5 38.203125 38 38.203125 21.796875 
C 38.203125 7.90625 29.203125 5.296875 24.703125 5.296875 
C 21.59375 5.296875 14.703125 6.5 13.5 15.296875 
C 13.203125 17.59375 13.203125 20.296875 13.203125 24.296875 
C 13.203125 28.40625 13.40625 31.40625 14.40625 33.90625 
C 16.09375 38 20.296875 40.5 24.796875 40.5 
z
" id="Inconsolata-98"/>
       <path d="M 25.796875 46.703125 
C 14.90625 46.703125 4.796875 38.90625 4.796875 22.296875 
C 4.796875 7 14.296875 -1.09375 26.703125 -1.09375 
C 33.296875 -1.09375 39.203125 1.296875 43.09375 6 
L 39.09375 9.90625 
C 36.203125 6.5 31.796875 4.703125 27.296875 4.703125 
C 21.203125 4.703125 12.296875 8.09375 11.796875 21.796875 
L 44.203125 21.796875 
C 44.5 24.90625 44.40625 27.90625 43.90625 30.5 
C 41.796875 42.796875 33.296875 46.703125 25.796875 46.703125 
z
M 12 27.296875 
C 13.5 38.09375 20.40625 41.203125 25.296875 41.203125 
C 32.703125 41.203125 38 34.703125 37.09375 27.296875 
z
" id="Inconsolata-101"/>
       <path d="M 9.90625 45.59375 
L 9.90625 -0.09375 
L 17.09375 -0.09375 
L 17.09375 22.09375 
C 17.09375 24.90625 17.203125 27.90625 20.296875 32.796875 
C 24.5 39.40625 29.90625 40.5 33.203125 40.5 
C 37 40.5 39.40625 38.703125 40.703125 37.09375 
C 41.296875 36.296875 41.59375 35.5 42.40625 34.796875 
L 45.796875 41.703125 
C 42.90625 44.703125 38.703125 46.703125 33.59375 46.703125 
C 26.90625 46.703125 20.09375 43.296875 17.09375 36.796875 
L 17.40625 45.59375 
z
" id="Inconsolata-114"/>
       <path d="M 43.203125 39.59375 
C 39 44.203125 32.90625 46.703125 26.09375 46.703125 
C 15.5 46.703125 8.59375 40.796875 8.59375 34 
C 8.59375 26 17.203125 23.09375 19.703125 22.203125 
C 23.59375 20.796875 28.59375 19.59375 32 18 
C 35.796875 16.203125 36.5 13.796875 36.5 12.203125 
C 36.5 7.90625 31.296875 5 24.796875 5 
C 17 5 12 9.703125 10.5 11.296875 
C 10.203125 11.703125 10.203125 12 10.203125 12.40625 
C 10.203125 12.5 10.296875 13.09375 9.796875 13.296875 
L 5.59375 6.203125 
C 11 1.203125 18 -1.09375 24.90625 -1.09375 
C 37.40625 -1.09375 43.90625 6.296875 43.90625 13.203125 
C 43.90625 16.296875 42.59375 20.5 37.203125 23.5 
C 32.09375 26.40625 24.703125 27.40625 20.40625 29.5 
C 16.703125 31.296875 15.90625 33.5 15.90625 35.09375 
C 15.90625 38.703125 20.40625 41.296875 25.5 41.296875 
C 32.09375 41.296875 36.5 37.296875 38.203125 35 
C 38.5 34.703125 38.40625 34.40625 38.40625 34.09375 
C 38.40625 33.5 38.796875 33.296875 39 33.296875 
z
" id="Inconsolata-115"/>
      </defs>
      <use xlink:href="#Inconsolata-116"/>
      <use x="49.999985" xlink:href="#Inconsolata-111"/>
      <use x="99.999969" xlink:href="#Inconsolata-116"/>
      <use x="149.999954" xlink:href="#Inconsolata-97"/>
      <use x="199.999939" xlink:href="#Inconsolata-108"/>
      <use x="249.999924" xlink:href="#Inconsolata-32"/>
      <use x="299.999908" xlink:href="#Inconsolata-110"/>
      <use x="349.999893" xlink:href="#Inconsolata-117"/>
      <use x="399.999878" xlink:href="#Inconsolata-109"/>
      <use x="449.999863" xlink:href="#Inconsolata-98"/>
      <use x="499.999847" xlink:href="#Inconsolata-101"/>
      <use x="549.999832" xlink:href="#Inconsolata-114"/>
      <use x="599.999817" xlink:href="#Inconsolata-115"/>
     </g>
    </g>
   </g>
   <g id="line2d_22">
    <path clip-path="url(#p52310ecfbc)" d="M 115.363636 151.322727 
L 116.727273 151.322727 
L 116.727273 143.715226 
L 119.454545 143.715226 
L 119.454545 139.265124 
L 120.818182 139.265124 
L 120.818182 136.107726 
L 126.272727 136.107726 
L 126.272727 125.005098 
L 127.636364 125.005098 
L 127.636364 124.050122 
L 129 124.050122 
L 129 121.601054 
L 131.727273 121.601054 
L 131.727273 120.892724 
L 133.090909 120.892724 
L 133.090909 119.006615 
L 134.454545 119.006615 
L 134.454545 116.909726 
L 135.818182 116.909726 
L 135.818182 116.442621 
L 138.545455 116.442621 
L 138.545455 115.994587 
L 139.909091 115.994587 
L 139.909091 115.149916 
L 141.272727 115.149916 
L 141.272727 114.750771 
L 148.090909 114.750771 
L 148.090909 114.365633 
L 149.454545 114.365633 
L 149.454545 113.993553 
L 150.818182 113.993553 
L 150.818182 113.633675 
L 153.545455 113.633675 
L 153.545455 100.349126 
L 154.909091 100.349126 
L 154.909091 92.954745 
L 156.272727 92.954745 
L 156.272727 84.694537 
L 157.636364 84.694537 
L 157.636364 81.077958 
L 159 81.077958 
L 159 77.51344 
L 160.363636 77.51344 
L 160.363636 75.763395 
L 161.727273 75.763395 
L 161.727273 72.962786 
L 163.090909 72.962786 
L 163.090909 69.266172 
L 164.454545 69.266172 
L 164.454545 66.19143 
L 165.818182 66.19143 
L 165.818182 62.914924 
L 167.181818 62.914924 
L 167.181818 61.042394 
L 168.545455 61.042394 
L 168.545455 59.410299 
L 169.909091 59.410299 
L 169.909091 57.443074 
L 171.272727 57.443074 
L 171.272727 56.559048 
L 172.636364 56.559048 
L 172.636364 55.683108 
L 174 55.683108 
L 174 54.808499 
L 175.363636 54.808499 
L 175.363636 54.086963 
L 176.727273 54.086963 
L 176.727273 53.669462 
L 178.090909 53.669462 
L 178.090909 53.426084 
L 180.818182 53.374835 
L 180.818182 53.026885 
L 182.181818 53.026885 
L 182.181818 52.86672 
L 183.545455 52.86672 
L 183.545455 52.71436 
L 184.909091 52.71436 
L 184.909091 52.568157 
L 187.636364 52.465483 
L 187.636364 52.366424 
L 189 52.366424 
L 189 52.255053 
L 190.363636 52.255053 
L 190.363636 52.133053 
L 191.727273 52.133053 
L 191.727273 51.936529 
L 194.454545 51.825608 
L 194.454545 51.640701 
L 195.818182 51.640701 
L 195.818182 51.440471 
L 199.909091 51.347779 
L 199.909091 51.226998 
L 201.272727 51.226998 
L 201.272727 51.102779 
L 204 50.99523 
L 204 50.824849 
L 205.363636 50.824849 
L 205.363636 50.70393 
L 208.090909 50.614959 
L 208.090909 50.473865 
L 209.454545 50.473865 
L 209.454545 50.361171 
L 212.181818 50.262816 
L 212.181818 50.168607 
L 214.909091 50.066551 
L 214.909091 49.979364 
L 219 49.879044 
L 219 49.822883 
L 224.454545 49.721882 
L 224.454545 49.688421 
L 231.272727 49.583473 
L 231.272727 49.560745 
L 244.909091 49.454961 
L 244.909091 49.440661 
L 261.272727 49.351199 
L 261.272727 49.316828 
L 266.727273 49.228366 
L 266.727273 49.199369 
L 274.909091 49.112835 
L 274.909091 49.081178 
L 283.090909 48.986749 
L 283.090909 48.968156 
L 285.818182 48.929115 
L 285.818182 48.852416 
L 289.909091 48.758967 
L 289.909091 48.733097 
L 294 48.663454 
L 294 48.616955 
L 298.090909 48.543339 
L 298.090909 48.495471 
L 302.181818 48.406859 
L 302.181818 48.371613 
L 306.272727 48.283991 
L 306.272727 48.232666 
L 311.727273 48.125296 
L 311.727273 48.094553 
L 315.818182 48.002837 
L 315.818182 47.959048 
L 319.909091 47.85696 
L 319.909091 47.841949 
L 325.363636 47.732199 
L 325.363636 47.698181 
L 329.454545 47.600205 
L 329.454545 47.564012 
L 333.545455 47.484291 
L 333.545455 47.438265 
L 337.636364 47.331618 
L 337.636364 47.280357 
L 341.727273 47.20516 
L 341.727273 47.152828 
L 347.181818 47.046443 
L 347.181818 47.010391 
L 352.636364 46.901321 
L 352.636364 46.852026 
L 358.090909 46.745309 
L 358.090909 46.724568 
L 362.181818 46.638829 
L 362.181818 46.592272 
L 364.909091 46.560034 
L 364.909091 46.471671 
L 370.363636 46.38556 
L 370.363636 46.34853 
L 378.545455 46.242762 
L 378.545455 46.216859 
L 385.363636 46.111592 
L 385.363636 46.084493 
L 390.818182 45.997624 
L 390.818182 45.955933 
L 393.545455 45.879661 
L 393.545455 45.757842 
L 394.909091 45.757842 
L 394.909091 45.556097 
L 396.272727 45.556097 
L 396.272727 45.415847 
L 397.636364 45.415847 
L 397.636364 45.243192 
L 399 45.243192 
L 399 45.038298 
L 400.363636 45.038298 
L 400.363636 44.8432 
L 401.727273 44.8432 
L 401.727273 44.627783 
L 403.090909 44.627783 
L 403.090909 44.411346 
L 404.454545 44.411346 
L 404.454545 44.158017 
L 405.818182 44.158017 
L 405.818182 43.991494 
L 407.181818 43.991494 
L 407.181818 43.818894 
L 408.545455 43.818894 
L 408.545455 43.624904 
L 409.909091 43.624904 
L 409.909091 43.363059 
L 411.272727 43.363059 
L 411.272727 43.147514 
L 412.636364 43.147514 
L 412.636364 42.963242 
L 414 42.963242 
L 414 42.795377 
L 415.363636 42.795377 
L 415.363636 42.658066 
L 416.727273 42.658066 
L 416.727273 42.529519 
L 418.090909 42.529519 
L 418.090909 42.385273 
L 420.818182 42.281109 
L 420.818182 42.176344 
L 423.545455 42.088231 
L 423.545455 42.001338 
L 426.272727 41.939837 
L 426.272727 41.869969 
L 429 41.790371 
L 429 41.711851 
L 431.727273 41.623368 
L 431.727273 41.555481 
L 434.454545 41.495432 
L 434.454545 41.441618 
L 438.545455 41.334287 
L 438.545455 41.259921 
L 441.272727 41.199054 
L 441.272727 41.146191 
L 446.727273 41.044548 
L 446.727273 40.992422 
L 449.454545 40.933487 
L 449.454545 40.880013 
L 454.909091 40.78404 
L 454.909091 40.766428 
L 459 40.678787 
L 459 40.649881 
L 464.454545 40.553166 
L 464.454545 40.519153 
L 469.909091 40.412362 
L 469.909091 40.380124 
L 474 40.311042 
L 474 40.265818 
L 479.454545 40.16452 
L 479.454545 40.132564 
L 484.909091 40.034649 
L 484.909091 39.995294 
L 487.636364 39.944043 
L 487.636364 39.877644 
L 493.090909 39.768428 
L 493.090909 39.731279 
L 497.181818 39.635611 
L 497.181818 39.588088 
L 501.272727 39.484586 
L 501.272727 39.444688 
L 505.363636 39.365733 
L 505.363636 39.314898 
L 509.454545 39.220363 
L 509.454545 39.16299 
L 513.545455 39.072923 
L 513.545455 39.015129 
L 516.272727 38.958816 
L 516.272727 38.884049 
L 519 38.804364 
L 519 38.7241 
L 521.727273 38.638694 
L 521.727273 38.551677 
L 523.090909 38.551677 
L 523.090909 38.433846 
L 524.454545 38.433846 
L 524.454545 38.306158 
L 525.818182 38.306158 
L 525.818182 38.172623 
L 527.181818 38.172623 
L 527.181818 38.032387 
L 528.545455 38.032387 
L 528.545455 37.913901 
L 531.272727 37.817546 
L 531.272727 37.694691 
L 532.636364 37.694691 
L 532.636364 37.561778 
L 534 37.561778 
L 534 37.361982 
L 535.363636 37.361982 
L 535.363636 37.170429 
L 536.727273 37.170429 
L 536.727273 37.008766 
L 538.090909 37.008766 
L 538.090909 36.862098 
L 539.454545 36.862098 
L 539.454545 36.740444 
L 540.818182 36.740444 
L 540.818182 36.596662 
L 542.181818 36.596662 
L 542.181818 36.435995 
L 543.545455 36.435995 
L 543.545455 36.268728 
L 544.909091 36.268728 
L 544.909091 36.077053 
L 546.272727 36.077053 
L 546.272727 35.902336 
L 547.636364 35.902336 
L 547.636364 35.716317 
L 549 35.716317 
L 549 35.537999 
L 550.363636 35.537999 
L 550.363636 35.368478 
L 551.727273 35.368478 
L 551.727273 35.178409 
L 553.090909 35.178409 
L 553.090909 34.994586 
L 554.454545 34.994586 
L 554.454545 34.807869 
L 555.818182 34.807869 
L 555.818182 34.555161 
L 557.181818 34.555161 
L 557.181818 34.28759 
L 558.545455 34.28759 
L 558.545455 34.104855 
L 559.909091 34.104855 
L 559.909091 33.884962 
L 561.272727 33.884962 
L 561.272727 33.621462 
L 562.636364 33.621462 
L 562.636364 33.379958 
L 564 33.379958 
L 564 33.131868 
L 565.363636 33.131868 
L 565.363636 32.890844 
L 566.727273 32.890844 
L 566.727273 32.646156 
L 568.090909 32.646156 
L 568.090909 32.443406 
L 569.454545 32.443406 
L 569.454545 32.256485 
L 570.818182 32.256485 
L 570.818182 32.026439 
L 572.181818 32.026439 
L 572.181818 31.823032 
L 573.545455 31.823032 
L 573.545455 31.572309 
L 574.909091 31.572309 
L 574.909091 31.347781 
L 576.272727 31.347781 
L 576.272727 31.158973 
L 577.636364 31.158973 
L 577.636364 31.00414 
L 579 31.00414 
L 579 30.807078 
L 580.363636 30.807078 
L 580.363636 30.612941 
L 581.727273 30.612941 
L 581.727273 30.436805 
L 583.090909 30.436805 
L 583.090909 30.252429 
L 584.454545 30.252429 
L 584.454545 30.106987 
L 585.818182 30.106987 
L 585.818182 29.993427 
L 587.181818 29.993427 
L 587.181818 29.81783 
L 588.545455 29.81783 
L 588.545455 29.696393 
L 589.909091 29.696393 
L 589.909091 29.555588 
L 591.272727 29.555588 
L 591.272727 29.411793 
L 594 29.301748 
L 594 29.197797 
L 596.727273 29.090985 
L 596.727273 29.019291 
L 599.454545 28.934345 
L 599.454545 28.8463 
L 602.181818 28.765935 
L 602.181818 28.686617 
L 604.909091 28.597778 
L 604.909091 28.518599 
L 607.636364 28.459739 
L 607.636364 28.401643 
L 610.363636 28.341314 
L 610.363636 28.281761 
L 613.090909 28.230803 
L 613.090909 28.167436 
L 615.818182 28.109986 
L 615.818182 28.046293 
L 618.545455 27.994967 
L 618.545455 27.915122 
L 621.272727 27.843983 
L 621.272727 27.777273 
L 622.636364 27.777273 
L 622.636364 27.777273 
" style="fill:none;stroke:#348abd;stroke-linecap:square;stroke-width:3;"/>
   </g>
   <g id="line2d_23">
    <path clip-path="url(#p52310ecfbc)" d="M 153.545455 181 
L 153.545455 151.322727 
L 154.909091 151.322727 
L 154.909091 143.715226 
L 157.636364 143.715226 
L 157.636364 131.657623 
L 159 131.657623 
L 159 128.500225 
L 160.363636 128.500225 
L 160.363636 126.051156 
L 161.727273 126.051156 
L 161.727273 124.050122 
L 163.090909 124.050122 
L 163.090909 123.171629 
L 165.818182 123.171629 
L 165.818182 120.892724 
L 167.181818 120.892724 
L 167.181818 120.22735 
L 168.545455 120.22735 
L 168.545455 114.750771 
L 171.272727 114.750771 
L 171.272727 112.301702 
L 174 112.301702 
L 174 110.300668 
L 175.363636 110.300668 
L 175.363636 109.790097 
L 176.727273 109.790097 
L 176.727273 108.387086 
L 178.090909 108.387086 
L 178.090909 107.747567 
L 179.454545 107.747567 
L 179.454545 107.542416 
L 180.818182 107.542416 
L 180.818182 106.386052 
L 182.181818 106.386052 
L 182.181818 105.339994 
L 184.909091 105.339994 
L 184.909091 104.385017 
L 186.272727 104.385017 
L 186.272727 103.936984 
L 189 103.936984 
L 189 103.092313 
L 190.363636 103.092313 
L 190.363636 102.693167 
L 191.727273 102.693167 
L 191.727273 101.814674 
L 193.090909 101.814674 
L 193.090909 101.458687 
L 194.454545 101.458687 
L 194.454545 100.562246 
L 195.818182 100.562246 
L 195.818182 99.634203 
L 198.545455 99.634203 
L 198.545455 98.778551 
L 199.909091 98.778551 
L 199.909091 98.243064 
L 201.272727 98.243064 
L 201.272727 97.815956 
L 202.636364 97.815956 
L 202.636364 97.165377 
L 204 97.165377 
L 204 96.777517 
L 205.363636 96.777517 
L 205.363636 96.184112 
L 206.727273 96.184112 
L 206.727273 95.759209 
L 208.090909 95.759209 
L 208.090909 95.484812 
L 209.454545 95.484812 
L 209.454545 95.283425 
L 210.818182 95.283425 
L 210.818182 95.020531 
L 212.181818 95.020531 
L 212.181818 94.700528 
L 213.545455 94.700528 
L 213.545455 94.512912 
L 214.909091 94.512912 
L 214.909091 94.147034 
L 216.272727 94.147034 
L 216.272727 93.96857 
L 217.636364 93.96857 
L 217.636364 93.620118 
L 219 93.620118 
L 219 93.172085 
L 220.363636 93.172085 
L 220.363636 92.954745 
L 221.727273 92.954745 
L 221.727273 92.741625 
L 223.090909 92.741625 
L 223.090909 92.584459 
L 224.454545 92.584459 
L 224.454545 92.42951 
L 225.818182 92.42951 
L 225.818182 92.27672 
L 227.181818 92.27672 
L 227.181818 92.026702 
L 228.545455 92.026702 
L 228.545455 91.87938 
L 229.909091 91.87938 
L 229.909091 91.685978 
L 232.636364 91.638155 
L 232.636364 91.54313 
L 235.363636 91.448921 
L 235.363636 91.355513 
L 239.454545 91.262894 
L 239.454545 91.17105 
L 243.545455 91.079968 
L 243.545455 91.034709 
L 246.272727 90.989636 
L 246.272727 90.900041 
L 250.363636 90.811172 
L 250.363636 90.723016 
L 254.454545 90.635563 
L 254.454545 90.548802 
L 264 90.46272 
L 264 90.377309 
L 269.454545 90.292557 
L 269.454545 90.208455 
L 279 90.124992 
L 279 90.042159 
L 283.090909 90.000976 
L 283.090909 89.91907 
L 292.636364 89.837771 
L 292.636364 89.797347 
L 303.545455 89.716941 
L 303.545455 89.63712 
L 313.090909 89.557876 
L 313.090909 89.518467 
L 324 89.440072 
L 324 89.401083 
L 340.363636 89.323519 
L 340.363636 89.284941 
L 344.454545 89.208191 
L 344.454545 89.170016 
L 352.636364 89.131973 
L 352.636364 89.056281 
L 355.363636 88.981107 
L 355.363636 88.943713 
L 360.818182 88.869304 
L 360.818182 88.832287 
L 373.090909 88.721982 
L 373.090909 88.685458 
L 385.363636 88.576612 
L 385.363636 88.540568 
L 401.727273 88.468834 
L 401.727273 88.397565 
L 409.909091 88.291523 
L 409.909091 88.256402 
L 412.636364 88.151708 
L 412.636364 87.979408 
L 418.090909 87.877311 
L 418.090909 87.809771 
L 420.818182 87.709233 
L 420.818182 87.642716 
L 424.909091 87.54369 
L 424.909091 87.478165 
L 426.272727 87.478165 
L 426.272727 87.316046 
L 429 87.219911 
L 429 87.156286 
L 430.363636 87.156286 
L 430.363636 87.030131 
L 431.727273 87.030131 
L 431.727273 86.874451 
L 434.454545 86.782091 
L 434.454545 86.629866 
L 435.818182 86.629866 
L 435.818182 86.509587 
L 438.545455 86.509587 
L 438.545455 86.361069 
L 439.909091 86.361069 
L 439.909091 86.214534 
L 442.636364 86.185461 
L 442.636364 86.041236 
L 445.363636 85.984073 
L 445.363636 85.898883 
L 448.090909 85.898883 
L 448.090909 85.758352 
L 450.818182 85.70264 
L 450.818182 85.592056 
L 453.545455 85.53718 
L 453.545455 85.401177 
L 456.272727 85.374177 
L 456.272727 85.21356 
L 460.363636 85.134125 
L 460.363636 85.029097 
L 465.818182 84.976958 
L 465.818182 84.89921 
L 469.909091 84.82201 
L 469.909091 84.770843 
L 475.363636 84.669219 
L 475.363636 84.568527 
L 479.454545 84.49361 
L 479.454545 84.443948 
L 484.909091 84.345293 
L 484.909091 84.271879 
L 487.636364 84.198953 
L 487.636364 84.150604 
L 493.090909 84.102467 
L 493.090909 84.030654 
L 499.909091 83.935629 
L 499.909091 83.888424 
L 502.636364 83.84142 
L 502.636364 83.748013 
L 508.090909 83.655393 
L 508.090909 83.63236 
L 512.181818 83.563549 
L 512.181818 83.449815 
L 517.636364 83.382135 
L 517.636364 83.29254 
L 524.454545 83.203671 
L 524.454545 83.159505 
L 528.545455 83.049861 
L 528.545455 83.006308 
L 532.636364 82.898176 
L 532.636364 82.833804 
L 536.727273 82.769808 
L 536.727273 82.642925 
L 543.545455 82.559143 
L 543.545455 82.496724 
L 544.909091 82.496724 
L 544.909091 82.352446 
L 547.636364 82.270845 
L 547.636364 82.169689 
L 550.363636 82.089431 
L 550.363636 82.02962 
L 553.090909 81.950375 
L 553.090909 81.793582 
L 554.454545 81.793582 
L 554.454545 81.638998 
L 555.818182 81.638998 
L 555.818182 81.524472 
L 558.545455 81.486561 
L 558.545455 81.354893 
L 559.909091 81.354893 
L 559.909091 81.114481 
L 561.272727 81.114481 
L 561.272727 80.897141 
L 562.636364 80.897141 
L 562.636364 80.50953 
L 564 80.50953 
L 564 80.32074 
L 565.363636 80.32074 
L 565.363636 80.085065 
L 566.727273 80.085065 
L 566.727273 79.838048 
L 568.090909 79.838048 
L 568.090909 79.454033 
L 569.454545 79.454033 
L 569.454545 79.083002 
L 570.818182 79.083002 
L 570.818182 78.827576 
L 572.181818 78.827576 
L 572.181818 78.57796 
L 573.545455 78.57796 
L 573.545455 78.333895 
L 574.909091 78.333895 
L 574.909091 78.053539 
L 576.272727 78.053539 
L 576.272727 77.847875 
L 577.636364 77.847875 
L 577.636364 77.699467 
L 579 77.699467 
L 579 77.176111 
L 580.363636 77.176111 
L 580.363636 76.923504 
L 581.727273 76.923504 
L 581.727273 76.664378 
L 583.090909 76.664378 
L 583.090909 76.459001 
L 584.454545 76.459001 
L 584.454545 76.163789 
L 585.818182 76.163789 
L 585.818182 75.933207 
L 587.181818 75.933207 
L 587.181818 75.718552 
L 588.545455 75.718552 
L 588.545455 75.431455 
L 589.909091 75.431455 
L 589.909091 75.215611 
L 591.272727 75.215611 
L 591.272727 75.014418 
L 592.636364 75.014418 
L 592.636364 74.653186 
L 594 74.653186 
L 594 74.461957 
L 595.363636 74.461957 
L 595.363636 74.21531 
L 596.727273 74.21531 
L 596.727273 74.06994 
L 598.090909 74.06994 
L 598.090909 73.831854 
L 599.454545 73.831854 
L 599.454545 73.645036 
L 602.181818 73.552806 
L 602.181818 73.352588 
L 603.545455 73.352588 
L 603.545455 73.182563 
L 604.909091 73.182563 
L 604.909091 73.06773 
L 606.272727 73.06773 
L 606.272727 72.936706 
L 607.636364 72.936706 
L 607.636364 72.772957 
L 609 72.772957 
L 609 72.628487 
L 610.363636 72.628487 
L 610.363636 72.494231 
L 613.090909 72.394606 
L 613.090909 72.320476 
L 615.818182 72.222409 
L 615.818182 72.133277 
L 618.545455 72.044863 
L 618.545455 71.988968 
L 621.272727 71.925435 
L 621.272727 71.822972 
L 622.636364 71.822972 
L 622.636364 71.822972 
" style="fill:none;stroke:#e24a33;stroke-linecap:square;stroke-width:3;"/>
   </g>
   <g id="patch_3">
    <path d="M 90 157.5 
L 90 21.6 
" style="fill:none;stroke:#ffffff;stroke-linecap:square;stroke-linejoin:miter;"/>
   </g>
   <g id="patch_4">
    <path d="M 648 157.5 
L 648 21.6 
" style="fill:none;stroke:#ffffff;stroke-linecap:square;stroke-linejoin:miter;"/>
   </g>
   <g id="patch_5">
    <path d="M 90 157.5 
L 648 157.5 
" style="fill:none;stroke:#ffffff;stroke-linecap:square;stroke-linejoin:miter;"/>
   </g>
   <g id="patch_6">
    <path d="M 90 21.6 
L 648 21.6 
" style="fill:none;stroke:#ffffff;stroke-linecap:square;stroke-linejoin:miter;"/>
   </g>
   <g id="legend_1">
    <g id="patch_7">
     <path d="M 514 152.5 
L 641 152.5 
Q 643 152.5 643 150.5 
L 643 124.11875 
Q 643 122.11875 641 122.11875 
L 514 122.11875 
Q 512 122.11875 512 124.11875 
L 512 150.5 
Q 512 152.5 514 152.5 
z
" style="fill:#e5e5e5;opacity:0.8;stroke:#cccccc;stroke-linejoin:miter;stroke-width:0.5;"/>
    </g>
    <g id="line2d_24">
     <path d="M 516 129.61875 
L 536 129.61875 
" style="fill:none;stroke:#348abd;stroke-linecap:square;stroke-width:3;"/>
    </g>
    <g id="line2d_25"/>
    <g id="text_14">
     <!-- Korea, South cases -->
     <g transform="translate(544 133.11875)scale(0.1 -0.1)">
      <defs>
       <path d="M 4.203125 62.296875 
L 4.203125 0 
L 11.59375 0 
L 11.59375 25.796875 
L 16.5 31.09375 
L 38.203125 -0.5 
C 38.203125 -0.5 42.09375 -0.09375 47.09375 -0.09375 
L 21.90625 35.296875 
L 45.40625 62.296875 
L 42.796875 62.296875 
C 41.09375 62.296875 39.40625 62.296875 37.703125 62.796875 
L 11.59375 33.5 
L 11.59375 59.796875 
C 11.59375 60.203125 11.59375 60.5 12 60.90625 
C 12.203125 61.203125 12.703125 61.703125 12.5 62.296875 
z
" id="Inconsolata-75"/>
       <path d="M 30.5 1.90625 
C 30.5 7 27.09375 10.203125 23.59375 10.203125 
C 20.296875 10.203125 17.796875 7.5 17.796875 4.5 
C 17.796875 1.796875 19.703125 0.703125 20.59375 0.09375 
C 21.5 -0.5 22.90625 -1.40625 22.90625 -3.5 
C 22.90625 -5.09375 22 -6.796875 21.5 -7.59375 
C 20.5 -9.203125 18.796875 -11.703125 16.40625 -13.90625 
L 19.90625 -16.90625 
C 26.90625 -9.796875 30.5 -3.296875 30.5 1.90625 
z
" id="Inconsolata-44"/>
       <path d="M 43.40625 54.796875 
C 39.203125 59.90625 33 62.59375 26.203125 62.59375 
C 14.90625 62.59375 7.203125 55.203125 7.203125 46.59375 
C 7.203125 43 8.59375 38.296875 13.796875 34.5 
C 19.59375 30.203125 28.59375 28.09375 33.296875 25.09375 
C 37.40625 22.59375 38.5 19.296875 38.5 16.5 
C 38.5 11.09375 33.90625 5.203125 24.90625 5.203125 
C 18.09375 5.203125 12.796875 8.59375 10 12.09375 
C 9.703125 12.5 9.703125 12.703125 9.703125 13.09375 
C 9.703125 13.296875 9.703125 13.90625 9.296875 14.09375 
L 5.09375 6.90625 
C 10 1.59375 17 -1.09375 24.703125 -1.09375 
C 39.90625 -1.09375 45.5 9.09375 45.5 16.90625 
C 45.5 20.203125 44.5 24.5 40.59375 28.203125 
C 35.203125 33.296875 26.40625 35.09375 20.703125 38.40625 
C 15.5 41.5 14.40625 45.203125 14.40625 47.703125 
C 14.40625 52.5 18.5 56.796875 25.59375 56.796875 
C 31.40625 56.796875 35.90625 54.203125 38.296875 50.703125 
C 38.59375 50.296875 38.5 50.09375 38.5 49.703125 
C 38.5 49.09375 38.796875 48.90625 39 48.90625 
z
" id="Inconsolata-83"/>
       <path d="M 6.90625 0 
L 14.296875 0 
L 14.296875 26.296875 
C 14.296875 29.296875 14.59375 31.59375 16.5 34.09375 
C 18.296875 36.40625 22.703125 40.5 27.5 40.5 
C 29.796875 40.5 32.09375 39.5 33.703125 37.59375 
C 36.203125 34.59375 36.203125 30.703125 36.203125 27.5 
L 36.203125 0 
L 43.296875 0 
L 43.296875 27.703125 
C 43.296875 31.203125 43.203125 35 41.59375 38.703125 
C 39.296875 43.796875 34.703125 46.703125 29.5 46.703125 
C 23.296875 46.703125 17.59375 42.703125 14.296875 37.59375 
L 14.296875 64.09375 
C 14.296875 64.40625 14.296875 64.703125 14.59375 65 
C 14.90625 65.296875 15.296875 65.59375 15.296875 66.09375 
C 15.296875 66.203125 15.296875 66.296875 15.203125 66.40625 
L 6.90625 66.40625 
z
" id="Inconsolata-104"/>
       <path d="M 45.59375 38.09375 
C 42 43.40625 35.90625 46.59375 28.5 46.59375 
C 15.09375 46.59375 5.59375 36.5 5.59375 22.796875 
C 5.59375 9 15.09375 -1.203125 28.09375 -1.203125 
C 34.40625 -1.203125 40.59375 1.40625 44.90625 6.09375 
L 40.796875 10.90625 
C 37.703125 7.40625 33.203125 5.40625 28.703125 5.40625 
C 19.796875 5.40625 13 12.796875 13 23.5 
C 13 33.90625 19.703125 40.40625 28.09375 40.40625 
C 35.90625 40.40625 39.59375 35 39.90625 34.40625 
C 40.296875 33.703125 39.703125 32.703125 40.5 32.09375 
z
" id="Inconsolata-99"/>
      </defs>
      <use xlink:href="#Inconsolata-75"/>
      <use x="49.999985" xlink:href="#Inconsolata-111"/>
      <use x="99.999969" xlink:href="#Inconsolata-114"/>
      <use x="149.999954" xlink:href="#Inconsolata-101"/>
      <use x="199.999939" xlink:href="#Inconsolata-97"/>
      <use x="249.999924" xlink:href="#Inconsolata-44"/>
      <use x="299.999908" xlink:href="#Inconsolata-32"/>
      <use x="349.999893" xlink:href="#Inconsolata-83"/>
      <use x="399.999878" xlink:href="#Inconsolata-111"/>
      <use x="449.999863" xlink:href="#Inconsolata-117"/>
      <use x="499.999847" xlink:href="#Inconsolata-116"/>
      <use x="549.999832" xlink:href="#Inconsolata-104"/>
      <use x="599.999817" xlink:href="#Inconsolata-32"/>
      <use x="649.999802" xlink:href="#Inconsolata-99"/>
      <use x="699.999786" xlink:href="#Inconsolata-97"/>
      <use x="749.999771" xlink:href="#Inconsolata-115"/>
      <use x="799.999756" xlink:href="#Inconsolata-101"/>
      <use x="849.999741" xlink:href="#Inconsolata-115"/>
     </g>
    </g>
    <g id="line2d_26">
     <path d="M 516 143.309375 
L 536 143.309375 
" style="fill:none;stroke:#e24a33;stroke-linecap:square;stroke-width:3;"/>
    </g>
    <g id="line2d_27"/>
    <g id="text_15">
     <!-- Korea, South deaths -->
     <g transform="translate(544 146.809375)scale(0.1 -0.1)">
      <defs>
       <path d="M 37.09375 39 
C 34.90625 43.703125 30 46.796875 23.703125 46.796875 
C 15 46.796875 4.40625 40.59375 4.40625 23.203125 
C 4.40625 6.296875 13.796875 -1.09375 22.59375 -1.09375 
C 28.40625 -1.09375 33.796875 2.203125 36.703125 7.296875 
L 36.703125 3.296875 
C 36.703125 2.203125 36.796875 1.09375 37.09375 0 
L 44.296875 0 
C 43.90625 1.296875 43.90625 2.796875 43.90625 4.203125 
L 43.796875 63.59375 
C 43.796875 64.203125 43.796875 64.40625 44.203125 65 
C 44.40625 65.296875 44.796875 65.796875 44.703125 66.5 
L 37.09375 66.5 
z
M 24 40.90625 
C 28 40.90625 33.90625 38.796875 35.703125 32 
C 36.296875 29.90625 36.5 27.40625 36.5 22.296875 
C 36.5 18.796875 36.296875 16.296875 35.5 13.90625 
C 33.796875 8.5 29 5.296875 24.296875 5.296875 
C 19.09375 5.296875 11.40625 9.296875 11.40625 24.296875 
C 11.40625 37.40625 18.703125 40.90625 24 40.90625 
z
" id="Inconsolata-100"/>
      </defs>
      <use xlink:href="#Inconsolata-75"/>
      <use x="49.999985" xlink:href="#Inconsolata-111"/>
      <use x="99.999969" xlink:href="#Inconsolata-114"/>
      <use x="149.999954" xlink:href="#Inconsolata-101"/>
      <use x="199.999939" xlink:href="#Inconsolata-97"/>
      <use x="249.999924" xlink:href="#Inconsolata-44"/>
      <use x="299.999908" xlink:href="#Inconsolata-32"/>
      <use x="349.999893" xlink:href="#Inconsolata-83"/>
      <use x="399.999878" xlink:href="#Inconsolata-111"/>
      <use x="449.999863" xlink:href="#Inconsolata-117"/>
      <use x="499.999847" xlink:href="#Inconsolata-116"/>
      <use x="549.999832" xlink:href="#Inconsolata-104"/>
      <use x="599.999817" xlink:href="#Inconsolata-32"/>
      <use x="649.999802" xlink:href="#Inconsolata-100"/>
      <use x="699.999786" xlink:href="#Inconsolata-101"/>
      <use x="749.999771" xlink:href="#Inconsolata-97"/>
      <use x="799.999756" xlink:href="#Inconsolata-116"/>
      <use x="849.999741" xlink:href="#Inconsolata-104"/>
      <use x="899.999725" xlink:href="#Inconsolata-115"/>
     </g>
    </g>
   </g>
  </g>
 </g>
 <defs>
  <clipPath id="p52310ecfbc">
   <rect height="135.9" width="558" x="90" y="21.6"/>
  </clipPath>
 </defs>
</svg>
