<?xml version="1.0" encoding="utf-8" standalone="no"?>
<!DOCTYPE svg PUBLIC "-//W3C//DTD SVG 1.1//EN"
  "http://www.w3.org/Graphics/SVG/1.1/DTD/svg11.dtd">
<!-- Created with matplotlib (https://matplotlib.org/) -->
<svg height="432pt" version="1.1" viewBox="0 0 720 432" width="720pt" xmlns="http://www.w3.org/2000/svg" xmlns:xlink="http://www.w3.org/1999/xlink">
 <metadata>
  <rdf:RDF xmlns:cc="http://creativecommons.org/ns#" xmlns:dc="http://purl.org/dc/elements/1.1/" xmlns:rdf="http://www.w3.org/1999/02/22-rdf-syntax-ns#">
   <cc:Work>
    <dc:type rdf:resource="http://purl.org/dc/dcmitype/StillImage"/>
    <dc:date>2021-01-28T10:16:38.080958</dc:date>
    <dc:format>image/svg+xml</dc:format>
    <dc:creator>
     <cc:Agent>
      <dc:title>Matplotlib v3.3.4, https://matplotlib.org/</dc:title>
     </cc:Agent>
    </dc:creator>
   </cc:Work>
  </rdf:RDF>
 </metadata>
 <defs>
  <style type="text/css">*{stroke-linecap:butt;stroke-linejoin:round;}</style>
 </defs>
 <g id="figure_1">
  <g id="patch_1">
   <path d="M 0 432 
L 720 432 
L 720 0 
L 0 0 
z
" style="fill:#ffffff;"/>
  </g>
  <g id="axes_1">
   <g id="patch_2">
    <path d="M 90 378 
L 648 378 
L 648 229.745455 
L 90 229.745455 
z
" style="fill:#e5e5e5;"/>
   </g>
   <g id="matplotlib.axis_1">
    <g id="xtick_1">
     <g id="line2d_1">
      <path clip-path="url(#pd7451a1fe6)" d="M 91.578724 378 
L 91.578724 229.745455 
" style="fill:none;stroke:#ffffff;stroke-linecap:square;stroke-width:0.8;"/>
     </g>
     <g id="line2d_2">
      <defs>
       <path d="M 0 0 
L 0 3.5 
" id="mbf05898fa8" style="stroke:#555555;stroke-width:0.8;"/>
      </defs>
      <g>
       <use style="fill:#555555;stroke:#555555;stroke-width:0.8;" x="91.578724" xlink:href="#mbf05898fa8" y="378"/>
      </g>
     </g>
     <g id="text_1">
      <!-- 0 -->
      <g style="fill:#555555;" transform="translate(88.397474 392.598437)scale(0.1 -0.1)">
       <defs>
        <path d="M 31.78125 66.40625 
Q 24.171875 66.40625 20.328125 58.90625 
Q 16.5 51.421875 16.5 36.375 
Q 16.5 21.390625 20.328125 13.890625 
Q 24.171875 6.390625 31.78125 6.390625 
Q 39.453125 6.390625 43.28125 13.890625 
Q 47.125 21.390625 47.125 36.375 
Q 47.125 51.421875 43.28125 58.90625 
Q 39.453125 66.40625 31.78125 66.40625 
z
M 31.78125 74.21875 
Q 44.046875 74.21875 50.515625 64.515625 
Q 56.984375 54.828125 56.984375 36.375 
Q 56.984375 17.96875 50.515625 8.265625 
Q 44.046875 -1.421875 31.78125 -1.421875 
Q 19.53125 -1.421875 13.0625 8.265625 
Q 6.59375 17.96875 6.59375 36.375 
Q 6.59375 54.828125 13.0625 64.515625 
Q 19.53125 74.21875 31.78125 74.21875 
z
" id="DejaVuSans-48"/>
       </defs>
       <use xlink:href="#DejaVuSans-48"/>
      </g>
     </g>
    </g>
    <g id="xtick_2">
     <g id="line2d_3">
      <path clip-path="url(#pd7451a1fe6)" d="M 170.514924 378 
L 170.514924 229.745455 
" style="fill:none;stroke:#ffffff;stroke-linecap:square;stroke-width:0.8;"/>
     </g>
     <g id="line2d_4">
      <g>
       <use style="fill:#555555;stroke:#555555;stroke-width:0.8;" x="170.514924" xlink:href="#mbf05898fa8" y="378"/>
      </g>
     </g>
     <g id="text_2">
      <!-- 50 -->
      <g style="fill:#555555;" transform="translate(164.152424 392.598437)scale(0.1 -0.1)">
       <defs>
        <path d="M 10.796875 72.90625 
L 49.515625 72.90625 
L 49.515625 64.59375 
L 19.828125 64.59375 
L 19.828125 46.734375 
Q 21.96875 47.46875 24.109375 47.828125 
Q 26.265625 48.1875 28.421875 48.1875 
Q 40.625 48.1875 47.75 41.5 
Q 54.890625 34.8125 54.890625 23.390625 
Q 54.890625 11.625 47.5625 5.09375 
Q 40.234375 -1.421875 26.90625 -1.421875 
Q 22.3125 -1.421875 17.546875 -0.640625 
Q 12.796875 0.140625 7.71875 1.703125 
L 7.71875 11.625 
Q 12.109375 9.234375 16.796875 8.0625 
Q 21.484375 6.890625 26.703125 6.890625 
Q 35.15625 6.890625 40.078125 11.328125 
Q 45.015625 15.765625 45.015625 23.390625 
Q 45.015625 31 40.078125 35.4375 
Q 35.15625 39.890625 26.703125 39.890625 
Q 22.75 39.890625 18.8125 39.015625 
Q 14.890625 38.140625 10.796875 36.28125 
z
" id="DejaVuSans-53"/>
       </defs>
       <use xlink:href="#DejaVuSans-53"/>
       <use x="63.623047" xlink:href="#DejaVuSans-48"/>
      </g>
     </g>
    </g>
    <g id="xtick_3">
     <g id="line2d_5">
      <path clip-path="url(#pd7451a1fe6)" d="M 249.451125 378 
L 249.451125 229.745455 
" style="fill:none;stroke:#ffffff;stroke-linecap:square;stroke-width:0.8;"/>
     </g>
     <g id="line2d_6">
      <g>
       <use style="fill:#555555;stroke:#555555;stroke-width:0.8;" x="249.451125" xlink:href="#mbf05898fa8" y="378"/>
      </g>
     </g>
     <g id="text_3">
      <!-- 100 -->
      <g style="fill:#555555;" transform="translate(239.907375 392.598437)scale(0.1 -0.1)">
       <defs>
        <path d="M 12.40625 8.296875 
L 28.515625 8.296875 
L 28.515625 63.921875 
L 10.984375 60.40625 
L 10.984375 69.390625 
L 28.421875 72.90625 
L 38.28125 72.90625 
L 38.28125 8.296875 
L 54.390625 8.296875 
L 54.390625 0 
L 12.40625 0 
z
" id="DejaVuSans-49"/>
       </defs>
       <use xlink:href="#DejaVuSans-49"/>
       <use x="63.623047" xlink:href="#DejaVuSans-48"/>
       <use x="127.246094" xlink:href="#DejaVuSans-48"/>
      </g>
     </g>
    </g>
    <g id="xtick_4">
     <g id="line2d_7">
      <path clip-path="url(#pd7451a1fe6)" d="M 328.387325 378 
L 328.387325 229.745455 
" style="fill:none;stroke:#ffffff;stroke-linecap:square;stroke-width:0.8;"/>
     </g>
     <g id="line2d_8">
      <g>
       <use style="fill:#555555;stroke:#555555;stroke-width:0.8;" x="328.387325" xlink:href="#mbf05898fa8" y="378"/>
      </g>
     </g>
     <g id="text_4">
      <!-- 150 -->
      <g style="fill:#555555;" transform="translate(318.843575 392.598437)scale(0.1 -0.1)">
       <use xlink:href="#DejaVuSans-49"/>
       <use x="63.623047" xlink:href="#DejaVuSans-53"/>
       <use x="127.246094" xlink:href="#DejaVuSans-48"/>
      </g>
     </g>
    </g>
    <g id="xtick_5">
     <g id="line2d_9">
      <path clip-path="url(#pd7451a1fe6)" d="M 407.323525 378 
L 407.323525 229.745455 
" style="fill:none;stroke:#ffffff;stroke-linecap:square;stroke-width:0.8;"/>
     </g>
     <g id="line2d_10">
      <g>
       <use style="fill:#555555;stroke:#555555;stroke-width:0.8;" x="407.323525" xlink:href="#mbf05898fa8" y="378"/>
      </g>
     </g>
     <g id="text_5">
      <!-- 200 -->
      <g style="fill:#555555;" transform="translate(397.779775 392.598437)scale(0.1 -0.1)">
       <defs>
        <path d="M 19.1875 8.296875 
L 53.609375 8.296875 
L 53.609375 0 
L 7.328125 0 
L 7.328125 8.296875 
Q 12.9375 14.109375 22.625 23.890625 
Q 32.328125 33.6875 34.8125 36.53125 
Q 39.546875 41.84375 41.421875 45.53125 
Q 43.3125 49.21875 43.3125 52.78125 
Q 43.3125 58.59375 39.234375 62.25 
Q 35.15625 65.921875 28.609375 65.921875 
Q 23.96875 65.921875 18.8125 64.3125 
Q 13.671875 62.703125 7.8125 59.421875 
L 7.8125 69.390625 
Q 13.765625 71.78125 18.9375 73 
Q 24.125 74.21875 28.421875 74.21875 
Q 39.75 74.21875 46.484375 68.546875 
Q 53.21875 62.890625 53.21875 53.421875 
Q 53.21875 48.921875 51.53125 44.890625 
Q 49.859375 40.875 45.40625 35.40625 
Q 44.1875 33.984375 37.640625 27.21875 
Q 31.109375 20.453125 19.1875 8.296875 
z
" id="DejaVuSans-50"/>
       </defs>
       <use xlink:href="#DejaVuSans-50"/>
       <use x="63.623047" xlink:href="#DejaVuSans-48"/>
       <use x="127.246094" xlink:href="#DejaVuSans-48"/>
      </g>
     </g>
    </g>
    <g id="xtick_6">
     <g id="line2d_11">
      <path clip-path="url(#pd7451a1fe6)" d="M 486.259726 378 
L 486.259726 229.745455 
" style="fill:none;stroke:#ffffff;stroke-linecap:square;stroke-width:0.8;"/>
     </g>
     <g id="line2d_12">
      <g>
       <use style="fill:#555555;stroke:#555555;stroke-width:0.8;" x="486.259726" xlink:href="#mbf05898fa8" y="378"/>
      </g>
     </g>
     <g id="text_6">
      <!-- 250 -->
      <g style="fill:#555555;" transform="translate(476.715976 392.598437)scale(0.1 -0.1)">
       <use xlink:href="#DejaVuSans-50"/>
       <use x="63.623047" xlink:href="#DejaVuSans-53"/>
       <use x="127.246094" xlink:href="#DejaVuSans-48"/>
      </g>
     </g>
    </g>
    <g id="xtick_7">
     <g id="line2d_13">
      <path clip-path="url(#pd7451a1fe6)" d="M 565.195926 378 
L 565.195926 229.745455 
" style="fill:none;stroke:#ffffff;stroke-linecap:square;stroke-width:0.8;"/>
     </g>
     <g id="line2d_14">
      <g>
       <use style="fill:#555555;stroke:#555555;stroke-width:0.8;" x="565.195926" xlink:href="#mbf05898fa8" y="378"/>
      </g>
     </g>
     <g id="text_7">
      <!-- 300 -->
      <g style="fill:#555555;" transform="translate(555.652176 392.598437)scale(0.1 -0.1)">
       <defs>
        <path d="M 40.578125 39.3125 
Q 47.65625 37.796875 51.625 33 
Q 55.609375 28.21875 55.609375 21.1875 
Q 55.609375 10.40625 48.1875 4.484375 
Q 40.765625 -1.421875 27.09375 -1.421875 
Q 22.515625 -1.421875 17.65625 -0.515625 
Q 12.796875 0.390625 7.625 2.203125 
L 7.625 11.71875 
Q 11.71875 9.328125 16.59375 8.109375 
Q 21.484375 6.890625 26.8125 6.890625 
Q 36.078125 6.890625 40.9375 10.546875 
Q 45.796875 14.203125 45.796875 21.1875 
Q 45.796875 27.640625 41.28125 31.265625 
Q 36.765625 34.90625 28.71875 34.90625 
L 20.21875 34.90625 
L 20.21875 43.015625 
L 29.109375 43.015625 
Q 36.375 43.015625 40.234375 45.921875 
Q 44.09375 48.828125 44.09375 54.296875 
Q 44.09375 59.90625 40.109375 62.90625 
Q 36.140625 65.921875 28.71875 65.921875 
Q 24.65625 65.921875 20.015625 65.03125 
Q 15.375 64.15625 9.8125 62.3125 
L 9.8125 71.09375 
Q 15.4375 72.65625 20.34375 73.4375 
Q 25.25 74.21875 29.59375 74.21875 
Q 40.828125 74.21875 47.359375 69.109375 
Q 53.90625 64.015625 53.90625 55.328125 
Q 53.90625 49.265625 50.4375 45.09375 
Q 46.96875 40.921875 40.578125 39.3125 
z
" id="DejaVuSans-51"/>
       </defs>
       <use xlink:href="#DejaVuSans-51"/>
       <use x="63.623047" xlink:href="#DejaVuSans-48"/>
       <use x="127.246094" xlink:href="#DejaVuSans-48"/>
      </g>
     </g>
    </g>
    <g id="xtick_8">
     <g id="line2d_15">
      <path clip-path="url(#pd7451a1fe6)" d="M 644.132126 378 
L 644.132126 229.745455 
" style="fill:none;stroke:#ffffff;stroke-linecap:square;stroke-width:0.8;"/>
     </g>
     <g id="line2d_16">
      <g>
       <use style="fill:#555555;stroke:#555555;stroke-width:0.8;" x="644.132126" xlink:href="#mbf05898fa8" y="378"/>
      </g>
     </g>
     <g id="text_8">
      <!-- 350 -->
      <g style="fill:#555555;" transform="translate(634.588376 392.598437)scale(0.1 -0.1)">
       <use xlink:href="#DejaVuSans-51"/>
       <use x="63.623047" xlink:href="#DejaVuSans-53"/>
       <use x="127.246094" xlink:href="#DejaVuSans-48"/>
      </g>
     </g>
    </g>
    <g id="text_9">
     <!-- days since 3 deaths -->
     <g style="fill:#555555;" transform="translate(309.255 407.79625)scale(0.12 -0.12)">
      <defs>
       <path d="M 45.40625 46.390625 
L 45.40625 75.984375 
L 54.390625 75.984375 
L 54.390625 0 
L 45.40625 0 
L 45.40625 8.203125 
Q 42.578125 3.328125 38.25 0.953125 
Q 33.9375 -1.421875 27.875 -1.421875 
Q 17.96875 -1.421875 11.734375 6.484375 
Q 5.515625 14.40625 5.515625 27.296875 
Q 5.515625 40.1875 11.734375 48.09375 
Q 17.96875 56 27.875 56 
Q 33.9375 56 38.25 53.625 
Q 42.578125 51.265625 45.40625 46.390625 
z
M 14.796875 27.296875 
Q 14.796875 17.390625 18.875 11.75 
Q 22.953125 6.109375 30.078125 6.109375 
Q 37.203125 6.109375 41.296875 11.75 
Q 45.40625 17.390625 45.40625 27.296875 
Q 45.40625 37.203125 41.296875 42.84375 
Q 37.203125 48.484375 30.078125 48.484375 
Q 22.953125 48.484375 18.875 42.84375 
Q 14.796875 37.203125 14.796875 27.296875 
z
" id="DejaVuSans-100"/>
       <path d="M 34.28125 27.484375 
Q 23.390625 27.484375 19.1875 25 
Q 14.984375 22.515625 14.984375 16.5 
Q 14.984375 11.71875 18.140625 8.90625 
Q 21.296875 6.109375 26.703125 6.109375 
Q 34.1875 6.109375 38.703125 11.40625 
Q 43.21875 16.703125 43.21875 25.484375 
L 43.21875 27.484375 
z
M 52.203125 31.203125 
L 52.203125 0 
L 43.21875 0 
L 43.21875 8.296875 
Q 40.140625 3.328125 35.546875 0.953125 
Q 30.953125 -1.421875 24.3125 -1.421875 
Q 15.921875 -1.421875 10.953125 3.296875 
Q 6 8.015625 6 15.921875 
Q 6 25.140625 12.171875 29.828125 
Q 18.359375 34.515625 30.609375 34.515625 
L 43.21875 34.515625 
L 43.21875 35.40625 
Q 43.21875 41.609375 39.140625 45 
Q 35.0625 48.390625 27.6875 48.390625 
Q 23 48.390625 18.546875 47.265625 
Q 14.109375 46.140625 10.015625 43.890625 
L 10.015625 52.203125 
Q 14.9375 54.109375 19.578125 55.046875 
Q 24.21875 56 28.609375 56 
Q 40.484375 56 46.34375 49.84375 
Q 52.203125 43.703125 52.203125 31.203125 
z
" id="DejaVuSans-97"/>
       <path d="M 32.171875 -5.078125 
Q 28.375 -14.84375 24.75 -17.8125 
Q 21.140625 -20.796875 15.09375 -20.796875 
L 7.90625 -20.796875 
L 7.90625 -13.28125 
L 13.1875 -13.28125 
Q 16.890625 -13.28125 18.9375 -11.515625 
Q 21 -9.765625 23.484375 -3.21875 
L 25.09375 0.875 
L 2.984375 54.6875 
L 12.5 54.6875 
L 29.59375 11.921875 
L 46.6875 54.6875 
L 56.203125 54.6875 
z
" id="DejaVuSans-121"/>
       <path d="M 44.28125 53.078125 
L 44.28125 44.578125 
Q 40.484375 46.53125 36.375 47.5 
Q 32.28125 48.484375 27.875 48.484375 
Q 21.1875 48.484375 17.84375 46.4375 
Q 14.5 44.390625 14.5 40.28125 
Q 14.5 37.15625 16.890625 35.375 
Q 19.28125 33.59375 26.515625 31.984375 
L 29.59375 31.296875 
Q 39.15625 29.25 43.1875 25.515625 
Q 47.21875 21.78125 47.21875 15.09375 
Q 47.21875 7.46875 41.1875 3.015625 
Q 35.15625 -1.421875 24.609375 -1.421875 
Q 20.21875 -1.421875 15.453125 -0.5625 
Q 10.6875 0.296875 5.421875 2 
L 5.421875 11.28125 
Q 10.40625 8.6875 15.234375 7.390625 
Q 20.0625 6.109375 24.8125 6.109375 
Q 31.15625 6.109375 34.5625 8.28125 
Q 37.984375 10.453125 37.984375 14.40625 
Q 37.984375 18.0625 35.515625 20.015625 
Q 33.0625 21.96875 24.703125 23.78125 
L 21.578125 24.515625 
Q 13.234375 26.265625 9.515625 29.90625 
Q 5.8125 33.546875 5.8125 39.890625 
Q 5.8125 47.609375 11.28125 51.796875 
Q 16.75 56 26.8125 56 
Q 31.78125 56 36.171875 55.265625 
Q 40.578125 54.546875 44.28125 53.078125 
z
" id="DejaVuSans-115"/>
       <path id="DejaVuSans-32"/>
       <path d="M 9.421875 54.6875 
L 18.40625 54.6875 
L 18.40625 0 
L 9.421875 0 
z
M 9.421875 75.984375 
L 18.40625 75.984375 
L 18.40625 64.59375 
L 9.421875 64.59375 
z
" id="DejaVuSans-105"/>
       <path d="M 54.890625 33.015625 
L 54.890625 0 
L 45.90625 0 
L 45.90625 32.71875 
Q 45.90625 40.484375 42.875 44.328125 
Q 39.84375 48.1875 33.796875 48.1875 
Q 26.515625 48.1875 22.3125 43.546875 
Q 18.109375 38.921875 18.109375 30.90625 
L 18.109375 0 
L 9.078125 0 
L 9.078125 54.6875 
L 18.109375 54.6875 
L 18.109375 46.1875 
Q 21.34375 51.125 25.703125 53.5625 
Q 30.078125 56 35.796875 56 
Q 45.21875 56 50.046875 50.171875 
Q 54.890625 44.34375 54.890625 33.015625 
z
" id="DejaVuSans-110"/>
       <path d="M 48.78125 52.59375 
L 48.78125 44.1875 
Q 44.96875 46.296875 41.140625 47.34375 
Q 37.3125 48.390625 33.40625 48.390625 
Q 24.65625 48.390625 19.8125 42.84375 
Q 14.984375 37.3125 14.984375 27.296875 
Q 14.984375 17.28125 19.8125 11.734375 
Q 24.65625 6.203125 33.40625 6.203125 
Q 37.3125 6.203125 41.140625 7.25 
Q 44.96875 8.296875 48.78125 10.40625 
L 48.78125 2.09375 
Q 45.015625 0.34375 40.984375 -0.53125 
Q 36.96875 -1.421875 32.421875 -1.421875 
Q 20.0625 -1.421875 12.78125 6.34375 
Q 5.515625 14.109375 5.515625 27.296875 
Q 5.515625 40.671875 12.859375 48.328125 
Q 20.21875 56 33.015625 56 
Q 37.15625 56 41.109375 55.140625 
Q 45.0625 54.296875 48.78125 52.59375 
z
" id="DejaVuSans-99"/>
       <path d="M 56.203125 29.59375 
L 56.203125 25.203125 
L 14.890625 25.203125 
Q 15.484375 15.921875 20.484375 11.0625 
Q 25.484375 6.203125 34.421875 6.203125 
Q 39.59375 6.203125 44.453125 7.46875 
Q 49.3125 8.734375 54.109375 11.28125 
L 54.109375 2.78125 
Q 49.265625 0.734375 44.1875 -0.34375 
Q 39.109375 -1.421875 33.890625 -1.421875 
Q 20.796875 -1.421875 13.15625 6.1875 
Q 5.515625 13.8125 5.515625 26.8125 
Q 5.515625 40.234375 12.765625 48.109375 
Q 20.015625 56 32.328125 56 
Q 43.359375 56 49.78125 48.890625 
Q 56.203125 41.796875 56.203125 29.59375 
z
M 47.21875 32.234375 
Q 47.125 39.59375 43.09375 43.984375 
Q 39.0625 48.390625 32.421875 48.390625 
Q 24.90625 48.390625 20.390625 44.140625 
Q 15.875 39.890625 15.1875 32.171875 
z
" id="DejaVuSans-101"/>
       <path d="M 18.3125 70.21875 
L 18.3125 54.6875 
L 36.8125 54.6875 
L 36.8125 47.703125 
L 18.3125 47.703125 
L 18.3125 18.015625 
Q 18.3125 11.328125 20.140625 9.421875 
Q 21.96875 7.515625 27.59375 7.515625 
L 36.8125 7.515625 
L 36.8125 0 
L 27.59375 0 
Q 17.1875 0 13.234375 3.875 
Q 9.28125 7.765625 9.28125 18.015625 
L 9.28125 47.703125 
L 2.6875 47.703125 
L 2.6875 54.6875 
L 9.28125 54.6875 
L 9.28125 70.21875 
z
" id="DejaVuSans-116"/>
       <path d="M 54.890625 33.015625 
L 54.890625 0 
L 45.90625 0 
L 45.90625 32.71875 
Q 45.90625 40.484375 42.875 44.328125 
Q 39.84375 48.1875 33.796875 48.1875 
Q 26.515625 48.1875 22.3125 43.546875 
Q 18.109375 38.921875 18.109375 30.90625 
L 18.109375 0 
L 9.078125 0 
L 9.078125 75.984375 
L 18.109375 75.984375 
L 18.109375 46.1875 
Q 21.34375 51.125 25.703125 53.5625 
Q 30.078125 56 35.796875 56 
Q 45.21875 56 50.046875 50.171875 
Q 54.890625 44.34375 54.890625 33.015625 
z
" id="DejaVuSans-104"/>
      </defs>
      <use xlink:href="#DejaVuSans-100"/>
      <use x="63.476562" xlink:href="#DejaVuSans-97"/>
      <use x="124.755859" xlink:href="#DejaVuSans-121"/>
      <use x="183.935547" xlink:href="#DejaVuSans-115"/>
      <use x="236.035156" xlink:href="#DejaVuSans-32"/>
      <use x="267.822266" xlink:href="#DejaVuSans-115"/>
      <use x="319.921875" xlink:href="#DejaVuSans-105"/>
      <use x="347.705078" xlink:href="#DejaVuSans-110"/>
      <use x="411.083984" xlink:href="#DejaVuSans-99"/>
      <use x="466.064453" xlink:href="#DejaVuSans-101"/>
      <use x="527.587891" xlink:href="#DejaVuSans-32"/>
      <use x="559.375" xlink:href="#DejaVuSans-51"/>
      <use x="622.998047" xlink:href="#DejaVuSans-32"/>
      <use x="654.785156" xlink:href="#DejaVuSans-100"/>
      <use x="718.261719" xlink:href="#DejaVuSans-101"/>
      <use x="779.785156" xlink:href="#DejaVuSans-97"/>
      <use x="841.064453" xlink:href="#DejaVuSans-116"/>
      <use x="880.273438" xlink:href="#DejaVuSans-104"/>
      <use x="943.652344" xlink:href="#DejaVuSans-115"/>
     </g>
    </g>
   </g>
   <g id="matplotlib.axis_2">
    <g id="ytick_1">
     <g id="line2d_17">
      <path clip-path="url(#pd7451a1fe6)" d="M 90 378 
L 648 378 
" style="fill:none;stroke:#ffffff;stroke-linecap:square;stroke-width:0.8;"/>
     </g>
     <g id="line2d_18">
      <defs>
       <path d="M 0 0 
L -3.5 0 
" id="mb3b91e0474" style="stroke:#555555;stroke-width:0.8;"/>
      </defs>
      <g>
       <use style="fill:#555555;stroke:#555555;stroke-width:0.8;" x="90" xlink:href="#mb3b91e0474" y="378"/>
      </g>
     </g>
     <g id="line2d_19">
      <defs>
       <path d="M 0 0 
L 3.5 0 
" id="m903e85d8d6" style="stroke:#555555;stroke-width:0.8;"/>
      </defs>
      <g>
       <use style="fill:#555555;stroke:#555555;stroke-width:0.8;" x="648" xlink:href="#m903e85d8d6" y="378"/>
      </g>
     </g>
     <g id="text_10">
      <!-- 0.01 -->
      <g style="fill:#555555;" transform="translate(60.734375 381.799219)scale(0.1 -0.1)">
       <defs>
        <path d="M 10.6875 12.40625 
L 21 12.40625 
L 21 0 
L 10.6875 0 
z
" id="DejaVuSans-46"/>
       </defs>
       <use xlink:href="#DejaVuSans-48"/>
       <use x="63.623047" xlink:href="#DejaVuSans-46"/>
       <use x="95.410156" xlink:href="#DejaVuSans-48"/>
       <use x="159.033203" xlink:href="#DejaVuSans-49"/>
      </g>
     </g>
     <g id="text_11">
      <!-- 0.01 -->
      <g style="fill:#555555;" transform="translate(655 381.799219)scale(0.1 -0.1)">
       <use xlink:href="#DejaVuSans-48"/>
       <use x="63.623047" xlink:href="#DejaVuSans-46"/>
       <use x="95.410156" xlink:href="#DejaVuSans-48"/>
       <use x="159.033203" xlink:href="#DejaVuSans-49"/>
      </g>
     </g>
    </g>
    <g id="ytick_2">
     <g id="line2d_20">
      <path clip-path="url(#pd7451a1fe6)" d="M 90 314.911108 
L 648 314.911108 
" style="fill:none;stroke:#ffffff;stroke-linecap:square;stroke-width:0.8;"/>
     </g>
     <g id="line2d_21">
      <g>
       <use style="fill:#555555;stroke:#555555;stroke-width:0.8;" x="90" xlink:href="#mb3b91e0474" y="314.911108"/>
      </g>
     </g>
     <g id="line2d_22">
      <g>
       <use style="fill:#555555;stroke:#555555;stroke-width:0.8;" x="648" xlink:href="#m903e85d8d6" y="314.911108"/>
      </g>
     </g>
     <g id="text_12">
      <!-- 0.1 -->
      <g style="fill:#555555;" transform="translate(67.096875 318.710327)scale(0.1 -0.1)">
       <use xlink:href="#DejaVuSans-48"/>
       <use x="63.623047" xlink:href="#DejaVuSans-46"/>
       <use x="95.410156" xlink:href="#DejaVuSans-49"/>
      </g>
     </g>
     <g id="text_13">
      <!-- 0.1 -->
      <g style="fill:#555555;" transform="translate(655 318.710327)scale(0.1 -0.1)">
       <use xlink:href="#DejaVuSans-48"/>
       <use x="63.623047" xlink:href="#DejaVuSans-46"/>
       <use x="95.410156" xlink:href="#DejaVuSans-49"/>
      </g>
     </g>
    </g>
    <g id="ytick_3">
     <g id="line2d_23">
      <path clip-path="url(#pd7451a1fe6)" d="M 90 251.822217 
L 648 251.822217 
" style="fill:none;stroke:#ffffff;stroke-linecap:square;stroke-width:0.8;"/>
     </g>
     <g id="line2d_24">
      <g>
       <use style="fill:#555555;stroke:#555555;stroke-width:0.8;" x="90" xlink:href="#mb3b91e0474" y="251.822217"/>
      </g>
     </g>
     <g id="line2d_25">
      <g>
       <use style="fill:#555555;stroke:#555555;stroke-width:0.8;" x="648" xlink:href="#m903e85d8d6" y="251.822217"/>
      </g>
     </g>
     <g id="text_14">
      <!-- 1 -->
      <g style="fill:#555555;" transform="translate(76.6375 255.621435)scale(0.1 -0.1)">
       <use xlink:href="#DejaVuSans-49"/>
      </g>
     </g>
     <g id="text_15">
      <!-- 1 -->
      <g style="fill:#555555;" transform="translate(655 255.621435)scale(0.1 -0.1)">
       <use xlink:href="#DejaVuSans-49"/>
      </g>
     </g>
    </g>
    <g id="ytick_4">
     <g id="line2d_26">
      <defs>
       <path d="M 0 0 
L -2 0 
" id="m992564a6c5" style="stroke:#555555;stroke-width:0.6;"/>
      </defs>
      <g>
       <use style="fill:#555555;stroke:#555555;stroke-width:0.6;" x="90" xlink:href="#m992564a6c5" y="359.008351"/>
      </g>
     </g>
     <g id="line2d_27">
      <defs>
       <path d="M 0 0 
L 2 0 
" id="mb67feedb56" style="stroke:#555555;stroke-width:0.6;"/>
      </defs>
      <g>
       <use style="fill:#555555;stroke:#555555;stroke-width:0.6;" x="648" xlink:href="#mb67feedb56" y="359.008351"/>
      </g>
     </g>
    </g>
    <g id="ytick_5">
     <g id="line2d_28">
      <g>
       <use style="fill:#555555;stroke:#555555;stroke-width:0.6;" x="90" xlink:href="#m992564a6c5" y="347.898949"/>
      </g>
     </g>
     <g id="line2d_29">
      <g>
       <use style="fill:#555555;stroke:#555555;stroke-width:0.6;" x="648" xlink:href="#mb67feedb56" y="347.898949"/>
      </g>
     </g>
    </g>
    <g id="ytick_6">
     <g id="line2d_30">
      <g>
       <use style="fill:#555555;stroke:#555555;stroke-width:0.6;" x="90" xlink:href="#m992564a6c5" y="340.016702"/>
      </g>
     </g>
     <g id="line2d_31">
      <g>
       <use style="fill:#555555;stroke:#555555;stroke-width:0.6;" x="648" xlink:href="#mb67feedb56" y="340.016702"/>
      </g>
     </g>
    </g>
    <g id="ytick_7">
     <g id="line2d_32">
      <g>
       <use style="fill:#555555;stroke:#555555;stroke-width:0.6;" x="90" xlink:href="#m992564a6c5" y="333.902757"/>
      </g>
     </g>
     <g id="line2d_33">
      <g>
       <use style="fill:#555555;stroke:#555555;stroke-width:0.6;" x="648" xlink:href="#mb67feedb56" y="333.902757"/>
      </g>
     </g>
    </g>
    <g id="ytick_8">
     <g id="line2d_34">
      <g>
       <use style="fill:#555555;stroke:#555555;stroke-width:0.6;" x="90" xlink:href="#m992564a6c5" y="328.9073"/>
      </g>
     </g>
     <g id="line2d_35">
      <g>
       <use style="fill:#555555;stroke:#555555;stroke-width:0.6;" x="648" xlink:href="#mb67feedb56" y="328.9073"/>
      </g>
     </g>
    </g>
    <g id="ytick_9">
     <g id="line2d_36">
      <g>
       <use style="fill:#555555;stroke:#555555;stroke-width:0.6;" x="90" xlink:href="#m992564a6c5" y="324.683701"/>
      </g>
     </g>
     <g id="line2d_37">
      <g>
       <use style="fill:#555555;stroke:#555555;stroke-width:0.6;" x="648" xlink:href="#mb67feedb56" y="324.683701"/>
      </g>
     </g>
    </g>
    <g id="ytick_10">
     <g id="line2d_38">
      <g>
       <use style="fill:#555555;stroke:#555555;stroke-width:0.6;" x="90" xlink:href="#m992564a6c5" y="321.025054"/>
      </g>
     </g>
     <g id="line2d_39">
      <g>
       <use style="fill:#555555;stroke:#555555;stroke-width:0.6;" x="648" xlink:href="#mb67feedb56" y="321.025054"/>
      </g>
     </g>
    </g>
    <g id="ytick_11">
     <g id="line2d_40">
      <g>
       <use style="fill:#555555;stroke:#555555;stroke-width:0.6;" x="90" xlink:href="#m992564a6c5" y="317.797898"/>
      </g>
     </g>
     <g id="line2d_41">
      <g>
       <use style="fill:#555555;stroke:#555555;stroke-width:0.6;" x="648" xlink:href="#mb67feedb56" y="317.797898"/>
      </g>
     </g>
    </g>
    <g id="ytick_12">
     <g id="line2d_42">
      <g>
       <use style="fill:#555555;stroke:#555555;stroke-width:0.6;" x="90" xlink:href="#m992564a6c5" y="295.919459"/>
      </g>
     </g>
     <g id="line2d_43">
      <g>
       <use style="fill:#555555;stroke:#555555;stroke-width:0.6;" x="648" xlink:href="#mb67feedb56" y="295.919459"/>
      </g>
     </g>
    </g>
    <g id="ytick_13">
     <g id="line2d_44">
      <g>
       <use style="fill:#555555;stroke:#555555;stroke-width:0.6;" x="90" xlink:href="#m992564a6c5" y="284.810057"/>
      </g>
     </g>
     <g id="line2d_45">
      <g>
       <use style="fill:#555555;stroke:#555555;stroke-width:0.6;" x="648" xlink:href="#mb67feedb56" y="284.810057"/>
      </g>
     </g>
    </g>
    <g id="ytick_14">
     <g id="line2d_46">
      <g>
       <use style="fill:#555555;stroke:#555555;stroke-width:0.6;" x="90" xlink:href="#m992564a6c5" y="276.927811"/>
      </g>
     </g>
     <g id="line2d_47">
      <g>
       <use style="fill:#555555;stroke:#555555;stroke-width:0.6;" x="648" xlink:href="#mb67feedb56" y="276.927811"/>
      </g>
     </g>
    </g>
    <g id="ytick_15">
     <g id="line2d_48">
      <g>
       <use style="fill:#555555;stroke:#555555;stroke-width:0.6;" x="90" xlink:href="#m992564a6c5" y="270.813865"/>
      </g>
     </g>
     <g id="line2d_49">
      <g>
       <use style="fill:#555555;stroke:#555555;stroke-width:0.6;" x="648" xlink:href="#mb67feedb56" y="270.813865"/>
      </g>
     </g>
    </g>
    <g id="ytick_16">
     <g id="line2d_50">
      <g>
       <use style="fill:#555555;stroke:#555555;stroke-width:0.6;" x="90" xlink:href="#m992564a6c5" y="265.818408"/>
      </g>
     </g>
     <g id="line2d_51">
      <g>
       <use style="fill:#555555;stroke:#555555;stroke-width:0.6;" x="648" xlink:href="#mb67feedb56" y="265.818408"/>
      </g>
     </g>
    </g>
    <g id="ytick_17">
     <g id="line2d_52">
      <g>
       <use style="fill:#555555;stroke:#555555;stroke-width:0.6;" x="90" xlink:href="#m992564a6c5" y="261.59481"/>
      </g>
     </g>
     <g id="line2d_53">
      <g>
       <use style="fill:#555555;stroke:#555555;stroke-width:0.6;" x="648" xlink:href="#mb67feedb56" y="261.59481"/>
      </g>
     </g>
    </g>
    <g id="ytick_18">
     <g id="line2d_54">
      <g>
       <use style="fill:#555555;stroke:#555555;stroke-width:0.6;" x="90" xlink:href="#m992564a6c5" y="257.936162"/>
      </g>
     </g>
     <g id="line2d_55">
      <g>
       <use style="fill:#555555;stroke:#555555;stroke-width:0.6;" x="648" xlink:href="#mb67feedb56" y="257.936162"/>
      </g>
     </g>
    </g>
    <g id="ytick_19">
     <g id="line2d_56">
      <g>
       <use style="fill:#555555;stroke:#555555;stroke-width:0.6;" x="90" xlink:href="#m992564a6c5" y="254.709006"/>
      </g>
     </g>
     <g id="line2d_57">
      <g>
       <use style="fill:#555555;stroke:#555555;stroke-width:0.6;" x="648" xlink:href="#mb67feedb56" y="254.709006"/>
      </g>
     </g>
    </g>
    <g id="ytick_20">
     <g id="line2d_58">
      <g>
       <use style="fill:#555555;stroke:#555555;stroke-width:0.6;" x="90" xlink:href="#m992564a6c5" y="232.830568"/>
      </g>
     </g>
     <g id="line2d_59">
      <g>
       <use style="fill:#555555;stroke:#555555;stroke-width:0.6;" x="648" xlink:href="#mb67feedb56" y="232.830568"/>
      </g>
     </g>
    </g>
    <g id="text_16">
     <!-- daily new deaths -->
     <g style="fill:#555555;" transform="translate(27.364 354.91679)rotate(-90)scale(0.12 -0.12)">
      <defs>
       <path d="M 9.421875 75.984375 
L 18.40625 75.984375 
L 18.40625 0 
L 9.421875 0 
z
" id="DejaVuSans-108"/>
       <path d="M 4.203125 54.6875 
L 13.1875 54.6875 
L 24.421875 12.015625 
L 35.59375 54.6875 
L 46.1875 54.6875 
L 57.421875 12.015625 
L 68.609375 54.6875 
L 77.59375 54.6875 
L 63.28125 0 
L 52.6875 0 
L 40.921875 44.828125 
L 29.109375 0 
L 18.5 0 
z
" id="DejaVuSans-119"/>
      </defs>
      <use xlink:href="#DejaVuSans-100"/>
      <use x="63.476562" xlink:href="#DejaVuSans-97"/>
      <use x="124.755859" xlink:href="#DejaVuSans-105"/>
      <use x="152.539062" xlink:href="#DejaVuSans-108"/>
      <use x="180.322266" xlink:href="#DejaVuSans-121"/>
      <use x="239.501953" xlink:href="#DejaVuSans-32"/>
      <use x="271.289062" xlink:href="#DejaVuSans-110"/>
      <use x="334.667969" xlink:href="#DejaVuSans-101"/>
      <use x="396.191406" xlink:href="#DejaVuSans-119"/>
      <use x="477.978516" xlink:href="#DejaVuSans-32"/>
      <use x="509.765625" xlink:href="#DejaVuSans-100"/>
      <use x="573.242188" xlink:href="#DejaVuSans-101"/>
      <use x="634.765625" xlink:href="#DejaVuSans-97"/>
      <use x="696.044922" xlink:href="#DejaVuSans-116"/>
      <use x="735.253906" xlink:href="#DejaVuSans-104"/>
      <use x="798.632812" xlink:href="#DejaVuSans-115"/>
     </g>
     <!-- per 100K people -->
     <g style="fill:#555555;" transform="translate(40.801375 353.381165)rotate(-90)scale(0.12 -0.12)">
      <defs>
       <path d="M 18.109375 8.203125 
L 18.109375 -20.796875 
L 9.078125 -20.796875 
L 9.078125 54.6875 
L 18.109375 54.6875 
L 18.109375 46.390625 
Q 20.953125 51.265625 25.265625 53.625 
Q 29.59375 56 35.59375 56 
Q 45.5625 56 51.78125 48.09375 
Q 58.015625 40.1875 58.015625 27.296875 
Q 58.015625 14.40625 51.78125 6.484375 
Q 45.5625 -1.421875 35.59375 -1.421875 
Q 29.59375 -1.421875 25.265625 0.953125 
Q 20.953125 3.328125 18.109375 8.203125 
z
M 48.6875 27.296875 
Q 48.6875 37.203125 44.609375 42.84375 
Q 40.53125 48.484375 33.40625 48.484375 
Q 26.265625 48.484375 22.1875 42.84375 
Q 18.109375 37.203125 18.109375 27.296875 
Q 18.109375 17.390625 22.1875 11.75 
Q 26.265625 6.109375 33.40625 6.109375 
Q 40.53125 6.109375 44.609375 11.75 
Q 48.6875 17.390625 48.6875 27.296875 
z
" id="DejaVuSans-112"/>
       <path d="M 41.109375 46.296875 
Q 39.59375 47.171875 37.8125 47.578125 
Q 36.03125 48 33.890625 48 
Q 26.265625 48 22.1875 43.046875 
Q 18.109375 38.09375 18.109375 28.8125 
L 18.109375 0 
L 9.078125 0 
L 9.078125 54.6875 
L 18.109375 54.6875 
L 18.109375 46.1875 
Q 20.953125 51.171875 25.484375 53.578125 
Q 30.03125 56 36.53125 56 
Q 37.453125 56 38.578125 55.875 
Q 39.703125 55.765625 41.0625 55.515625 
z
" id="DejaVuSans-114"/>
       <path d="M 9.8125 72.90625 
L 19.671875 72.90625 
L 19.671875 42.09375 
L 52.390625 72.90625 
L 65.09375 72.90625 
L 28.90625 38.921875 
L 67.671875 0 
L 54.6875 0 
L 19.671875 35.109375 
L 19.671875 0 
L 9.8125 0 
z
" id="DejaVuSans-75"/>
       <path d="M 30.609375 48.390625 
Q 23.390625 48.390625 19.1875 42.75 
Q 14.984375 37.109375 14.984375 27.296875 
Q 14.984375 17.484375 19.15625 11.84375 
Q 23.34375 6.203125 30.609375 6.203125 
Q 37.796875 6.203125 41.984375 11.859375 
Q 46.1875 17.53125 46.1875 27.296875 
Q 46.1875 37.015625 41.984375 42.703125 
Q 37.796875 48.390625 30.609375 48.390625 
z
M 30.609375 56 
Q 42.328125 56 49.015625 48.375 
Q 55.71875 40.765625 55.71875 27.296875 
Q 55.71875 13.875 49.015625 6.21875 
Q 42.328125 -1.421875 30.609375 -1.421875 
Q 18.84375 -1.421875 12.171875 6.21875 
Q 5.515625 13.875 5.515625 27.296875 
Q 5.515625 40.765625 12.171875 48.375 
Q 18.84375 56 30.609375 56 
z
" id="DejaVuSans-111"/>
      </defs>
      <use xlink:href="#DejaVuSans-112"/>
      <use x="63.476562" xlink:href="#DejaVuSans-101"/>
      <use x="125" xlink:href="#DejaVuSans-114"/>
      <use x="166.113281" xlink:href="#DejaVuSans-32"/>
      <use x="197.900391" xlink:href="#DejaVuSans-49"/>
      <use x="261.523438" xlink:href="#DejaVuSans-48"/>
      <use x="325.146484" xlink:href="#DejaVuSans-48"/>
      <use x="388.769531" xlink:href="#DejaVuSans-75"/>
      <use x="454.345703" xlink:href="#DejaVuSans-32"/>
      <use x="486.132812" xlink:href="#DejaVuSans-112"/>
      <use x="549.609375" xlink:href="#DejaVuSans-101"/>
      <use x="611.132812" xlink:href="#DejaVuSans-111"/>
      <use x="672.314453" xlink:href="#DejaVuSans-112"/>
      <use x="735.791016" xlink:href="#DejaVuSans-108"/>
      <use x="763.574219" xlink:href="#DejaVuSans-101"/>
     </g>
     <!-- (rolling 7-day mean) -->
     <g style="fill:#555555;" transform="translate(54.23875 365.018352)rotate(-90)scale(0.12 -0.12)">
      <defs>
       <path d="M 31 75.875 
Q 24.46875 64.65625 21.28125 53.65625 
Q 18.109375 42.671875 18.109375 31.390625 
Q 18.109375 20.125 21.3125 9.0625 
Q 24.515625 -2 31 -13.1875 
L 23.1875 -13.1875 
Q 15.875 -1.703125 12.234375 9.375 
Q 8.59375 20.453125 8.59375 31.390625 
Q 8.59375 42.28125 12.203125 53.3125 
Q 15.828125 64.359375 23.1875 75.875 
z
" id="DejaVuSans-40"/>
       <path d="M 45.40625 27.984375 
Q 45.40625 37.75 41.375 43.109375 
Q 37.359375 48.484375 30.078125 48.484375 
Q 22.859375 48.484375 18.828125 43.109375 
Q 14.796875 37.75 14.796875 27.984375 
Q 14.796875 18.265625 18.828125 12.890625 
Q 22.859375 7.515625 30.078125 7.515625 
Q 37.359375 7.515625 41.375 12.890625 
Q 45.40625 18.265625 45.40625 27.984375 
z
M 54.390625 6.78125 
Q 54.390625 -7.171875 48.1875 -13.984375 
Q 42 -20.796875 29.203125 -20.796875 
Q 24.46875 -20.796875 20.265625 -20.09375 
Q 16.0625 -19.390625 12.109375 -17.921875 
L 12.109375 -9.1875 
Q 16.0625 -11.328125 19.921875 -12.34375 
Q 23.78125 -13.375 27.78125 -13.375 
Q 36.625 -13.375 41.015625 -8.765625 
Q 45.40625 -4.15625 45.40625 5.171875 
L 45.40625 9.625 
Q 42.625 4.78125 38.28125 2.390625 
Q 33.9375 0 27.875 0 
Q 17.828125 0 11.671875 7.65625 
Q 5.515625 15.328125 5.515625 27.984375 
Q 5.515625 40.671875 11.671875 48.328125 
Q 17.828125 56 27.875 56 
Q 33.9375 56 38.28125 53.609375 
Q 42.625 51.21875 45.40625 46.390625 
L 45.40625 54.6875 
L 54.390625 54.6875 
z
" id="DejaVuSans-103"/>
       <path d="M 8.203125 72.90625 
L 55.078125 72.90625 
L 55.078125 68.703125 
L 28.609375 0 
L 18.3125 0 
L 43.21875 64.59375 
L 8.203125 64.59375 
z
" id="DejaVuSans-55"/>
       <path d="M 4.890625 31.390625 
L 31.203125 31.390625 
L 31.203125 23.390625 
L 4.890625 23.390625 
z
" id="DejaVuSans-45"/>
       <path d="M 52 44.1875 
Q 55.375 50.25 60.0625 53.125 
Q 64.75 56 71.09375 56 
Q 79.640625 56 84.28125 50.015625 
Q 88.921875 44.046875 88.921875 33.015625 
L 88.921875 0 
L 79.890625 0 
L 79.890625 32.71875 
Q 79.890625 40.578125 77.09375 44.375 
Q 74.3125 48.1875 68.609375 48.1875 
Q 61.625 48.1875 57.5625 43.546875 
Q 53.515625 38.921875 53.515625 30.90625 
L 53.515625 0 
L 44.484375 0 
L 44.484375 32.71875 
Q 44.484375 40.625 41.703125 44.40625 
Q 38.921875 48.1875 33.109375 48.1875 
Q 26.21875 48.1875 22.15625 43.53125 
Q 18.109375 38.875 18.109375 30.90625 
L 18.109375 0 
L 9.078125 0 
L 9.078125 54.6875 
L 18.109375 54.6875 
L 18.109375 46.1875 
Q 21.1875 51.21875 25.484375 53.609375 
Q 29.78125 56 35.6875 56 
Q 41.65625 56 45.828125 52.96875 
Q 50 49.953125 52 44.1875 
z
" id="DejaVuSans-109"/>
       <path d="M 8.015625 75.875 
L 15.828125 75.875 
Q 23.140625 64.359375 26.78125 53.3125 
Q 30.421875 42.28125 30.421875 31.390625 
Q 30.421875 20.453125 26.78125 9.375 
Q 23.140625 -1.703125 15.828125 -13.1875 
L 8.015625 -13.1875 
Q 14.5 -2 17.703125 9.0625 
Q 20.90625 20.125 20.90625 31.390625 
Q 20.90625 42.671875 17.703125 53.65625 
Q 14.5 64.65625 8.015625 75.875 
z
" id="DejaVuSans-41"/>
      </defs>
      <use xlink:href="#DejaVuSans-40"/>
      <use x="39.013672" xlink:href="#DejaVuSans-114"/>
      <use x="77.876953" xlink:href="#DejaVuSans-111"/>
      <use x="139.058594" xlink:href="#DejaVuSans-108"/>
      <use x="166.841797" xlink:href="#DejaVuSans-108"/>
      <use x="194.625" xlink:href="#DejaVuSans-105"/>
      <use x="222.408203" xlink:href="#DejaVuSans-110"/>
      <use x="285.787109" xlink:href="#DejaVuSans-103"/>
      <use x="349.263672" xlink:href="#DejaVuSans-32"/>
      <use x="381.050781" xlink:href="#DejaVuSans-55"/>
      <use x="444.673828" xlink:href="#DejaVuSans-45"/>
      <use x="480.757812" xlink:href="#DejaVuSans-100"/>
      <use x="544.234375" xlink:href="#DejaVuSans-97"/>
      <use x="605.513672" xlink:href="#DejaVuSans-121"/>
      <use x="664.693359" xlink:href="#DejaVuSans-32"/>
      <use x="696.480469" xlink:href="#DejaVuSans-109"/>
      <use x="793.892578" xlink:href="#DejaVuSans-101"/>
      <use x="855.416016" xlink:href="#DejaVuSans-97"/>
      <use x="916.695312" xlink:href="#DejaVuSans-110"/>
      <use x="980.074219" xlink:href="#DejaVuSans-41"/>
     </g>
    </g>
   </g>
   <g id="line2d_60">
    <path clip-path="url(#pd7451a1fe6)" d="M 75.4772 433 
L 75.791484 427.007652 
L 77.370208 419.125406 
L 78.948932 413.01146 
L 80.527656 408.016003 
L 82.10638 408.016003 
L 83.685104 410.400042 
L 85.263828 403.792405 
L 86.842552 410.400042 
L 88.421276 394.019812 
L 90 396.906601 
L 91.578724 390.190452 
L 93.157448 391.408393 
L 94.736172 383.839283 
L 96.314896 384.800756 
L 97.89362 380.298991 
L 99.472344 387.905866 
L 101.051068 386.831252 
L 102.629792 387.905866 
L 104.208516 382.011996 
L 105.78724 389.024355 
L 107.365964 384.800756 
L 108.944688 387.905866 
L 110.523412 391.408393 
L 112.102136 385.797199 
L 113.68086 389.024355 
L 115.259584 387.905866 
L 116.838308 384.800756 
L 118.417032 382.910409 
L 119.995756 377.914952 
L 121.57448 377.914952 
L 124.731928 373.691353 
L 126.310652 375.028163 
L 127.889376 371.801007 
L 129.4681 373.691353 
L 131.046824 374.351606 
L 132.625548 370.609551 
L 134.204272 373.691353 
L 135.782996 375.721849 
L 137.36172 376.433556 
L 138.940444 378.68681 
L 142.097892 382.011996 
L 143.676616 384.800756 
L 145.25534 382.910409 
L 146.834064 378.68681 
L 148.412788 378.68681 
L 149.991512 379.481045 
L 151.570236 379.481045 
L 153.14896 382.011996 
L 154.727684 382.011996 
L 156.306408 382.910409 
L 157.885132 387.905866 
L 159.463856 387.905866 
L 161.04258 391.408393 
L 164.200028 394.019812 
L 165.778752 395.425205 
L 167.357476 401.902058 
L 168.9362 405.822901 
L 170.514924 410.400042 
L 172.093648 413.01146 
L 173.672372 413.01146 
L 175.251096 415.89825 
L 176.82982 419.125406 
L 178.408544 415.89825 
L 179.987268 415.89825 
L 181.565992 419.125406 
L 183.144716 413.01146 
L 184.72344 419.125406 
L 186.302164 415.89825 
L 187.880888 413.01146 
L 189.459612 415.89825 
L 191.038336 415.89825 
L 192.61706 419.125406 
L 194.195784 427.007652 
L 195.774508 427.007652 
L 196.626063 433 
M 204.395298 433 
L 205.246852 427.007652 
L 206.825576 427.007652 
L 208.4043 422.784053 
L 210.240439 433 
M 220.182538 433 
L 221.034093 427.007652 
L 222.612817 427.007652 
L 224.191541 432.003109 
L 225.770265 432.003109 
L 225.882711 433 
M 290.385503 433 
L 290.497949 432.003109 
L 292.076673 427.007652 
L 293.655397 432.003109 
L 295.234121 427.007652 
L 297.070259 433 
M 302.870327 433 
L 303.127741 432.003109 
L 304.706465 427.007652 
L 306.285189 427.007652 
L 307.863913 422.784053 
L 309.442637 422.784053 
L 311.021361 419.125406 
L 312.600085 427.007652 
L 314.436223 433 
M 365.425146 433 
L 366.276701 427.007652 
L 367.855425 427.007652 
L 369.434149 422.784053 
L 371.012873 408.016003 
L 372.591597 403.792405 
L 374.170321 401.902058 
L 375.749045 403.792405 
L 377.327769 403.792405 
L 378.906493 400.133757 
L 380.485217 401.902058 
L 382.063941 408.016003 
L 383.642665 410.400042 
L 385.221389 408.016003 
L 386.800113 398.472693 
L 388.378837 396.906601 
L 389.957561 398.472693 
L 391.536285 395.425205 
L 393.115009 391.408393 
L 394.693733 389.024355 
L 396.272457 385.797199 
L 397.851181 386.831252 
L 399.429905 390.190452 
L 401.008629 386.831252 
L 402.587353 385.797199 
L 404.166077 390.190452 
L 405.744801 387.905866 
L 407.323525 391.408393 
L 408.902249 392.683002 
L 412.059697 392.683002 
L 413.638421 396.906601 
L 415.217145 392.683002 
L 416.795869 396.906601 
L 418.374593 392.683002 
L 419.953317 395.425205 
L 421.532041 387.905866 
L 423.110765 391.408393 
L 424.689489 392.683002 
L 426.268213 392.683002 
L 427.846937 394.019812 
L 429.425661 400.133757 
L 431.004385 401.902058 
L 432.583109 408.016003 
L 435.740557 408.016003 
L 437.319281 413.01146 
L 438.898005 410.400042 
L 440.476729 410.400042 
L 443.634177 405.822901 
L 445.212901 408.016003 
L 446.791625 405.822901 
L 448.370349 405.822901 
L 449.949073 408.016003 
L 451.527797 410.400042 
L 453.106521 405.822901 
L 454.685245 408.016003 
L 456.263969 403.792405 
L 459.421417 403.792405 
L 461.000141 405.822901 
L 464.157589 405.822901 
L 465.736313 410.400042 
L 467.315037 415.89825 
L 468.893761 419.125406 
L 470.472486 422.784053 
L 472.05121 415.89825 
L 473.629934 410.400042 
L 476.787382 405.822901 
L 481.523554 405.822901 
L 483.102278 408.016003 
L 484.681002 408.016003 
L 486.259726 405.822901 
L 487.83845 405.822901 
L 489.417174 408.016003 
L 490.995898 408.016003 
L 492.574622 401.902058 
L 494.153346 401.902058 
L 495.73207 403.792405 
L 497.310794 415.89825 
L 498.889518 415.89825 
L 500.468242 410.400042 
L 502.046966 405.822901 
L 503.62569 410.400042 
L 505.204414 408.016003 
L 506.783138 401.902058 
L 509.940586 398.472693 
L 511.51931 398.472693 
L 513.098034 401.902058 
L 514.676758 395.425205 
L 517.834206 398.472693 
L 519.41293 400.133757 
L 520.991654 405.822901 
L 522.570378 403.792405 
L 524.149102 394.019812 
L 525.727826 396.906601 
L 527.30655 391.408393 
L 528.885274 390.190452 
L 530.463998 386.831252 
L 532.042722 382.910409 
L 533.621446 378.68681 
L 535.20017 377.914952 
L 536.778894 376.433556 
L 538.357618 378.68681 
L 539.936342 376.433556 
L 541.515066 370.032706 
L 543.09379 365.809107 
L 544.672514 359.695162 
L 546.251238 358.545378 
L 547.829962 355.696147 
L 549.408686 351.617903 
L 550.98741 347.063192 
L 552.566134 344.474223 
L 554.144858 343.373707 
L 555.723582 344.474223 
L 558.88103 341.903668 
L 560.459754 341.903668 
L 562.038478 344.699731 
L 563.617202 341.29702 
L 565.195926 340.703513 
L 566.77465 339.931655 
L 568.353374 339.931655 
L 571.510822 338.092094 
L 573.089546 336.704499 
L 574.66827 339.180946 
L 576.246994 339.180946 
L 577.825718 339.553729 
L 579.404442 336.368308 
L 580.983166 337.389513 
L 582.56189 336.535888 
L 584.140614 337.216647 
L 585.719338 337.389513 
L 587.298062 337.389513 
L 588.876786 338.996439 
L 590.45551 341.497747 
L 592.034234 341.497747 
L 593.612958 344.028698 
L 595.191682 344.028698 
L 596.770406 345.387612 
L 598.34913 346.093209 
L 599.927854 344.699731 
L 601.506578 347.063192 
L 603.085302 349.649938 
L 604.664026 349.922569 
L 606.24275 351.041057 
L 607.821474 353.425095 
L 609.400198 356.730201 
L 610.978922 359.695162 
L 615.715094 359.695162 
L 615.715094 359.695162 
" style="fill:none;stroke:#e24a33;stroke-linecap:square;stroke-width:4;"/>
   </g>
   <g id="line2d_61">
    <defs>
     <path d="M 0 3 
C 0.795609 3 1.55874 2.683901 2.12132 2.12132 
C 2.683901 1.55874 3 0.795609 3 0 
C 3 -0.795609 2.683901 -1.55874 2.12132 -2.12132 
C 1.55874 -2.683901 0.795609 -3 0 -3 
C -0.795609 -3 -1.55874 -2.683901 -2.12132 -2.12132 
C -2.683901 -1.55874 -3 -0.795609 -3 0 
C -3 0.795609 -2.683901 1.55874 -2.12132 2.12132 
C -1.55874 2.683901 -0.795609 3 0 3 
z
" id="m8c31cf1ba8" style="stroke:#e24a33;"/>
    </defs>
    <g clip-path="url(#pd7451a1fe6)">
     <use style="fill:#e24a33;stroke:#e24a33;" x="615.715094" xlink:href="#m8c31cf1ba8" y="359.695162"/>
    </g>
   </g>
   <g id="line2d_62">
    <path clip-path="url(#pd7451a1fe6)" d="M 86.006944 433 
L 86.842552 429.355388 
L 88.421276 423.85718 
L 90 415.359197 
L 91.578724 404.865532 
L 93.157448 401.363005 
L 94.736172 387.808745 
L 96.314896 377.375899 
L 97.89362 371.261954 
L 99.472344 368.484981 
L 101.051068 361.783188 
L 102.629792 355.566045 
L 104.208516 347.580987 
L 110.523412 322.847333 
L 113.68086 313.477121 
L 115.259584 309.520833 
L 116.838308 305.067952 
L 118.417032 302.190949 
L 119.995756 299.991071 
L 121.57448 298.927924 
L 123.153204 296.106387 
L 124.731928 294.374858 
L 126.310652 290.510004 
L 127.889376 289.181413 
L 129.4681 289.327933 
L 131.046824 293.271387 
L 132.625548 290.337982 
L 134.204272 291.386696 
L 135.782996 293.569902 
L 137.36172 290.01597 
L 138.940444 290.20493 
L 140.519168 287.671191 
L 142.097892 285.383839 
L 143.676616 288.036634 
L 145.25534 286.272713 
L 146.834064 285.130581 
L 148.412788 289.641914 
L 149.991512 288.764481 
L 151.570236 290.915639 
L 153.14896 290.72173 
L 154.727684 291.26817 
L 156.306408 293.871706 
L 157.885132 293.50566 
L 159.463856 295.570729 
L 161.04258 299.006245 
L 162.621304 300.956415 
L 164.200028 302.132279 
L 165.778752 303.483744 
L 167.357476 304.201122 
L 168.9362 310.897965 
L 170.514924 306.13213 
L 172.093648 307.487596 
L 173.672372 307.310025 
L 178.408544 311.345474 
L 179.987268 308.356335 
L 181.565992 314.933898 
L 183.144716 319.724396 
L 184.72344 326.301674 
L 186.302164 326.160441 
L 187.880888 325.88014 
L 189.459612 329.688592 
L 191.038336 329.608595 
L 192.61706 334.877002 
L 194.195784 331.596112 
L 195.774508 330.584335 
L 197.353232 331.254685 
L 198.931956 331.424866 
L 202.089404 334.113213 
L 203.668128 334.780356 
L 205.246852 336.471585 
L 206.825576 335.563242 
L 208.4043 336.267112 
L 211.561748 338.716045 
L 213.140472 345.649624 
L 214.719196 348.203722 
L 216.29792 349.658886 
L 219.455369 353.579729 
L 221.034093 353.199179 
L 222.612817 354.160652 
L 224.191541 348.361643 
L 225.770265 352.270305 
L 228.927713 357.265762 
L 230.506437 358.38425 
L 233.663885 360.274597 
L 235.242609 368.156843 
L 236.821333 363.655078 
L 238.400057 362.569821 
L 239.978781 362.305093 
L 241.557505 362.837132 
L 243.136229 365.075041 
L 244.714953 365.664293 
L 246.293677 365.075041 
L 247.872401 370.540882 
L 249.451125 375.182796 
L 251.029849 370.187339 
L 252.608573 372.002517 
L 254.187297 372.002517 
L 255.766021 370.540882 
L 257.344745 370.899046 
L 258.923469 374.352455 
L 260.502193 374.764481 
L 262.080917 385.258146 
L 263.659641 381.296742 
L 265.238365 379.759938 
L 266.817089 384.655942 
L 268.395813 387.148492 
L 269.974537 381.828781 
L 271.553261 381.828781 
L 273.131985 380.774837 
L 274.710709 382.371356 
L 276.289433 383.489844 
L 277.868157 381.296742 
L 279.446881 384.655942 
L 281.025605 392.938183 
L 282.604329 396.367548 
L 285.761777 406.140141 
L 287.340501 406.140141 
L 288.919225 407.47695 
L 292.076673 404.865532 
L 293.655397 403.647591 
L 295.234121 394.599247 
L 296.812845 393.756129 
L 299.970293 395.469134 
L 304.706465 392.938183 
L 306.285189 399.254337 
L 307.863913 396.367548 
L 309.442637 396.367548 
L 311.021361 397.296422 
L 312.600085 394.599247 
L 314.178809 385.873883 
L 315.757533 390.621382 
L 317.336257 383.489844 
L 318.914981 384.06669 
L 322.072429 382.924893 
L 323.651153 385.258146 
L 325.229877 392.938183 
L 326.808601 391.372091 
L 331.544773 393.756129 
L 334.702221 393.756129 
L 336.280945 391.372091 
L 337.859669 384.655942 
L 339.438393 391.372091 
L 341.017117 390.621382 
L 342.595841 388.485302 
L 345.753289 388.485302 
L 347.332013 391.372091 
L 348.910737 399.254337 
L 350.489461 402.481493 
L 352.068185 399.254337 
L 353.646909 401.363005 
L 355.225633 399.254337 
L 356.804357 400.288391 
L 358.383081 390.621382 
L 359.961805 394.599247 
L 361.540529 390.621382 
L 363.119253 396.367548 
L 364.697977 396.367548 
L 366.276701 398.257894 
L 367.855425 397.296422 
L 369.434149 407.47695 
L 371.012873 403.647591 
L 372.591597 406.140141 
L 374.170321 403.647591 
L 377.327769 401.363005 
L 378.906493 395.469134 
L 382.063941 395.469134 
L 383.642665 389.890695 
L 385.221389 391.372091 
L 386.800113 391.372091 
L 388.378837 392.938183 
L 389.957561 389.890695 
L 391.536285 382.371356 
L 393.115009 377.375899 
L 394.693733 375.182796 
L 396.272457 372.763653 
L 397.851181 371.629733 
L 399.429905 370.187339 
L 401.008629 370.187339 
L 402.587353 372.380442 
L 404.166077 372.002517 
L 405.744801 374.352455 
L 407.323525 372.380442 
L 408.902249 373.54654 
L 410.480973 367.512128 
L 412.059697 368.484981 
L 413.638421 367.195371 
L 415.217145 367.832589 
L 416.795869 369.153286 
L 418.374593 366.572636 
L 419.953317 365.368083 
L 421.532041 367.512128 
L 423.110765 359.313124 
L 424.689489 355.360807 
L 426.268213 353.199179 
L 427.846937 348.203722 
L 429.425661 349.658886 
L 431.004385 348.520479 
L 432.583109 344.115428 
L 434.161833 344.388059 
L 435.740557 345.081745 
L 437.319281 341.652381 
L 438.898005 343.711502 
L 440.476729 338.274113 
L 442.055453 336.781183 
L 443.634177 338.38393 
L 445.212901 339.507003 
L 446.791625 332.646687 
L 448.370349 329.449297 
L 449.949073 324.520101 
L 451.527797 322.291299 
L 453.106521 322.108434 
L 454.685245 315.310524 
L 456.263969 314.47028 
L 457.842693 308.876118 
L 459.421417 306.234049 
L 461.000141 304.775951 
L 462.578865 305.628146 
L 464.157589 304.455114 
L 465.736313 308.577892 
L 467.315037 298.591098 
L 468.893761 299.08479 
L 472.05121 296.129915 
L 473.629934 295.181433 
L 475.208658 295.272535 
L 476.787382 290.586806 
L 478.366106 291.9265 
L 479.94483 291.150155 
L 481.523554 290.185976 
L 483.102278 288.926874 
L 487.83845 286.954609 
L 489.417174 285.848923 
L 490.995898 283.8832 
L 492.574622 281.602227 
L 494.153346 280.053841 
L 497.310794 279.3559 
L 498.889518 278.267545 
L 502.046966 275.749944 
L 503.62569 275.660587 
L 505.204414 274.471267 
L 506.783138 273.506113 
L 508.361862 273.249612 
L 509.940586 272.673618 
L 511.51931 271.836561 
L 513.098034 272.070327 
L 514.676758 270.492825 
L 516.255482 270.281248 
L 517.834206 269.638237 
L 519.41293 269.141508 
L 520.991654 268.421463 
L 522.570378 265.639333 
L 524.149102 263.619337 
L 525.727826 262.56214 
L 527.30655 261.055647 
L 528.885274 260.511404 
L 530.463998 260.364251 
L 532.042722 259.226882 
L 535.20017 258.264565 
L 536.778894 260.306884 
L 538.357618 263.526082 
L 539.936342 263.893764 
L 544.672514 261.160549 
L 547.829962 259.318856 
L 549.408686 258.687428 
L 552.566134 259.116919 
L 554.144858 258.460295 
L 555.723582 259.141317 
L 557.302306 258.448393 
L 560.459754 251.765636 
L 562.038478 250.668975 
L 563.617202 250.543844 
L 565.195926 250.966207 
L 566.77465 250.601869 
L 568.353374 250.031447 
L 569.932098 250.21146 
L 571.510822 252.685348 
L 573.089546 251.812296 
L 574.66827 251.358412 
L 576.246994 253.762084 
L 577.825718 250.709317 
L 579.404442 251.593679 
L 580.983166 252.752928 
L 582.56189 251.161608 
L 584.140614 254.039278 
L 585.719338 254.110286 
L 587.298062 251.82631 
L 588.876786 258.347431 
L 590.45551 259.153524 
L 595.191682 259.153524 
L 595.191682 259.153524 
" style="fill:none;stroke:#348abd;stroke-linecap:square;stroke-opacity:0.4;stroke-width:2;"/>
   </g>
   <g id="line2d_63">
    <defs>
     <path d="M 0 3 
C 0.795609 3 1.55874 2.683901 2.12132 2.12132 
C 2.683901 1.55874 3 0.795609 3 0 
C 3 -0.795609 2.683901 -1.55874 2.12132 -2.12132 
C 1.55874 -2.683901 0.795609 -3 0 -3 
C -0.795609 -3 -1.55874 -2.683901 -2.12132 -2.12132 
C -2.683901 -1.55874 -3 -0.795609 -3 0 
C -3 0.795609 -2.683901 1.55874 -2.12132 2.12132 
C -1.55874 2.683901 -0.795609 3 0 3 
z
" id="m004b30cfa9" style="stroke:#348abd;stroke-opacity:0.4;"/>
    </defs>
    <g clip-path="url(#pd7451a1fe6)">
     <use style="fill:#348abd;fill-opacity:0.4;stroke:#348abd;stroke-opacity:0.4;" x="595.191682" xlink:href="#m004b30cfa9" y="259.153524"/>
    </g>
   </g>
   <g id="line2d_64">
    <path clip-path="url(#pd7451a1fe6)" d="M 60.704758 433 
L 61.582968 426.820081 
L 63.161692 426.820081 
L 64.740416 418.937835 
L 69.476588 418.937835 
L 71.055312 426.820081 
L 71.933522 433 
M 72.860762 433 
L 74.21276 403.604834 
L 75.791484 407.828433 
L 77.370208 403.604834 
L 78.948932 396.71903 
L 80.527656 393.832241 
L 82.10638 393.832241 
L 83.685104 388.836784 
L 85.263828 391.220822 
L 86.842552 382.722838 
L 88.421276 380.954537 
L 90 376.245985 
L 91.578724 371.011232 
L 93.157448 366.617979 
L 94.736172 363.73119 
L 96.314896 366.617979 
L 97.89362 367.652032 
L 99.472344 366.617979 
L 101.051068 368.726647 
L 102.629792 373.503783 
L 104.208516 379.293474 
L 105.78724 386.643681 
L 107.365964 388.836784 
L 108.944688 388.836784 
L 110.523412 393.832241 
L 112.102136 403.604834 
L 113.68086 407.828433 
L 115.259584 412.82389 
L 116.838308 418.937835 
L 118.417032 388.836784 
L 119.995756 386.643681 
L 121.57448 386.643681 
L 123.153204 380.954537 
L 124.731928 380.954537 
L 126.310652 372.229173 
L 127.889376 369.845135 
L 129.4681 377.727381 
L 131.046824 384.613185 
L 132.625548 384.613185 
L 134.204272 388.836784 
L 135.782996 386.643681 
L 137.36172 399.946186 
L 138.940444 407.828433 
L 140.519168 418.937835 
L 142.097892 418.937835 
L 143.676616 426.820081 
L 144.554826 433 
M 161.743094 433 
L 162.621304 426.820081 
L 164.200028 426.820081 
L 165.778752 418.937835 
L 167.357476 426.820081 
L 172.093648 426.820081 
L 172.971858 433 
M 240.679295 433 
L 241.557505 426.820081 
L 243.136229 418.937835 
L 244.305178 433 
M 246.603659 433 
L 247.872401 412.82389 
L 251.029849 393.832241 
L 252.608573 391.220822 
L 254.187297 384.613185 
L 255.766021 382.722838 
L 257.344745 377.727381 
L 258.923469 379.293474 
L 260.502193 374.840592 
L 262.080917 371.011232 
L 263.659641 366.617979 
L 265.238365 361.119771 
L 266.817089 357.254336 
L 268.395813 355.172386 
L 271.553261 346.629887 
L 273.131985 346.144934 
L 274.710709 346.629887 
L 276.289433 348.138479 
L 277.868157 344.739541 
L 279.446881 342.546438 
L 281.025605 340.127295 
L 282.604329 342.128122 
L 284.183053 340.515942 
L 285.761777 337.904523 
L 287.340501 334.559012 
L 288.919225 333.027935 
L 290.497949 331.01872 
L 292.076673 329.40654 
L 293.655397 329.14683 
L 295.234121 328.382153 
L 296.812845 330.470718 
L 298.391569 330.470718 
L 299.970293 328.634681 
L 301.549017 328.889559 
L 303.127741 331.296886 
L 304.706465 330.200774 
L 306.285189 331.577906 
L 307.863913 329.14683 
L 309.442637 329.14683 
L 312.600085 334.559012 
L 314.178809 331.01872 
L 315.757533 328.382153 
L 317.336257 327.883973 
L 318.914981 326.91399 
L 320.493705 328.382153 
L 322.072429 322.520736 
L 323.651153 323.136473 
L 325.229877 327.153285 
L 326.808601 329.14683 
L 328.387325 318.912875 
L 331.544773 321.135646 
L 333.123497 328.13193 
L 334.702221 327.394689 
L 336.280945 326.208393 
L 337.859669 328.13193 
L 339.438393 344.739541 
L 341.017117 347.123579 
L 342.595841 346.144934 
L 344.174565 347.62633 
L 345.753289 352.019584 
L 347.332013 353.867418 
L 348.910737 353.237525 
L 350.489461 355.848943 
L 352.068185 355.172386 
L 353.646909 356.54263 
L 355.225633 359.507591 
L 356.804357 357.254336 
L 358.383081 359.507591 
L 359.961805 364.660064 
L 361.540529 361.962888 
L 363.119253 367.652032 
L 364.697977 371.011232 
L 366.276701 369.845135 
L 367.855425 365.621536 
L 369.434149 366.617979 
L 371.012873 366.617979 
L 372.591597 373.503783 
L 374.170321 371.011232 
L 375.749045 372.229173 
L 377.327769 376.245985 
L 378.906493 386.643681 
L 380.485217 391.220822 
L 382.063941 396.71903 
L 383.642665 403.604834 
L 385.221389 418.937835 
L 389.957561 418.937835 
L 391.536285 403.604834 
L 396.272457 403.604834 
L 397.851181 407.828433 
L 399.429905 403.604834 
L 401.008629 407.828433 
L 401.818097 433 
L 401.818097 433 
" style="fill:none;stroke:#988ed5;stroke-linecap:square;stroke-opacity:0.4;stroke-width:2;"/>
   </g>
   <g id="line2d_65">
    <defs>
     <path d="M 0 3 
C 0.795609 3 1.55874 2.683901 2.12132 2.12132 
C 2.683901 1.55874 3 0.795609 3 0 
C 3 -0.795609 2.683901 -1.55874 2.12132 -2.12132 
C 1.55874 -2.683901 0.795609 -3 0 -3 
C -0.795609 -3 -1.55874 -2.683901 -2.12132 -2.12132 
C -2.683901 -1.55874 -3 -0.795609 -3 0 
C -3 0.795609 -2.683901 1.55874 -2.12132 2.12132 
C -1.55874 2.683901 -0.795609 3 0 3 
z
" id="m0640dc4094" style="stroke:#988ed5;stroke-opacity:0.4;"/>
    </defs>
    <g clip-path="url(#pd7451a1fe6)"/>
   </g>
   <g id="line2d_66">
    <path clip-path="url(#pd7451a1fe6)" d="M 68.83568 433 
L 69.476588 429.800079 
L 71.055312 423.686134 
L 72.634036 423.686134 
L 74.21276 429.800079 
L 74.853668 433 
M 78.682931 433 
L 78.948932 429.800079 
L 80.527656 429.800079 
L 82.10638 423.686134 
L 83.685104 407.581275 
L 85.263828 402.083067 
L 86.842552 402.083067 
L 88.421276 397.505925 
L 90 393.585083 
L 91.578724 381.873477 
L 93.157448 381.873477 
L 94.736172 375.522308 
L 96.314896 366.034631 
L 97.89362 357.985824 
L 99.472344 355.148896 
L 101.051068 350.606328 
L 102.629792 349.124932 
L 104.208516 342.724082 
L 105.78724 337.53901 
L 107.365964 337.303823 
L 108.944688 338.994175 
L 110.523412 334.628611 
L 112.102136 332.780777 
L 113.68086 332.780777 
L 115.259584 333.586693 
L 116.838308 335.056732 
L 118.417032 332.386538 
L 119.995756 330.314136 
L 123.153204 334.841835 
L 124.731928 333.382981 
L 126.310652 332.780777 
L 127.889376 332.386538 
L 129.4681 332.386538 
L 131.046824 328.387523 
L 132.625548 325.961235 
L 134.204272 326.272592 
L 135.782996 325.197978 
L 137.36172 323.307631 
L 138.940444 322.889315 
L 140.519168 324.019338 
L 142.097892 329.246502 
L 143.676616 332.386538 
L 145.25534 331.805615 
L 146.834064 333.180772 
L 148.412788 336.610136 
L 149.991512 339.244397 
L 151.570236 338.746217 
L 153.14896 335.491648 
L 154.727684 336.382756 
L 156.306408 336.157248 
L 157.885132 338.256933 
L 159.463856 335.93358 
L 161.04258 334.841835 
L 162.621304 334.841835 
L 164.200028 334.207077 
L 165.778752 334.417034 
L 167.357476 335.491648 
L 168.9362 335.491648 
L 170.514924 339.244397 
L 172.093648 341.332963 
L 173.672372 344.798522 
L 175.251096 349.48784 
L 176.82982 348.413225 
L 178.408544 350.989539 
L 179.987268 350.989539 
L 181.565992 349.124932 
L 183.144716 352.990367 
L 184.72344 352.990367 
L 186.302164 351.772426 
L 187.880888 352.172421 
L 189.459612 352.172421 
L 191.038336 352.578341 
L 192.61706 352.172421 
L 194.195784 345.421257 
L 195.774508 348.064187 
L 197.353232 345.738014 
L 198.931956 343.890179 
L 200.51068 343.593969 
L 203.668128 344.189627 
L 205.246852 344.189627 
L 206.825576 342.159131 
L 208.4043 346.058475 
L 209.983024 346.382729 
L 211.561748 344.492383 
L 213.140472 344.492383 
L 214.719196 344.798522 
L 216.29792 347.719539 
L 217.876645 341.332963 
L 219.455369 338.500483 
L 221.034093 339.244397 
L 222.612817 339.244397 
L 224.191541 340.795707 
L 225.770265 340.795707 
L 227.348989 338.994175 
L 228.927713 342.724082 
L 230.506437 343.010987 
L 232.085161 344.798522 
L 233.663885 347.042982 
L 236.821333 345.10812 
L 238.400057 347.379172 
L 239.978781 347.719539 
L 241.557505 348.413225 
L 243.136229 348.766768 
L 244.714953 348.064187 
L 246.293677 348.766768 
L 247.872401 353.408683 
L 249.451125 353.408683 
L 251.029849 356.062286 
L 252.608573 357.985824 
L 254.187297 357.492132 
L 255.766021 358.488575 
L 257.344745 357.985824 
L 258.923469 355.601785 
L 260.502193 359.522628 
L 262.080917 358.488575 
L 263.659641 360.597242 
L 265.238365 360.597242 
L 266.817089 359.000723 
L 268.395813 360.054667 
L 269.974537 361.715731 
L 271.553261 361.715731 
L 273.131985 362.881828 
L 274.710709 364.729662 
L 276.289433 362.881828 
L 277.868157 362.292576 
L 279.446881 361.150779 
L 281.025605 362.881828 
L 282.604329 359.522628 
L 284.183053 356.530659 
L 285.761777 355.148896 
L 287.340501 357.007178 
L 288.919225 355.601785 
L 290.497949 357.492132 
L 292.076673 357.492132 
L 293.655397 354.703372 
L 295.234121 353.408683 
L 296.812845 350.989539 
L 298.391569 348.064187 
L 299.970293 349.124932 
L 301.549017 348.766768 
L 303.127741 346.710867 
L 304.706465 349.855619 
L 306.285189 351.378187 
L 307.863913 350.989539 
L 309.442637 351.772426 
L 311.021361 351.378187 
L 312.600085 349.124932 
L 314.178809 349.48784 
L 315.757533 346.710867 
L 317.336257 347.379172 
L 318.914981 347.719539 
L 320.493705 347.042982 
L 322.072429 348.413225 
L 323.651153 349.48784 
L 325.229877 347.379172 
L 326.808601 347.379172 
L 328.387325 346.058475 
L 329.966049 347.719539 
L 331.544773 347.379172 
L 333.123497 348.413225 
L 334.702221 348.064187 
L 336.280945 347.379172 
L 337.859669 346.382729 
L 339.438393 347.042982 
L 341.017117 347.042982 
L 342.595841 347.379172 
L 344.174565 345.421257 
L 345.753289 346.058475 
L 347.332013 348.413225 
L 348.910737 351.772426 
L 350.489461 352.578341 
L 352.068185 351.772426 
L 353.646909 351.772426 
L 355.225633 352.172421 
L 358.383081 344.189627 
L 359.961805 344.492383 
L 361.540529 343.300927 
L 363.119253 341.332963 
L 364.697977 341.605594 
L 366.276701 340.268784 
L 367.855425 343.010987 
L 369.434149 344.798522 
L 371.012873 339.751804 
L 372.591597 337.53901 
L 374.170321 336.157248 
L 375.749045 331.997891 
L 377.327769 332.582948 
L 378.906493 330.679464 
L 380.485217 327.554658 
L 382.063941 327.228474 
L 383.642665 326.429608 
L 385.221389 325.806873 
L 386.800113 325.500734 
L 388.378837 322.889315 
L 389.957561 321.017426 
L 391.536285 318.312174 
L 393.115009 313.492918 
L 394.693733 309.395875 
L 396.272457 307.359339 
L 397.851181 305.906882 
L 401.008629 305.027689 
L 402.587353 304.740784 
L 404.166077 301.961232 
L 405.744801 300.948677 
L 407.323525 296.381096 
L 408.902249 294.797479 
L 410.480973 293.966398 
L 412.059697 293.678991 
L 413.638421 291.61448 
L 415.217145 291.002671 
L 416.795869 287.862085 
L 418.374593 287.064548 
L 419.953317 283.721188 
L 421.532041 282.490286 
L 423.110765 282.363877 
L 424.689489 281.586764 
L 426.268213 278.571555 
L 427.846937 275.168042 
L 429.425661 274.004975 
L 431.004385 271.752944 
L 432.583109 270.395756 
L 434.161833 269.454662 
L 435.740557 267.645794 
L 437.319281 265.197341 
L 438.898005 264.090988 
L 440.476729 260.416161 
L 442.055453 259.456641 
L 446.791625 256.019239 
L 448.370349 255.340624 
L 449.949073 256.444417 
L 451.527797 256.764591 
L 453.106521 254.427041 
L 454.685245 253.67541 
L 456.263969 254.009415 
L 457.842693 253.708628 
L 459.421417 251.855977 
L 461.000141 248.342683 
L 462.578865 246.519216 
L 465.736313 246.054454 
L 467.315037 245.945744 
L 468.893761 244.459516 
L 470.472486 243.903924 
L 473.629934 244.721635 
L 475.208658 244.52283 
L 478.366106 245.180378 
L 479.94483 245.929058 
L 481.523554 246.476638 
L 483.102278 246.138372 
L 484.681002 246.544795 
L 486.259726 247.38498 
L 487.83845 247.873075 
L 490.995898 248.479657 
L 492.574622 248.857582 
L 494.153346 250.286433 
L 495.73207 250.159608 
L 497.310794 250.159608 
L 498.889518 250.551731 
L 500.468242 250.512265 
L 502.046966 251.130468 
L 503.62569 250.759865 
L 505.204414 251.150644 
L 506.783138 252.368126 
L 508.361862 252.569319 
L 509.940586 253.051805 
L 511.51931 253.2581 
L 513.098034 253.697551 
L 514.676758 255.211576 
L 516.255482 254.449798 
L 517.834206 256.653337 
L 519.41293 262.305497 
L 520.991654 263.641548 
L 522.570378 264.416591 
L 524.149102 264.449365 
L 525.727826 262.96538 
L 527.30655 262.381416 
L 528.885274 260.02273 
L 530.463998 259.566183 
L 532.042722 259.511357 
L 533.621446 259.333927 
L 535.20017 258.87524 
L 536.778894 259.036254 
L 538.357618 264.188263 
L 539.936342 265.332479 
L 541.515066 260.176619 
L 543.09379 258.582483 
L 544.672514 258.14913 
L 546.251238 258.305921 
L 547.829962 259.26599 
L 549.408686 256.727456 
L 550.98741 256.055425 
L 552.566134 256.888737 
L 554.144858 257.340382 
L 555.723582 257.63288 
L 558.88103 258.622221 
L 560.459754 258.123085 
L 562.038478 258.662016 
L 568.353374 259.98091 
L 569.932098 260.743617 
L 574.66827 260.743617 
L 574.66827 260.743617 
" style="fill:none;stroke:#777777;stroke-linecap:square;stroke-opacity:0.4;stroke-width:2;"/>
   </g>
   <g id="line2d_67">
    <defs>
     <path d="M 0 3 
C 0.795609 3 1.55874 2.683901 2.12132 2.12132 
C 2.683901 1.55874 3 0.795609 3 0 
C 3 -0.795609 2.683901 -1.55874 2.12132 -2.12132 
C 1.55874 -2.683901 0.795609 -3 0 -3 
C -0.795609 -3 -1.55874 -2.683901 -2.12132 -2.12132 
C -2.683901 -1.55874 -3 -0.795609 -3 0 
C -3 0.795609 -2.683901 1.55874 -2.12132 2.12132 
C -1.55874 2.683901 -0.795609 3 0 3 
z
" id="m32eaa2bd0d" style="stroke:#777777;stroke-opacity:0.4;"/>
    </defs>
    <g clip-path="url(#pd7451a1fe6)">
     <use style="fill:#777777;fill-opacity:0.4;stroke:#777777;stroke-opacity:0.4;" x="574.66827" xlink:href="#m32eaa2bd0d" y="260.743617"/>
    </g>
   </g>
   <g id="line2d_68">
    <path clip-path="url(#pd7451a1fe6)" d="M 67.897783 433 
L 67.897864 429.76435 
L 71.055312 391.781052 
L 72.634036 391.781052 
L 74.21276 385.667107 
L 77.370208 359.486898 
L 78.948932 361.680001 
L 80.527656 364.06404 
L 82.10638 361.680001 
L 83.685104 355.566056 
L 85.263828 350.570599 
L 86.842552 350.570599 
L 88.421276 353.797755 
L 90 347.683809 
L 91.578724 343.85445 
L 93.157448 342.688352 
L 96.314896 345.072391 
L 97.89362 346.347 
L 99.472344 345.072391 
L 102.629792 345.072391 
L 104.208516 347.683809 
L 107.365964 345.072391 
L 108.944688 341.569864 
L 110.523412 342.688352 
L 112.102136 342.688352 
L 113.68086 340.49525 
L 115.259584 337.503281 
L 116.838308 336.574407 
L 118.417032 336.574407 
L 119.995756 339.461196 
L 121.57448 338.464754 
L 124.731928 338.464754 
L 126.310652 339.461196 
L 129.4681 337.503281 
L 131.046824 334.806106 
L 132.625548 334.806106 
L 134.204272 332.350808 
L 135.782996 333.145042 
L 137.36172 332.350808 
L 138.940444 332.350808 
L 140.519168 333.145042 
L 142.097892 333.145042 
L 143.676616 331.57895 
L 145.25534 333.962988 
L 146.834064 333.962988 
L 148.412788 333.145042 
L 153.14896 333.145042 
L 154.727684 333.962988 
L 156.306408 333.962988 
L 157.885132 332.350808 
L 159.463856 333.145042 
L 161.04258 333.145042 
L 164.200028 331.57895 
L 165.778752 331.57895 
L 168.9362 333.145042 
L 170.514924 333.145042 
L 172.093648 332.350808 
L 173.672372 333.145042 
L 175.251096 333.145042 
L 176.82982 331.57895 
L 178.408544 329.385847 
L 179.987268 328.692161 
L 181.565992 328.692161 
L 183.144716 329.385847 
L 184.72344 328.692161 
L 186.302164 329.385847 
L 187.880888 331.57895 
L 191.038336 331.57895 
L 192.61706 330.097554 
L 195.774508 328.692161 
L 197.353232 330.097554 
L 198.931956 329.385847 
L 200.51068 329.385847 
L 202.089404 330.097554 
L 203.668128 331.57895 
L 205.246852 331.57895 
L 206.825576 333.145042 
L 208.4043 330.828241 
L 211.561748 332.350808 
L 213.140472 331.57895 
L 214.719196 330.097554 
L 216.29792 329.385847 
L 217.876645 328.015604 
L 219.455369 328.692161 
L 222.612817 326.080742 
L 224.191541 325.465005 
L 225.770265 326.080742 
L 227.348989 327.355351 
L 228.927713 328.015604 
L 230.506437 328.015604 
L 232.085161 329.385847 
L 236.821333 331.57895 
L 238.400057 330.828241 
L 241.557505 332.350808 
L 243.136229 332.350808 
L 244.714953 333.962988 
L 246.293677 333.962988 
L 247.872401 333.145042 
L 249.451125 333.962988 
L 251.029849 332.350808 
L 254.187297 332.350808 
L 255.766021 331.57895 
L 258.923469 333.145042 
L 260.502193 332.350808 
L 262.080917 333.962988 
L 265.238365 333.962988 
L 268.395813 337.503281 
L 269.974537 339.461196 
L 271.553261 342.688352 
L 273.131985 345.072391 
L 274.710709 347.683809 
L 276.289433 350.570599 
L 279.446881 350.570599 
L 282.604329 347.683809 
L 284.183053 350.570599 
L 285.761777 343.85445 
L 288.919225 341.569864 
L 290.497949 339.461196 
L 293.655397 337.503281 
L 295.234121 333.145042 
L 296.812845 334.806106 
L 298.391569 333.962988 
L 299.970293 332.350808 
L 304.706465 332.350808 
L 306.285189 333.145042 
L 307.863913 333.145042 
L 309.442637 332.350808 
L 311.021361 333.145042 
L 317.336257 333.145042 
L 318.914981 332.350808 
L 323.651153 332.350808 
L 326.808601 330.828241 
L 328.387325 329.385847 
L 329.966049 329.385847 
L 331.544773 328.692161 
L 333.123497 328.692161 
L 334.702221 328.015604 
L 336.280945 329.385847 
L 337.859669 332.350808 
L 339.438393 334.806106 
L 341.017117 336.574407 
L 342.595841 337.503281 
L 344.174565 336.574407 
L 345.753289 337.503281 
L 347.332013 335.675994 
L 348.910737 333.145042 
L 350.489461 330.828241 
L 352.068185 330.097554 
L 353.646909 330.828241 
L 359.961805 330.828241 
L 361.540529 330.097554 
L 363.119253 333.962988 
L 364.697977 328.692161 
L 366.276701 328.692161 
L 367.855425 328.015604 
L 371.012873 328.015604 
L 372.591597 333.145042 
L 374.170321 325.465005 
L 375.749045 329.385847 
L 380.485217 331.57895 
L 382.063941 331.57895 
L 383.642665 328.692161 
L 385.221389 333.962988 
L 389.957561 336.574407 
L 391.536285 337.503281 
L 393.115009 342.688352 
L 394.693733 338.464754 
L 402.587353 338.464754 
L 404.166077 334.806106 
L 405.744801 339.461196 
L 407.323525 338.464754 
L 408.902249 338.464754 
L 413.638421 341.569864 
L 415.217145 342.688352 
L 416.795869 342.688352 
L 418.374593 345.072391 
L 419.953317 345.072391 
L 421.532041 342.688352 
L 423.110765 339.461196 
L 424.689489 337.503281 
L 426.268213 334.806106 
L 427.846937 332.350808 
L 429.425661 329.385847 
L 431.004385 327.355351 
L 432.583109 326.080742 
L 434.161833 325.465005 
L 435.740557 324.273549 
L 437.319281 323.696704 
L 438.898005 322.578215 
L 440.476729 322.578215 
L 443.634177 321.503601 
L 445.212901 321.503601 
L 446.791625 320.469548 
L 448.370349 319.966797 
L 449.949073 320.469548 
L 451.527797 319.966797 
L 453.106521 320.469548 
L 454.685245 320.469548 
L 456.263969 319.966797 
L 457.842693 320.981696 
L 464.157589 318.988151 
L 465.736313 319.473105 
L 467.315037 319.473105 
L 468.893761 318.988151 
L 470.472486 319.473105 
L 473.629934 319.473105 
L 476.787382 317.582758 
L 478.366106 317.129869 
L 479.94483 317.129869 
L 481.523554 316.684345 
L 483.102278 316.684345 
L 489.417174 318.511632 
L 490.995898 318.043259 
L 492.574622 318.043259 
L 495.73207 317.129869 
L 497.310794 317.129869 
L 500.468242 315.389656 
L 502.046966 314.97134 
L 506.783138 314.97134 
L 508.361862 314.559314 
L 509.940586 314.559314 
L 513.098034 315.389656 
L 516.255482 315.389656 
L 517.834206 314.97134 
L 520.991654 315.814457 
L 522.570378 315.814457 
L 525.727826 314.97134 
L 527.30655 314.97134 
L 528.885274 315.389656 
L 530.463998 315.389656 
L 532.042722 314.97134 
L 533.621446 314.97134 
L 536.778894 315.814457 
L 538.357618 314.97134 
L 539.936342 314.559314 
L 543.09379 314.559314 
L 544.672514 314.153394 
L 549.408686 314.153394 
L 549.408686 314.153394 
" style="fill:none;stroke:#fbc15e;stroke-linecap:square;stroke-opacity:0.4;stroke-width:2;"/>
   </g>
   <g id="line2d_69">
    <defs>
     <path d="M 0 3 
C 0.795609 3 1.55874 2.683901 2.12132 2.12132 
C 2.683901 1.55874 3 0.795609 3 0 
C 3 -0.795609 2.683901 -1.55874 2.12132 -2.12132 
C 1.55874 -2.683901 0.795609 -3 0 -3 
C -0.795609 -3 -1.55874 -2.683901 -2.12132 -2.12132 
C -2.683901 -1.55874 -3 -0.795609 -3 0 
C -3 0.795609 -2.683901 1.55874 -2.12132 2.12132 
C -1.55874 2.683901 -0.795609 3 0 3 
z
" id="mea53620c95" style="stroke:#fbc15e;stroke-opacity:0.4;"/>
    </defs>
    <g clip-path="url(#pd7451a1fe6)">
     <use style="fill:#fbc15e;fill-opacity:0.4;stroke:#fbc15e;stroke-opacity:0.4;" x="549.408686" xlink:href="#mea53620c95" y="314.153394"/>
    </g>
   </g>
   <g id="line2d_70">
    <path clip-path="url(#pd7451a1fe6)" d="M 72.633894 433 
L 72.634036 427.357339 
L 75.791484 427.357339 
L 77.370208 408.36569 
L 78.948932 408.36569 
L 80.527656 397.256287 
L 82.10638 389.374041 
L 83.685104 397.256287 
L 85.263828 364.268447 
L 86.842552 359.27299 
L 90 359.27299 
L 91.578724 340.281341 
L 93.157448 340.281341 
L 94.736172 328.42123 
L 96.314896 324.303624 
L 97.89362 314.277333 
L 99.472344 305.956691 
L 101.051068 299.583036 
L 102.629792 302.584948 
L 104.208516 295.06561 
L 105.78724 290.070153 
L 107.365964 285.535197 
L 110.523412 281.915276 
L 112.102136 277.306851 
L 113.68086 270.091848 
L 115.259584 268.05506 
L 116.838308 267.249144 
L 118.417032 266.083047 
L 119.995756 263.059603 
L 121.57448 262.187586 
L 123.153204 262.788322 
L 124.731928 264.030814 
L 126.310652 262.720919 
L 127.889376 262.386371 
L 129.4681 262.452955 
L 131.046824 265.332338 
L 132.625548 263.81978 
L 134.204272 265.111078 
L 135.782996 266.621056 
L 137.36172 267.328678 
L 138.940444 268.219127 
L 140.519168 268.885401 
L 142.097892 268.301531 
L 143.676616 272.292294 
L 145.25534 271.913061 
L 146.834064 270.715596 
L 148.412788 273.965293 
L 149.991512 274.169005 
L 151.570236 274.78939 
L 153.14896 278.239678 
L 154.727684 279.952683 
L 156.306408 277.65295 
L 159.463856 281.245336 
L 161.04258 283.88324 
L 162.621304 287.458734 
L 164.200028 287.792874 
L 165.778752 289.707245 
L 167.357476 296.413381 
L 168.9362 302.298043 
L 170.514924 304.372483 
L 172.093648 309.802364 
L 173.672372 311.346387 
L 175.251096 311.746382 
L 176.82982 310.563501 
L 178.408544 314.722858 
L 179.987268 310.18029 
L 181.565992 312.982644 
L 183.144716 314.277333 
L 186.302164 320.724741 
L 187.880888 321.289692 
L 189.459612 325.608592 
L 191.038336 340.281341 
L 192.61706 342.665379 
L 194.195784 338.088238 
L 195.774508 339.162853 
L 197.353232 338.088238 
L 198.931956 339.162853 
L 200.51068 337.054185 
L 202.089404 340.281341 
L 203.668128 339.162853 
L 205.246852 343.939989 
L 206.825576 351.390743 
L 208.4043 355.049391 
L 209.983024 355.049391 
L 211.561748 374.04104 
L 213.140472 383.260096 
L 214.719196 389.374041 
L 216.29792 408.36569 
L 219.455369 408.36569 
L 221.034093 427.357339 
L 222.612817 397.256287 
L 224.191541 355.049391 
L 227.348989 351.390743 
L 228.927713 349.72968 
L 232.085161 349.72968 
L 233.663885 351.390743 
L 235.242609 345.276798 
L 236.821333 345.276798 
L 239.978781 348.163587 
L 243.136229 348.163587 
L 244.714953 349.72968 
L 246.293677 408.36569 
L 249.451125 408.36569 
L 251.029849 378.264639 
L 255.766021 378.264639 
L 257.344745 374.04104 
L 260.502193 374.04104 
L 262.080917 397.256287 
L 268.395813 397.256287 
L 269.974537 427.357339 
L 273.131985 427.357339 
L 274.710709 397.256287 
L 277.868157 397.256287 
L 279.446881 408.36569 
L 281.025605 408.36569 
L 282.604329 397.256287 
L 284.183053 397.256287 
L 285.761777 427.357339 
L 287.340501 427.357339 
L 288.919225 397.256287 
L 290.497949 389.374041 
L 292.076673 389.374041 
L 293.655397 378.264639 
L 295.234121 370.382392 
L 298.391569 370.382392 
L 299.970293 374.04104 
L 301.549017 378.264639 
L 303.127741 374.04104 
L 304.706465 383.260096 
L 306.285189 389.374041 
L 309.442637 389.374041 
L 311.021361 397.256287 
L 312.600085 397.256287 
L 314.178809 383.260096 
L 320.493705 383.260096 
L 322.072429 378.264639 
L 323.651153 367.155236 
L 325.229877 374.04104 
L 326.808601 378.264639 
L 328.387325 383.260096 
L 331.544773 383.260096 
L 333.123497 389.374041 
L 334.702221 408.36569 
L 336.280945 383.260096 
L 337.859669 374.04104 
L 339.438393 367.155236 
L 341.017117 367.155236 
L 342.595841 364.268447 
L 345.753289 364.268447 
L 348.910737 383.260096 
L 350.489461 389.374041 
L 352.068185 383.260096 
L 353.646909 389.374041 
L 355.225633 383.260096 
L 356.804357 367.155236 
L 358.383081 370.382392 
L 359.961805 364.268447 
L 361.540529 367.155236 
L 363.119253 370.382392 
L 366.276701 370.382392 
L 367.855425 374.04104 
L 369.434149 370.382392 
L 371.012873 374.04104 
L 374.170321 374.04104 
L 375.749045 370.382392 
L 377.327769 361.657028 
L 378.906493 364.268447 
L 380.485217 345.276798 
L 382.063941 342.665379 
L 383.642665 339.162853 
L 385.221389 339.162853 
L 386.800113 340.281341 
L 389.957561 338.088238 
L 391.536285 343.939989 
L 393.115009 346.682191 
L 397.851181 346.682191 
L 399.429905 353.159044 
L 401.008629 353.159044 
L 404.166077 357.079887 
L 405.744801 361.657028 
L 408.902249 357.079887 
L 410.480973 357.079887 
L 412.059697 359.27299 
L 413.638421 370.382392 
L 415.217145 357.079887 
L 416.795869 357.079887 
L 418.374593 359.27299 
L 419.953317 361.657028 
L 421.532041 348.163587 
L 424.689489 337.054185 
L 426.268213 336.057742 
L 427.846937 330.738031 
L 429.425661 330.738031 
L 431.004385 329.943797 
L 432.583109 324.94834 
L 434.161833 324.94834 
L 434.16454 433 
M 445.212283 433 
L 445.212901 408.36569 
L 446.791625 296.413381 
L 448.370349 289.349081 
L 449.949073 280.851097 
L 451.527797 280.079239 
L 453.106521 276.852083 
L 454.685245 271.725394 
L 456.263969 268.969836 
L 457.842693 263.402526 
L 459.421417 261.342467 
L 461.000141 261.024239 
L 462.578865 259.847597 
L 464.157589 260.213738 
L 465.736313 257.192129 
L 467.315037 254.872354 
L 468.893761 254.075231 
L 470.472486 252.640392 
L 472.05121 251.859475 
L 475.208658 252.224194 
L 476.787382 250.576633 
L 478.366106 249.851632 
L 479.94483 249.809577 
L 483.102278 248.778636 
L 484.681002 248.65749 
L 486.259726 248.376882 
L 487.83845 248.416793 
L 489.417174 250.147842 
L 490.995898 250.837165 
L 492.574622 250.750046 
L 494.153346 253.06301 
L 495.73207 252.547356 
L 497.310794 252.362226 
L 498.889518 252.408391 
L 500.468242 250.663202 
L 503.62569 248.981745 
L 505.204414 247.015395 
L 506.783138 247.746082 
L 508.361862 247.902426 
L 509.940586 248.65749 
L 511.51931 249.767586 
L 513.098034 249.268649 
L 514.676758 250.19042 
L 516.255482 250.53345 
L 517.834206 249.809577 
L 519.41293 250.490336 
L 520.991654 249.516982 
L 522.570378 248.941002 
L 525.727826 249.351177 
L 527.30655 250.619883 
L 528.885274 250.924563 
L 530.463998 250.447289 
L 532.042722 250.880829 
L 533.621446 249.55859 
L 535.20017 249.893752 
L 536.778894 251.589086 
L 538.357618 252.178338 
L 539.936342 252.500956 
L 541.515066 252.640392 
L 543.09379 252.96853 
L 544.672514 253.540359 
L 546.251238 253.733652 
L 547.829962 254.620753 
L 549.408686 254.721116 
L 550.98741 255.177357 
L 552.566134 255.126286 
L 554.144858 254.173612 
L 555.723582 255.745503 
L 557.302306 256.272426 
L 558.88103 255.331141 
L 560.459754 255.693364 
L 563.617202 256.007698 
L 565.195926 260.213738 
L 566.77465 259.847597 
L 568.353374 262.386371 
L 569.932098 262.653682 
L 571.510822 262.121643 
L 573.089546 261.729286 
L 574.66827 262.187586 
L 576.246994 261.342467 
L 577.825718 263.960289 
L 579.404442 262.991531 
L 580.983166 264.243486 
L 582.56189 264.030814 
L 584.140614 264.964559 
L 585.719338 264.386191 
L 587.298062 266.543548 
L 590.45551 267.973393 
L 595.191682 267.973393 
L 595.191682 267.973393 
" style="fill:none;stroke:#8eba42;stroke-linecap:square;stroke-opacity:0.4;stroke-width:2;"/>
   </g>
   <g id="line2d_71">
    <defs>
     <path d="M 0 3 
C 0.795609 3 1.55874 2.683901 2.12132 2.12132 
C 2.683901 1.55874 3 0.795609 3 0 
C 3 -0.795609 2.683901 -1.55874 2.12132 -2.12132 
C 1.55874 -2.683901 0.795609 -3 0 -3 
C -0.795609 -3 -1.55874 -2.683901 -2.12132 -2.12132 
C -2.683901 -1.55874 -3 -0.795609 -3 0 
C -3 0.795609 -2.683901 1.55874 -2.12132 2.12132 
C -1.55874 2.683901 -0.795609 3 0 3 
z
" id="mffcec37d96" style="stroke:#8eba42;stroke-opacity:0.4;"/>
    </defs>
    <g clip-path="url(#pd7451a1fe6)">
     <use style="fill:#8eba42;fill-opacity:0.4;stroke:#8eba42;stroke-opacity:0.4;" x="595.191682" xlink:href="#mffcec37d96" y="267.973393"/>
    </g>
   </g>
   <g id="line2d_72">
    <path clip-path="url(#pd7451a1fe6)" d="M 93.15492 433 
L 93.157448 432.984955 
L 94.736172 428.137202 
L 96.314896 425.324565 
L 97.89362 420.440714 
L 99.472344 408.777774 
L 101.051068 399.558718 
L 102.629792 388.189606 
L 104.208516 379.168201 
L 105.78724 369.370823 
L 107.365964 362.369655 
L 108.944688 356.471452 
L 113.68086 334.264683 
L 116.838308 320.278123 
L 118.417032 313.456622 
L 119.995756 308.502505 
L 121.57448 304.083494 
L 123.153204 298.007985 
L 126.310652 287.407587 
L 127.889376 283.79851 
L 131.046824 277.362062 
L 132.625548 274.339518 
L 134.204272 270.599246 
L 135.782996 268.595033 
L 138.940444 265.449805 
L 140.519168 264.330145 
L 143.676616 263.508062 
L 145.25534 263.747517 
L 146.834064 262.924658 
L 148.412788 263.006734 
L 151.570236 263.522625 
L 153.14896 263.308597 
L 154.727684 262.889049 
L 156.306408 262.720536 
L 157.885132 263.022821 
L 159.463856 262.498623 
L 161.04258 262.377856 
L 162.621304 262.848156 
L 164.200028 263.913249 
L 165.778752 265.29979 
L 167.357476 265.916763 
L 168.9362 265.736525 
L 170.514924 265.841355 
L 172.093648 266.385753 
L 173.672372 266.387775 
L 175.251096 266.860854 
L 176.82982 267.150335 
L 178.408544 267.01969 
L 179.987268 267.373662 
L 181.565992 268.407232 
L 184.72344 269.094781 
L 186.302164 269.560653 
L 187.880888 270.306129 
L 191.038336 273.456713 
L 192.61706 273.820215 
L 194.195784 274.030497 
L 195.774508 274.734189 
L 197.353232 275.142974 
L 198.931956 274.657532 
L 200.51068 274.97928 
L 202.089404 275.614514 
L 203.668128 277.289736 
L 205.246852 278.599623 
L 208.4043 279.498142 
L 209.983024 281.588678 
L 211.561748 284.710412 
L 214.719196 284.928291 
L 216.29792 285.240285 
L 217.876645 286.044459 
L 219.455369 285.690492 
L 221.034093 284.797356 
L 222.612817 283.344307 
L 224.191541 285.312791 
L 225.770265 285.920462 
L 228.927713 288.180316 
L 230.506437 289.295446 
L 232.085161 290.604282 
L 235.242609 291.702392 
L 236.821333 292.555856 
L 238.400057 292.926121 
L 239.978781 292.561111 
L 243.136229 293.934992 
L 244.714953 294.493153 
L 247.872401 296.335611 
L 251.029849 298.356366 
L 252.608573 298.460447 
L 254.187297 298.447415 
L 257.344745 298.213898 
L 258.923469 299.180216 
L 260.502193 299.401909 
L 262.080917 300.064136 
L 265.238365 300.098709 
L 266.817089 301.584334 
L 268.395813 302.026147 
L 269.974537 300.643775 
L 271.553261 300.411846 
L 273.131985 301.959419 
L 274.710709 301.870701 
L 276.289433 302.078159 
L 277.868157 298.149384 
L 279.446881 297.137296 
L 281.025605 295.49816 
L 282.604329 294.628821 
L 284.183053 292.356931 
L 285.761777 291.529782 
L 287.340501 291.207791 
L 288.919225 292.603182 
L 290.497949 292.025131 
L 292.076673 292.247616 
L 293.655397 291.702392 
L 295.234121 290.904375 
L 296.812845 290.879653 
L 298.391569 290.307441 
L 299.970293 289.379535 
L 301.549017 288.23411 
L 303.127741 287.634931 
L 304.706465 286.626418 
L 306.285189 286.584135 
L 307.863913 286.369503 
L 309.442637 284.009229 
L 311.021361 283.108831 
L 312.600085 282.359933 
L 315.757533 281.51484 
L 317.336257 280.766694 
L 318.914981 281.13475 
L 320.493705 283.172173 
L 325.229877 283.273077 
L 328.387325 283.449616 
L 329.966049 282.9937 
L 331.544773 283.03821 
L 333.123497 284.248727 
L 334.702221 283.806144 
L 336.280945 284.451223 
L 337.859669 284.066981 
L 339.438393 284.256488 
L 341.017117 284.097831 
L 342.595841 284.466862 
L 344.174565 283.453385 
L 345.753289 284.190592 
L 347.332013 284.097831 
L 348.910737 285.039881 
L 350.489461 285.280542 
L 352.068185 285.764201 
L 353.646909 285.784711 
L 356.804357 286.529265 
L 358.383081 286.457677 
L 359.961805 287.001346 
L 361.540529 287.311968 
L 363.119253 287.377127 
L 364.697977 287.005636 
L 367.855425 288.536418 
L 369.434149 288.727639 
L 371.012873 288.74592 
L 372.591597 289.318778 
L 374.170321 289.459191 
L 375.749045 290.672866 
L 377.327769 293.764246 
L 378.906493 293.156075 
L 380.485217 293.929468 
L 382.063941 292.655863 
L 383.642665 292.947431 
L 385.221389 293.038183 
L 386.800113 292.362148 
L 388.378837 288.333008 
L 389.957561 289.128037 
L 391.536285 289.370179 
L 393.115009 290.702312 
L 394.693733 290.731789 
L 396.272457 291.459023 
L 397.851181 291.39348 
L 399.429905 292.788009 
L 401.008629 292.273604 
L 402.587353 291.963363 
L 404.166077 291.911996 
L 407.323525 291.489326 
L 408.902249 291.958222 
L 412.059697 293.39881 
L 413.638421 293.786218 
L 415.217145 293.791714 
L 416.795869 294.240573 
L 418.374593 293.874283 
L 419.953317 293.18294 
L 421.532041 294.145756 
L 423.110765 294.324508 
L 424.689489 293.687482 
L 426.268213 293.540043 
L 427.846937 293.753267 
L 429.425661 293.355499 
L 431.004385 293.957102 
L 434.161833 293.139969 
L 435.740557 293.896344 
L 437.319281 294.173609 
L 438.898005 293.523709 
L 440.476729 293.42049 
L 443.634177 292.128387 
L 445.212901 291.19279 
L 448.370349 290.751458 
L 449.949073 289.846698 
L 451.527797 290.114523 
L 454.685245 289.76591 
L 456.263969 290.506603 
L 459.421417 289.652259 
L 461.000141 289.894332 
L 464.157589 289.459191 
L 465.736313 286.779178 
L 467.315037 286.424053 
L 470.472486 285.075845 
L 472.05121 284.596224 
L 473.629934 284.345894 
L 475.208658 283.737513 
L 476.787382 284.470773 
L 478.366106 283.216973 
L 479.94483 283.079073 
L 481.523554 283.127446 
L 483.102278 282.204655 
L 484.681002 281.652126 
L 486.259726 281.49378 
L 487.83845 280.433879 
L 489.417174 278.93632 
L 490.995898 276.497738 
L 492.574622 274.499423 
L 497.310794 272.76427 
L 500.468242 270.712642 
L 502.046966 272.525484 
L 503.62569 273.706432 
L 505.204414 274.371966 
L 506.783138 274.483119 
L 508.361862 273.830823 
L 511.51931 271.417621 
L 513.098034 267.751384 
L 514.676758 265.342567 
L 516.255482 263.517163 
L 519.41293 262.553054 
L 520.991654 262.572394 
L 522.570378 262.099848 
L 524.149102 262.035958 
L 525.727826 260.856138 
L 527.30655 260.701285 
L 528.885274 260.287175 
L 530.463998 260.238676 
L 532.042722 259.423913 
L 533.621446 258.473201 
L 535.20017 257.78527 
L 536.778894 258.556622 
L 541.515066 257.651202 
L 543.09379 257.197904 
L 544.672514 257.661492 
L 546.251238 258.374939 
L 547.829962 260.937208 
L 549.408686 262.370871 
L 550.98741 262.865928 
L 552.566134 262.770096 
L 554.144858 262.261097 
L 555.723582 261.582674 
L 557.302306 260.671731 
L 558.88103 259.309694 
L 560.459754 258.257488 
L 566.77465 257.494396 
L 568.353374 256.720712 
L 569.932098 254.004498 
L 571.510822 252.842046 
L 573.089546 252.260089 
L 574.66827 252.246813 
L 576.246994 251.396238 
L 579.404442 251.333146 
L 580.983166 251.60524 
L 582.56189 251.486453 
L 584.140614 251.572257 
L 585.719338 252.289076 
L 587.298062 254.414087 
L 588.876786 253.879988 
L 590.45551 253.532571 
L 593.612958 253.618696 
L 595.191682 253.588268 
L 596.770406 252.947059 
L 598.34913 251.371685 
L 599.927854 251.883635 
L 604.664026 251.883635 
L 604.664026 251.883635 
" style="fill:none;stroke:#ffb5b8;stroke-linecap:square;stroke-opacity:0.4;stroke-width:2;"/>
   </g>
   <g id="line2d_73">
    <defs>
     <path d="M 0 3 
C 0.795609 3 1.55874 2.683901 2.12132 2.12132 
C 2.683901 1.55874 3 0.795609 3 0 
C 3 -0.795609 2.683901 -1.55874 2.12132 -2.12132 
C 1.55874 -2.683901 0.795609 -3 0 -3 
C -0.795609 -3 -1.55874 -2.683901 -2.12132 -2.12132 
C -2.683901 -1.55874 -3 -0.795609 -3 0 
C -3 0.795609 -2.683901 1.55874 -2.12132 2.12132 
C -1.55874 2.683901 -0.795609 3 0 3 
z
" id="m8eabe4df04" style="stroke:#ffb5b8;stroke-opacity:0.4;"/>
    </defs>
    <g clip-path="url(#pd7451a1fe6)">
     <use style="fill:#ffb5b8;fill-opacity:0.4;stroke:#ffb5b8;stroke-opacity:0.4;" x="604.664026" xlink:href="#m8eabe4df04" y="251.883635"/>
    </g>
   </g>
   <g id="patch_3">
    <path d="M 90 378 
L 90 229.745455 
" style="fill:none;stroke:#ffffff;stroke-linecap:square;stroke-linejoin:miter;"/>
   </g>
   <g id="patch_4">
    <path d="M 648 378 
L 648 229.745455 
" style="fill:none;stroke:#ffffff;stroke-linecap:square;stroke-linejoin:miter;"/>
   </g>
   <g id="patch_5">
    <path d="M 90 378 
L 648 378 
" style="fill:none;stroke:#ffffff;stroke-linecap:square;stroke-linejoin:miter;"/>
   </g>
   <g id="patch_6">
    <path d="M 90 229.745455 
L 648 229.745455 
" style="fill:none;stroke:#ffffff;stroke-linecap:square;stroke-linejoin:miter;"/>
   </g>
   <g id="text_17">
    <!-- Korea, South -->
    <g transform="translate(618.872542 359.695162)scale(0.1 -0.1)">
     <defs>
      <path d="M 11.71875 12.40625 
L 22.015625 12.40625 
L 22.015625 4 
L 14.015625 -11.625 
L 7.71875 -11.625 
L 11.71875 4 
z
" id="DejaVuSans-44"/>
      <path d="M 53.515625 70.515625 
L 53.515625 60.890625 
Q 47.90625 63.578125 42.921875 64.890625 
Q 37.9375 66.21875 33.296875 66.21875 
Q 25.25 66.21875 20.875 63.09375 
Q 16.5 59.96875 16.5 54.203125 
Q 16.5 49.359375 19.40625 46.890625 
Q 22.3125 44.4375 30.421875 42.921875 
L 36.375 41.703125 
Q 47.40625 39.59375 52.65625 34.296875 
Q 57.90625 29 57.90625 20.125 
Q 57.90625 9.515625 50.796875 4.046875 
Q 43.703125 -1.421875 29.984375 -1.421875 
Q 24.8125 -1.421875 18.96875 -0.25 
Q 13.140625 0.921875 6.890625 3.21875 
L 6.890625 13.375 
Q 12.890625 10.015625 18.65625 8.296875 
Q 24.421875 6.59375 29.984375 6.59375 
Q 38.421875 6.59375 43.015625 9.90625 
Q 47.609375 13.234375 47.609375 19.390625 
Q 47.609375 24.75 44.3125 27.78125 
Q 41.015625 30.8125 33.5 32.328125 
L 27.484375 33.5 
Q 16.453125 35.6875 11.515625 40.375 
Q 6.59375 45.0625 6.59375 53.421875 
Q 6.59375 63.09375 13.40625 68.65625 
Q 20.21875 74.21875 32.171875 74.21875 
Q 37.3125 74.21875 42.625 73.28125 
Q 47.953125 72.359375 53.515625 70.515625 
z
" id="DejaVuSans-83"/>
      <path d="M 8.5 21.578125 
L 8.5 54.6875 
L 17.484375 54.6875 
L 17.484375 21.921875 
Q 17.484375 14.15625 20.5 10.265625 
Q 23.53125 6.390625 29.59375 6.390625 
Q 36.859375 6.390625 41.078125 11.03125 
Q 45.3125 15.671875 45.3125 23.6875 
L 45.3125 54.6875 
L 54.296875 54.6875 
L 54.296875 0 
L 45.3125 0 
L 45.3125 8.40625 
Q 42.046875 3.421875 37.71875 1 
Q 33.40625 -1.421875 27.6875 -1.421875 
Q 18.265625 -1.421875 13.375 4.4375 
Q 8.5 10.296875 8.5 21.578125 
z
M 31.109375 56 
z
" id="DejaVuSans-117"/>
     </defs>
     <use xlink:href="#DejaVuSans-75"/>
     <use x="60.576172" xlink:href="#DejaVuSans-111"/>
     <use x="121.757812" xlink:href="#DejaVuSans-114"/>
     <use x="160.621094" xlink:href="#DejaVuSans-101"/>
     <use x="222.144531" xlink:href="#DejaVuSans-97"/>
     <use x="283.423828" xlink:href="#DejaVuSans-44"/>
     <use x="315.210938" xlink:href="#DejaVuSans-32"/>
     <use x="346.998047" xlink:href="#DejaVuSans-83"/>
     <use x="410.474609" xlink:href="#DejaVuSans-111"/>
     <use x="471.65625" xlink:href="#DejaVuSans-117"/>
     <use x="535.035156" xlink:href="#DejaVuSans-116"/>
     <use x="574.244141" xlink:href="#DejaVuSans-104"/>
    </g>
   </g>
   <g id="text_18">
    <!-- Germany -->
    <g transform="translate(598.34913 259.153524)scale(0.1 -0.1)">
     <defs>
      <path d="M 59.515625 10.40625 
L 59.515625 29.984375 
L 43.40625 29.984375 
L 43.40625 38.09375 
L 69.28125 38.09375 
L 69.28125 6.78125 
Q 63.578125 2.734375 56.6875 0.65625 
Q 49.8125 -1.421875 42 -1.421875 
Q 24.90625 -1.421875 15.25 8.5625 
Q 5.609375 18.5625 5.609375 36.375 
Q 5.609375 54.25 15.25 64.234375 
Q 24.90625 74.21875 42 74.21875 
Q 49.125 74.21875 55.546875 72.453125 
Q 61.96875 70.703125 67.390625 67.28125 
L 67.390625 56.78125 
Q 61.921875 61.421875 55.765625 63.765625 
Q 49.609375 66.109375 42.828125 66.109375 
Q 29.4375 66.109375 22.71875 58.640625 
Q 16.015625 51.171875 16.015625 36.375 
Q 16.015625 21.625 22.71875 14.15625 
Q 29.4375 6.6875 42.828125 6.6875 
Q 48.046875 6.6875 52.140625 7.59375 
Q 56.25 8.5 59.515625 10.40625 
z
" id="DejaVuSans-71"/>
     </defs>
     <use xlink:href="#DejaVuSans-71"/>
     <use x="77.490234" xlink:href="#DejaVuSans-101"/>
     <use x="139.013672" xlink:href="#DejaVuSans-114"/>
     <use x="178.376953" xlink:href="#DejaVuSans-109"/>
     <use x="275.789062" xlink:href="#DejaVuSans-97"/>
     <use x="337.068359" xlink:href="#DejaVuSans-110"/>
     <use x="400.447266" xlink:href="#DejaVuSans-121"/>
    </g>
   </g>
   <g id="text_19">
    <!-- Poland -->
    <g transform="translate(577.825718 260.743617)scale(0.1 -0.1)">
     <defs>
      <path d="M 19.671875 64.796875 
L 19.671875 37.40625 
L 32.078125 37.40625 
Q 38.96875 37.40625 42.71875 40.96875 
Q 46.484375 44.53125 46.484375 51.125 
Q 46.484375 57.671875 42.71875 61.234375 
Q 38.96875 64.796875 32.078125 64.796875 
z
M 9.8125 72.90625 
L 32.078125 72.90625 
Q 44.34375 72.90625 50.609375 67.359375 
Q 56.890625 61.8125 56.890625 51.125 
Q 56.890625 40.328125 50.609375 34.8125 
Q 44.34375 29.296875 32.078125 29.296875 
L 19.671875 29.296875 
L 19.671875 0 
L 9.8125 0 
z
" id="DejaVuSans-80"/>
     </defs>
     <use xlink:href="#DejaVuSans-80"/>
     <use x="56.677734" xlink:href="#DejaVuSans-111"/>
     <use x="117.859375" xlink:href="#DejaVuSans-108"/>
     <use x="145.642578" xlink:href="#DejaVuSans-97"/>
     <use x="206.921875" xlink:href="#DejaVuSans-110"/>
     <use x="270.300781" xlink:href="#DejaVuSans-100"/>
    </g>
   </g>
   <g id="text_20">
    <!-- Belarus -->
    <g transform="translate(552.566134 314.153394)scale(0.1 -0.1)">
     <defs>
      <path d="M 19.671875 34.8125 
L 19.671875 8.109375 
L 35.5 8.109375 
Q 43.453125 8.109375 47.28125 11.40625 
Q 51.125 14.703125 51.125 21.484375 
Q 51.125 28.328125 47.28125 31.5625 
Q 43.453125 34.8125 35.5 34.8125 
z
M 19.671875 64.796875 
L 19.671875 42.828125 
L 34.28125 42.828125 
Q 41.5 42.828125 45.03125 45.53125 
Q 48.578125 48.25 48.578125 53.8125 
Q 48.578125 59.328125 45.03125 62.0625 
Q 41.5 64.796875 34.28125 64.796875 
z
M 9.8125 72.90625 
L 35.015625 72.90625 
Q 46.296875 72.90625 52.390625 68.21875 
Q 58.5 63.53125 58.5 54.890625 
Q 58.5 48.1875 55.375 44.234375 
Q 52.25 40.28125 46.1875 39.3125 
Q 53.46875 37.75 57.5 32.78125 
Q 61.53125 27.828125 61.53125 20.40625 
Q 61.53125 10.640625 54.890625 5.3125 
Q 48.25 0 35.984375 0 
L 9.8125 0 
z
" id="DejaVuSans-66"/>
     </defs>
     <use xlink:href="#DejaVuSans-66"/>
     <use x="68.603516" xlink:href="#DejaVuSans-101"/>
     <use x="130.126953" xlink:href="#DejaVuSans-108"/>
     <use x="157.910156" xlink:href="#DejaVuSans-97"/>
     <use x="219.189453" xlink:href="#DejaVuSans-114"/>
     <use x="260.302734" xlink:href="#DejaVuSans-117"/>
     <use x="323.681641" xlink:href="#DejaVuSans-115"/>
    </g>
   </g>
   <g id="text_21">
    <!-- Switzerland -->
    <g transform="translate(598.34913 267.973393)scale(0.1 -0.1)">
     <defs>
      <path d="M 5.515625 54.6875 
L 48.1875 54.6875 
L 48.1875 46.484375 
L 14.40625 7.171875 
L 48.1875 7.171875 
L 48.1875 0 
L 4.296875 0 
L 4.296875 8.203125 
L 38.09375 47.515625 
L 5.515625 47.515625 
z
" id="DejaVuSans-122"/>
     </defs>
     <use xlink:href="#DejaVuSans-83"/>
     <use x="63.476562" xlink:href="#DejaVuSans-119"/>
     <use x="145.263672" xlink:href="#DejaVuSans-105"/>
     <use x="173.046875" xlink:href="#DejaVuSans-116"/>
     <use x="212.255859" xlink:href="#DejaVuSans-122"/>
     <use x="264.746094" xlink:href="#DejaVuSans-101"/>
     <use x="326.269531" xlink:href="#DejaVuSans-114"/>
     <use x="367.382812" xlink:href="#DejaVuSans-108"/>
     <use x="395.166016" xlink:href="#DejaVuSans-97"/>
     <use x="456.445312" xlink:href="#DejaVuSans-110"/>
     <use x="519.824219" xlink:href="#DejaVuSans-100"/>
    </g>
   </g>
   <g id="text_22">
    <!-- US -->
    <g transform="translate(607.821474 251.883635)scale(0.1 -0.1)">
     <defs>
      <path d="M 8.6875 72.90625 
L 18.609375 72.90625 
L 18.609375 28.609375 
Q 18.609375 16.890625 22.84375 11.734375 
Q 27.09375 6.59375 36.625 6.59375 
Q 46.09375 6.59375 50.34375 11.734375 
Q 54.59375 16.890625 54.59375 28.609375 
L 54.59375 72.90625 
L 64.5 72.90625 
L 64.5 27.390625 
Q 64.5 13.140625 57.4375 5.859375 
Q 50.390625 -1.421875 36.625 -1.421875 
Q 22.796875 -1.421875 15.734375 5.859375 
Q 8.6875 13.140625 8.6875 27.390625 
z
" id="DejaVuSans-85"/>
     </defs>
     <use xlink:href="#DejaVuSans-85"/>
     <use x="73.193359" xlink:href="#DejaVuSans-83"/>
    </g>
   </g>
  </g>
 </g>
 <defs>
  <clipPath id="pd7451a1fe6">
   <rect height="148.254545" width="558" x="90" y="229.745455"/>
  </clipPath>
 </defs>
</svg>
