<?xml version="1.0" encoding="utf-8" standalone="no"?>
<!DOCTYPE svg PUBLIC "-//W3C//DTD SVG 1.1//EN"
  "http://www.w3.org/Graphics/SVG/1.1/DTD/svg11.dtd">
<!-- Created with matplotlib (https://matplotlib.org/) -->
<svg height="180pt" version="1.1" viewBox="0 0 720 180" width="720pt" xmlns="http://www.w3.org/2000/svg" xmlns:xlink="http://www.w3.org/1999/xlink">
 <metadata>
  <rdf:RDF xmlns:cc="http://creativecommons.org/ns#" xmlns:dc="http://purl.org/dc/elements/1.1/" xmlns:rdf="http://www.w3.org/1999/02/22-rdf-syntax-ns#">
   <cc:Work>
    <dc:type rdf:resource="http://purl.org/dc/dcmitype/StillImage"/>
    <dc:date>2021-01-28T10:16:36.085142</dc:date>
    <dc:format>image/svg+xml</dc:format>
    <dc:creator>
     <cc:Agent>
      <dc:title>Matplotlib v3.3.4, https://matplotlib.org/</dc:title>
     </cc:Agent>
    </dc:creator>
   </cc:Work>
  </rdf:RDF>
 </metadata>
 <defs>
  <style type="text/css">*{stroke-linecap:butt;stroke-linejoin:round;}</style>
 </defs>
 <g id="figure_1">
  <g id="patch_1">
   <path d="M 0 180 
L 720 180 
L 720 0 
L 0 0 
z
" style="fill:#ffffff;"/>
  </g>
  <g id="axes_1">
   <g id="patch_2">
    <path d="M 90 157.5 
L 648 157.5 
L 648 21.6 
L 90 21.6 
z
" style="fill:#e5e5e5;"/>
   </g>
   <g id="matplotlib.axis_1">
    <g id="xtick_1">
     <g id="line2d_1">
      <path clip-path="url(#p70ca1c09c6)" d="M 168.688802 157.5 
L 168.688802 21.6 
" style="fill:none;stroke:#ffffff;stroke-linecap:square;stroke-width:0.8;"/>
     </g>
     <g id="line2d_2">
      <defs>
       <path d="M 0 0 
L 0 3.5 
" id="m7430a56b1f" style="stroke:#555555;stroke-width:0.8;"/>
      </defs>
      <g>
       <use style="fill:#555555;stroke:#555555;stroke-width:0.8;" x="168.688802" xlink:href="#m7430a56b1f" y="157.5"/>
      </g>
     </g>
     <g id="text_1">
      <!-- 2020-02 -->
      <g style="fill:#555555;" transform="translate(147.797396 172.098437)scale(0.1 -0.1)">
       <defs>
        <path d="M 19.1875 8.296875 
L 53.609375 8.296875 
L 53.609375 0 
L 7.328125 0 
L 7.328125 8.296875 
Q 12.9375 14.109375 22.625 23.890625 
Q 32.328125 33.6875 34.8125 36.53125 
Q 39.546875 41.84375 41.421875 45.53125 
Q 43.3125 49.21875 43.3125 52.78125 
Q 43.3125 58.59375 39.234375 62.25 
Q 35.15625 65.921875 28.609375 65.921875 
Q 23.96875 65.921875 18.8125 64.3125 
Q 13.671875 62.703125 7.8125 59.421875 
L 7.8125 69.390625 
Q 13.765625 71.78125 18.9375 73 
Q 24.125 74.21875 28.421875 74.21875 
Q 39.75 74.21875 46.484375 68.546875 
Q 53.21875 62.890625 53.21875 53.421875 
Q 53.21875 48.921875 51.53125 44.890625 
Q 49.859375 40.875 45.40625 35.40625 
Q 44.1875 33.984375 37.640625 27.21875 
Q 31.109375 20.453125 19.1875 8.296875 
z
" id="DejaVuSans-50"/>
        <path d="M 31.78125 66.40625 
Q 24.171875 66.40625 20.328125 58.90625 
Q 16.5 51.421875 16.5 36.375 
Q 16.5 21.390625 20.328125 13.890625 
Q 24.171875 6.390625 31.78125 6.390625 
Q 39.453125 6.390625 43.28125 13.890625 
Q 47.125 21.390625 47.125 36.375 
Q 47.125 51.421875 43.28125 58.90625 
Q 39.453125 66.40625 31.78125 66.40625 
z
M 31.78125 74.21875 
Q 44.046875 74.21875 50.515625 64.515625 
Q 56.984375 54.828125 56.984375 36.375 
Q 56.984375 17.96875 50.515625 8.265625 
Q 44.046875 -1.421875 31.78125 -1.421875 
Q 19.53125 -1.421875 13.0625 8.265625 
Q 6.59375 17.96875 6.59375 36.375 
Q 6.59375 54.828125 13.0625 64.515625 
Q 19.53125 74.21875 31.78125 74.21875 
z
" id="DejaVuSans-48"/>
        <path d="M 4.890625 31.390625 
L 31.203125 31.390625 
L 31.203125 23.390625 
L 4.890625 23.390625 
z
" id="DejaVuSans-45"/>
       </defs>
       <use xlink:href="#DejaVuSans-50"/>
       <use x="63.623047" xlink:href="#DejaVuSans-48"/>
       <use x="127.246094" xlink:href="#DejaVuSans-50"/>
       <use x="190.869141" xlink:href="#DejaVuSans-48"/>
       <use x="254.492188" xlink:href="#DejaVuSans-45"/>
       <use x="290.576172" xlink:href="#DejaVuSans-48"/>
       <use x="354.199219" xlink:href="#DejaVuSans-50"/>
      </g>
     </g>
    </g>
    <g id="xtick_2">
     <g id="line2d_3">
      <path clip-path="url(#p70ca1c09c6)" d="M 252.09483 157.5 
L 252.09483 21.6 
" style="fill:none;stroke:#ffffff;stroke-linecap:square;stroke-width:0.8;"/>
     </g>
     <g id="line2d_4">
      <g>
       <use style="fill:#555555;stroke:#555555;stroke-width:0.8;" x="252.09483" xlink:href="#m7430a56b1f" y="157.5"/>
      </g>
     </g>
     <g id="text_2">
      <!-- 2020-04 -->
      <g style="fill:#555555;" transform="translate(231.203423 172.098437)scale(0.1 -0.1)">
       <defs>
        <path d="M 37.796875 64.3125 
L 12.890625 25.390625 
L 37.796875 25.390625 
z
M 35.203125 72.90625 
L 47.609375 72.90625 
L 47.609375 25.390625 
L 58.015625 25.390625 
L 58.015625 17.1875 
L 47.609375 17.1875 
L 47.609375 0 
L 37.796875 0 
L 37.796875 17.1875 
L 4.890625 17.1875 
L 4.890625 26.703125 
z
" id="DejaVuSans-52"/>
       </defs>
       <use xlink:href="#DejaVuSans-50"/>
       <use x="63.623047" xlink:href="#DejaVuSans-48"/>
       <use x="127.246094" xlink:href="#DejaVuSans-50"/>
       <use x="190.869141" xlink:href="#DejaVuSans-48"/>
       <use x="254.492188" xlink:href="#DejaVuSans-45"/>
       <use x="290.576172" xlink:href="#DejaVuSans-48"/>
       <use x="354.199219" xlink:href="#DejaVuSans-52"/>
      </g>
     </g>
    </g>
    <g id="xtick_3">
     <g id="line2d_5">
      <path clip-path="url(#p70ca1c09c6)" d="M 335.500858 157.5 
L 335.500858 21.6 
" style="fill:none;stroke:#ffffff;stroke-linecap:square;stroke-width:0.8;"/>
     </g>
     <g id="line2d_6">
      <g>
       <use style="fill:#555555;stroke:#555555;stroke-width:0.8;" x="335.500858" xlink:href="#m7430a56b1f" y="157.5"/>
      </g>
     </g>
     <g id="text_3">
      <!-- 2020-06 -->
      <g style="fill:#555555;" transform="translate(314.609451 172.098437)scale(0.1 -0.1)">
       <defs>
        <path d="M 33.015625 40.375 
Q 26.375 40.375 22.484375 35.828125 
Q 18.609375 31.296875 18.609375 23.390625 
Q 18.609375 15.53125 22.484375 10.953125 
Q 26.375 6.390625 33.015625 6.390625 
Q 39.65625 6.390625 43.53125 10.953125 
Q 47.40625 15.53125 47.40625 23.390625 
Q 47.40625 31.296875 43.53125 35.828125 
Q 39.65625 40.375 33.015625 40.375 
z
M 52.59375 71.296875 
L 52.59375 62.3125 
Q 48.875 64.0625 45.09375 64.984375 
Q 41.3125 65.921875 37.59375 65.921875 
Q 27.828125 65.921875 22.671875 59.328125 
Q 17.53125 52.734375 16.796875 39.40625 
Q 19.671875 43.65625 24.015625 45.921875 
Q 28.375 48.1875 33.59375 48.1875 
Q 44.578125 48.1875 50.953125 41.515625 
Q 57.328125 34.859375 57.328125 23.390625 
Q 57.328125 12.15625 50.6875 5.359375 
Q 44.046875 -1.421875 33.015625 -1.421875 
Q 20.359375 -1.421875 13.671875 8.265625 
Q 6.984375 17.96875 6.984375 36.375 
Q 6.984375 53.65625 15.1875 63.9375 
Q 23.390625 74.21875 37.203125 74.21875 
Q 40.921875 74.21875 44.703125 73.484375 
Q 48.484375 72.75 52.59375 71.296875 
z
" id="DejaVuSans-54"/>
       </defs>
       <use xlink:href="#DejaVuSans-50"/>
       <use x="63.623047" xlink:href="#DejaVuSans-48"/>
       <use x="127.246094" xlink:href="#DejaVuSans-50"/>
       <use x="190.869141" xlink:href="#DejaVuSans-48"/>
       <use x="254.492188" xlink:href="#DejaVuSans-45"/>
       <use x="290.576172" xlink:href="#DejaVuSans-48"/>
       <use x="354.199219" xlink:href="#DejaVuSans-54"/>
      </g>
     </g>
    </g>
    <g id="xtick_4">
     <g id="line2d_7">
      <path clip-path="url(#p70ca1c09c6)" d="M 420.274198 157.5 
L 420.274198 21.6 
" style="fill:none;stroke:#ffffff;stroke-linecap:square;stroke-width:0.8;"/>
     </g>
     <g id="line2d_8">
      <g>
       <use style="fill:#555555;stroke:#555555;stroke-width:0.8;" x="420.274198" xlink:href="#m7430a56b1f" y="157.5"/>
      </g>
     </g>
     <g id="text_4">
      <!-- 2020-08 -->
      <g style="fill:#555555;" transform="translate(399.382791 172.098437)scale(0.1 -0.1)">
       <defs>
        <path d="M 31.78125 34.625 
Q 24.75 34.625 20.71875 30.859375 
Q 16.703125 27.09375 16.703125 20.515625 
Q 16.703125 13.921875 20.71875 10.15625 
Q 24.75 6.390625 31.78125 6.390625 
Q 38.8125 6.390625 42.859375 10.171875 
Q 46.921875 13.96875 46.921875 20.515625 
Q 46.921875 27.09375 42.890625 30.859375 
Q 38.875 34.625 31.78125 34.625 
z
M 21.921875 38.8125 
Q 15.578125 40.375 12.03125 44.71875 
Q 8.5 49.078125 8.5 55.328125 
Q 8.5 64.0625 14.71875 69.140625 
Q 20.953125 74.21875 31.78125 74.21875 
Q 42.671875 74.21875 48.875 69.140625 
Q 55.078125 64.0625 55.078125 55.328125 
Q 55.078125 49.078125 51.53125 44.71875 
Q 48 40.375 41.703125 38.8125 
Q 48.828125 37.15625 52.796875 32.3125 
Q 56.78125 27.484375 56.78125 20.515625 
Q 56.78125 9.90625 50.3125 4.234375 
Q 43.84375 -1.421875 31.78125 -1.421875 
Q 19.734375 -1.421875 13.25 4.234375 
Q 6.78125 9.90625 6.78125 20.515625 
Q 6.78125 27.484375 10.78125 32.3125 
Q 14.796875 37.15625 21.921875 38.8125 
z
M 18.3125 54.390625 
Q 18.3125 48.734375 21.84375 45.5625 
Q 25.390625 42.390625 31.78125 42.390625 
Q 38.140625 42.390625 41.71875 45.5625 
Q 45.3125 48.734375 45.3125 54.390625 
Q 45.3125 60.0625 41.71875 63.234375 
Q 38.140625 66.40625 31.78125 66.40625 
Q 25.390625 66.40625 21.84375 63.234375 
Q 18.3125 60.0625 18.3125 54.390625 
z
" id="DejaVuSans-56"/>
       </defs>
       <use xlink:href="#DejaVuSans-50"/>
       <use x="63.623047" xlink:href="#DejaVuSans-48"/>
       <use x="127.246094" xlink:href="#DejaVuSans-50"/>
       <use x="190.869141" xlink:href="#DejaVuSans-48"/>
       <use x="254.492188" xlink:href="#DejaVuSans-45"/>
       <use x="290.576172" xlink:href="#DejaVuSans-48"/>
       <use x="354.199219" xlink:href="#DejaVuSans-56"/>
      </g>
     </g>
    </g>
    <g id="xtick_5">
     <g id="line2d_9">
      <path clip-path="url(#p70ca1c09c6)" d="M 503.680225 157.5 
L 503.680225 21.6 
" style="fill:none;stroke:#ffffff;stroke-linecap:square;stroke-width:0.8;"/>
     </g>
     <g id="line2d_10">
      <g>
       <use style="fill:#555555;stroke:#555555;stroke-width:0.8;" x="503.680225" xlink:href="#m7430a56b1f" y="157.5"/>
      </g>
     </g>
     <g id="text_5">
      <!-- 2020-10 -->
      <g style="fill:#555555;" transform="translate(482.788819 172.098437)scale(0.1 -0.1)">
       <defs>
        <path d="M 12.40625 8.296875 
L 28.515625 8.296875 
L 28.515625 63.921875 
L 10.984375 60.40625 
L 10.984375 69.390625 
L 28.421875 72.90625 
L 38.28125 72.90625 
L 38.28125 8.296875 
L 54.390625 8.296875 
L 54.390625 0 
L 12.40625 0 
z
" id="DejaVuSans-49"/>
       </defs>
       <use xlink:href="#DejaVuSans-50"/>
       <use x="63.623047" xlink:href="#DejaVuSans-48"/>
       <use x="127.246094" xlink:href="#DejaVuSans-50"/>
       <use x="190.869141" xlink:href="#DejaVuSans-48"/>
       <use x="254.492188" xlink:href="#DejaVuSans-45"/>
       <use x="290.576172" xlink:href="#DejaVuSans-49"/>
       <use x="354.199219" xlink:href="#DejaVuSans-48"/>
      </g>
     </g>
    </g>
    <g id="xtick_6">
     <g id="line2d_11">
      <path clip-path="url(#p70ca1c09c6)" d="M 587.086253 157.5 
L 587.086253 21.6 
" style="fill:none;stroke:#ffffff;stroke-linecap:square;stroke-width:0.8;"/>
     </g>
     <g id="line2d_12">
      <g>
       <use style="fill:#555555;stroke:#555555;stroke-width:0.8;" x="587.086253" xlink:href="#m7430a56b1f" y="157.5"/>
      </g>
     </g>
     <g id="text_6">
      <!-- 2020-12 -->
      <g style="fill:#555555;" transform="translate(566.194847 172.098437)scale(0.1 -0.1)">
       <use xlink:href="#DejaVuSans-50"/>
       <use x="63.623047" xlink:href="#DejaVuSans-48"/>
       <use x="127.246094" xlink:href="#DejaVuSans-50"/>
       <use x="190.869141" xlink:href="#DejaVuSans-48"/>
       <use x="254.492188" xlink:href="#DejaVuSans-45"/>
       <use x="290.576172" xlink:href="#DejaVuSans-49"/>
       <use x="354.199219" xlink:href="#DejaVuSans-50"/>
      </g>
     </g>
    </g>
   </g>
   <g id="matplotlib.axis_2">
    <g id="ytick_1">
     <g id="line2d_13">
      <path clip-path="url(#p70ca1c09c6)" d="M 90 126.037503 
L 648 126.037503 
" style="fill:none;stroke:#ffffff;stroke-linecap:square;stroke-width:0.8;"/>
     </g>
     <g id="line2d_14">
      <defs>
       <path d="M 0 0 
L -3.5 0 
" id="md1563da2ae" style="stroke:#555555;stroke-width:0.8;"/>
      </defs>
      <g>
       <use style="fill:#555555;stroke:#555555;stroke-width:0.8;" x="90" xlink:href="#md1563da2ae" y="126.037503"/>
      </g>
     </g>
     <g id="line2d_15">
      <defs>
       <path d="M 0 0 
L 3.5 0 
" id="m9f8dd22839" style="stroke:#555555;stroke-width:0.8;"/>
      </defs>
      <g>
       <use style="fill:#555555;stroke:#555555;stroke-width:0.8;" x="648" xlink:href="#m9f8dd22839" y="126.037503"/>
      </g>
     </g>
     <g id="text_7">
      <!-- 10 -->
      <g style="fill:#555555;" transform="translate(70.275 129.836722)scale(0.1 -0.1)">
       <use xlink:href="#DejaVuSans-49"/>
       <use x="63.623047" xlink:href="#DejaVuSans-48"/>
      </g>
     </g>
     <g id="text_8">
      <!-- 10 -->
      <g style="fill:#555555;" transform="translate(655 129.836722)scale(0.1 -0.1)">
       <use xlink:href="#DejaVuSans-49"/>
       <use x="63.623047" xlink:href="#DejaVuSans-48"/>
      </g>
     </g>
    </g>
    <g id="ytick_2">
     <g id="line2d_16">
      <path clip-path="url(#p70ca1c09c6)" d="M 90 75.467055 
L 648 75.467055 
" style="fill:none;stroke:#ffffff;stroke-linecap:square;stroke-width:0.8;"/>
     </g>
     <g id="line2d_17">
      <g>
       <use style="fill:#555555;stroke:#555555;stroke-width:0.8;" x="90" xlink:href="#md1563da2ae" y="75.467055"/>
      </g>
     </g>
     <g id="line2d_18">
      <g>
       <use style="fill:#555555;stroke:#555555;stroke-width:0.8;" x="648" xlink:href="#m9f8dd22839" y="75.467055"/>
      </g>
     </g>
     <g id="text_9">
      <!-- 1000 -->
      <g style="fill:#555555;" transform="translate(57.55 79.266274)scale(0.1 -0.1)">
       <use xlink:href="#DejaVuSans-49"/>
       <use x="63.623047" xlink:href="#DejaVuSans-48"/>
       <use x="127.246094" xlink:href="#DejaVuSans-48"/>
       <use x="190.869141" xlink:href="#DejaVuSans-48"/>
      </g>
     </g>
     <g id="text_10">
      <!-- 1000 -->
      <g style="fill:#555555;" transform="translate(655 79.266274)scale(0.1 -0.1)">
       <use xlink:href="#DejaVuSans-49"/>
       <use x="63.623047" xlink:href="#DejaVuSans-48"/>
       <use x="127.246094" xlink:href="#DejaVuSans-48"/>
       <use x="190.869141" xlink:href="#DejaVuSans-48"/>
      </g>
     </g>
    </g>
    <g id="ytick_3">
     <g id="line2d_19">
      <path clip-path="url(#p70ca1c09c6)" d="M 90 24.896607 
L 648 24.896607 
" style="fill:none;stroke:#ffffff;stroke-linecap:square;stroke-width:0.8;"/>
     </g>
     <g id="line2d_20">
      <g>
       <use style="fill:#555555;stroke:#555555;stroke-width:0.8;" x="90" xlink:href="#md1563da2ae" y="24.896607"/>
      </g>
     </g>
     <g id="line2d_21">
      <g>
       <use style="fill:#555555;stroke:#555555;stroke-width:0.8;" x="648" xlink:href="#m9f8dd22839" y="24.896607"/>
      </g>
     </g>
     <g id="text_11">
      <!-- 100000 -->
      <g style="fill:#555555;" transform="translate(44.825 28.695826)scale(0.1 -0.1)">
       <use xlink:href="#DejaVuSans-49"/>
       <use x="63.623047" xlink:href="#DejaVuSans-48"/>
       <use x="127.246094" xlink:href="#DejaVuSans-48"/>
       <use x="190.869141" xlink:href="#DejaVuSans-48"/>
       <use x="254.492188" xlink:href="#DejaVuSans-48"/>
       <use x="318.115234" xlink:href="#DejaVuSans-48"/>
      </g>
     </g>
     <g id="text_12">
      <!-- 100000 -->
      <g style="fill:#555555;" transform="translate(655 28.695826)scale(0.1 -0.1)">
       <use xlink:href="#DejaVuSans-49"/>
       <use x="63.623047" xlink:href="#DejaVuSans-48"/>
       <use x="127.246094" xlink:href="#DejaVuSans-48"/>
       <use x="190.869141" xlink:href="#DejaVuSans-48"/>
       <use x="254.492188" xlink:href="#DejaVuSans-48"/>
       <use x="318.115234" xlink:href="#DejaVuSans-48"/>
      </g>
     </g>
    </g>
    <g id="text_13">
     <!-- total numbers -->
     <g style="fill:#555555;" transform="translate(38.329375 131.71875)rotate(-90)scale(0.12 -0.12)">
      <defs>
       <path d="M 18.3125 70.21875 
L 18.3125 54.6875 
L 36.8125 54.6875 
L 36.8125 47.703125 
L 18.3125 47.703125 
L 18.3125 18.015625 
Q 18.3125 11.328125 20.140625 9.421875 
Q 21.96875 7.515625 27.59375 7.515625 
L 36.8125 7.515625 
L 36.8125 0 
L 27.59375 0 
Q 17.1875 0 13.234375 3.875 
Q 9.28125 7.765625 9.28125 18.015625 
L 9.28125 47.703125 
L 2.6875 47.703125 
L 2.6875 54.6875 
L 9.28125 54.6875 
L 9.28125 70.21875 
z
" id="DejaVuSans-116"/>
       <path d="M 30.609375 48.390625 
Q 23.390625 48.390625 19.1875 42.75 
Q 14.984375 37.109375 14.984375 27.296875 
Q 14.984375 17.484375 19.15625 11.84375 
Q 23.34375 6.203125 30.609375 6.203125 
Q 37.796875 6.203125 41.984375 11.859375 
Q 46.1875 17.53125 46.1875 27.296875 
Q 46.1875 37.015625 41.984375 42.703125 
Q 37.796875 48.390625 30.609375 48.390625 
z
M 30.609375 56 
Q 42.328125 56 49.015625 48.375 
Q 55.71875 40.765625 55.71875 27.296875 
Q 55.71875 13.875 49.015625 6.21875 
Q 42.328125 -1.421875 30.609375 -1.421875 
Q 18.84375 -1.421875 12.171875 6.21875 
Q 5.515625 13.875 5.515625 27.296875 
Q 5.515625 40.765625 12.171875 48.375 
Q 18.84375 56 30.609375 56 
z
" id="DejaVuSans-111"/>
       <path d="M 34.28125 27.484375 
Q 23.390625 27.484375 19.1875 25 
Q 14.984375 22.515625 14.984375 16.5 
Q 14.984375 11.71875 18.140625 8.90625 
Q 21.296875 6.109375 26.703125 6.109375 
Q 34.1875 6.109375 38.703125 11.40625 
Q 43.21875 16.703125 43.21875 25.484375 
L 43.21875 27.484375 
z
M 52.203125 31.203125 
L 52.203125 0 
L 43.21875 0 
L 43.21875 8.296875 
Q 40.140625 3.328125 35.546875 0.953125 
Q 30.953125 -1.421875 24.3125 -1.421875 
Q 15.921875 -1.421875 10.953125 3.296875 
Q 6 8.015625 6 15.921875 
Q 6 25.140625 12.171875 29.828125 
Q 18.359375 34.515625 30.609375 34.515625 
L 43.21875 34.515625 
L 43.21875 35.40625 
Q 43.21875 41.609375 39.140625 45 
Q 35.0625 48.390625 27.6875 48.390625 
Q 23 48.390625 18.546875 47.265625 
Q 14.109375 46.140625 10.015625 43.890625 
L 10.015625 52.203125 
Q 14.9375 54.109375 19.578125 55.046875 
Q 24.21875 56 28.609375 56 
Q 40.484375 56 46.34375 49.84375 
Q 52.203125 43.703125 52.203125 31.203125 
z
" id="DejaVuSans-97"/>
       <path d="M 9.421875 75.984375 
L 18.40625 75.984375 
L 18.40625 0 
L 9.421875 0 
z
" id="DejaVuSans-108"/>
       <path id="DejaVuSans-32"/>
       <path d="M 54.890625 33.015625 
L 54.890625 0 
L 45.90625 0 
L 45.90625 32.71875 
Q 45.90625 40.484375 42.875 44.328125 
Q 39.84375 48.1875 33.796875 48.1875 
Q 26.515625 48.1875 22.3125 43.546875 
Q 18.109375 38.921875 18.109375 30.90625 
L 18.109375 0 
L 9.078125 0 
L 9.078125 54.6875 
L 18.109375 54.6875 
L 18.109375 46.1875 
Q 21.34375 51.125 25.703125 53.5625 
Q 30.078125 56 35.796875 56 
Q 45.21875 56 50.046875 50.171875 
Q 54.890625 44.34375 54.890625 33.015625 
z
" id="DejaVuSans-110"/>
       <path d="M 8.5 21.578125 
L 8.5 54.6875 
L 17.484375 54.6875 
L 17.484375 21.921875 
Q 17.484375 14.15625 20.5 10.265625 
Q 23.53125 6.390625 29.59375 6.390625 
Q 36.859375 6.390625 41.078125 11.03125 
Q 45.3125 15.671875 45.3125 23.6875 
L 45.3125 54.6875 
L 54.296875 54.6875 
L 54.296875 0 
L 45.3125 0 
L 45.3125 8.40625 
Q 42.046875 3.421875 37.71875 1 
Q 33.40625 -1.421875 27.6875 -1.421875 
Q 18.265625 -1.421875 13.375 4.4375 
Q 8.5 10.296875 8.5 21.578125 
z
M 31.109375 56 
z
" id="DejaVuSans-117"/>
       <path d="M 52 44.1875 
Q 55.375 50.25 60.0625 53.125 
Q 64.75 56 71.09375 56 
Q 79.640625 56 84.28125 50.015625 
Q 88.921875 44.046875 88.921875 33.015625 
L 88.921875 0 
L 79.890625 0 
L 79.890625 32.71875 
Q 79.890625 40.578125 77.09375 44.375 
Q 74.3125 48.1875 68.609375 48.1875 
Q 61.625 48.1875 57.5625 43.546875 
Q 53.515625 38.921875 53.515625 30.90625 
L 53.515625 0 
L 44.484375 0 
L 44.484375 32.71875 
Q 44.484375 40.625 41.703125 44.40625 
Q 38.921875 48.1875 33.109375 48.1875 
Q 26.21875 48.1875 22.15625 43.53125 
Q 18.109375 38.875 18.109375 30.90625 
L 18.109375 0 
L 9.078125 0 
L 9.078125 54.6875 
L 18.109375 54.6875 
L 18.109375 46.1875 
Q 21.1875 51.21875 25.484375 53.609375 
Q 29.78125 56 35.6875 56 
Q 41.65625 56 45.828125 52.96875 
Q 50 49.953125 52 44.1875 
z
" id="DejaVuSans-109"/>
       <path d="M 48.6875 27.296875 
Q 48.6875 37.203125 44.609375 42.84375 
Q 40.53125 48.484375 33.40625 48.484375 
Q 26.265625 48.484375 22.1875 42.84375 
Q 18.109375 37.203125 18.109375 27.296875 
Q 18.109375 17.390625 22.1875 11.75 
Q 26.265625 6.109375 33.40625 6.109375 
Q 40.53125 6.109375 44.609375 11.75 
Q 48.6875 17.390625 48.6875 27.296875 
z
M 18.109375 46.390625 
Q 20.953125 51.265625 25.265625 53.625 
Q 29.59375 56 35.59375 56 
Q 45.5625 56 51.78125 48.09375 
Q 58.015625 40.1875 58.015625 27.296875 
Q 58.015625 14.40625 51.78125 6.484375 
Q 45.5625 -1.421875 35.59375 -1.421875 
Q 29.59375 -1.421875 25.265625 0.953125 
Q 20.953125 3.328125 18.109375 8.203125 
L 18.109375 0 
L 9.078125 0 
L 9.078125 75.984375 
L 18.109375 75.984375 
z
" id="DejaVuSans-98"/>
       <path d="M 56.203125 29.59375 
L 56.203125 25.203125 
L 14.890625 25.203125 
Q 15.484375 15.921875 20.484375 11.0625 
Q 25.484375 6.203125 34.421875 6.203125 
Q 39.59375 6.203125 44.453125 7.46875 
Q 49.3125 8.734375 54.109375 11.28125 
L 54.109375 2.78125 
Q 49.265625 0.734375 44.1875 -0.34375 
Q 39.109375 -1.421875 33.890625 -1.421875 
Q 20.796875 -1.421875 13.15625 6.1875 
Q 5.515625 13.8125 5.515625 26.8125 
Q 5.515625 40.234375 12.765625 48.109375 
Q 20.015625 56 32.328125 56 
Q 43.359375 56 49.78125 48.890625 
Q 56.203125 41.796875 56.203125 29.59375 
z
M 47.21875 32.234375 
Q 47.125 39.59375 43.09375 43.984375 
Q 39.0625 48.390625 32.421875 48.390625 
Q 24.90625 48.390625 20.390625 44.140625 
Q 15.875 39.890625 15.1875 32.171875 
z
" id="DejaVuSans-101"/>
       <path d="M 41.109375 46.296875 
Q 39.59375 47.171875 37.8125 47.578125 
Q 36.03125 48 33.890625 48 
Q 26.265625 48 22.1875 43.046875 
Q 18.109375 38.09375 18.109375 28.8125 
L 18.109375 0 
L 9.078125 0 
L 9.078125 54.6875 
L 18.109375 54.6875 
L 18.109375 46.1875 
Q 20.953125 51.171875 25.484375 53.578125 
Q 30.03125 56 36.53125 56 
Q 37.453125 56 38.578125 55.875 
Q 39.703125 55.765625 41.0625 55.515625 
z
" id="DejaVuSans-114"/>
       <path d="M 44.28125 53.078125 
L 44.28125 44.578125 
Q 40.484375 46.53125 36.375 47.5 
Q 32.28125 48.484375 27.875 48.484375 
Q 21.1875 48.484375 17.84375 46.4375 
Q 14.5 44.390625 14.5 40.28125 
Q 14.5 37.15625 16.890625 35.375 
Q 19.28125 33.59375 26.515625 31.984375 
L 29.59375 31.296875 
Q 39.15625 29.25 43.1875 25.515625 
Q 47.21875 21.78125 47.21875 15.09375 
Q 47.21875 7.46875 41.1875 3.015625 
Q 35.15625 -1.421875 24.609375 -1.421875 
Q 20.21875 -1.421875 15.453125 -0.5625 
Q 10.6875 0.296875 5.421875 2 
L 5.421875 11.28125 
Q 10.40625 8.6875 15.234375 7.390625 
Q 20.0625 6.109375 24.8125 6.109375 
Q 31.15625 6.109375 34.5625 8.28125 
Q 37.984375 10.453125 37.984375 14.40625 
Q 37.984375 18.0625 35.515625 20.015625 
Q 33.0625 21.96875 24.703125 23.78125 
L 21.578125 24.515625 
Q 13.234375 26.265625 9.515625 29.90625 
Q 5.8125 33.546875 5.8125 39.890625 
Q 5.8125 47.609375 11.28125 51.796875 
Q 16.75 56 26.8125 56 
Q 31.78125 56 36.171875 55.265625 
Q 40.578125 54.546875 44.28125 53.078125 
z
" id="DejaVuSans-115"/>
      </defs>
      <use xlink:href="#DejaVuSans-116"/>
      <use x="39.208984" xlink:href="#DejaVuSans-111"/>
      <use x="100.390625" xlink:href="#DejaVuSans-116"/>
      <use x="139.599609" xlink:href="#DejaVuSans-97"/>
      <use x="200.878906" xlink:href="#DejaVuSans-108"/>
      <use x="228.662109" xlink:href="#DejaVuSans-32"/>
      <use x="260.449219" xlink:href="#DejaVuSans-110"/>
      <use x="323.828125" xlink:href="#DejaVuSans-117"/>
      <use x="387.207031" xlink:href="#DejaVuSans-109"/>
      <use x="484.619141" xlink:href="#DejaVuSans-98"/>
      <use x="548.095703" xlink:href="#DejaVuSans-101"/>
      <use x="609.619141" xlink:href="#DejaVuSans-114"/>
      <use x="650.732422" xlink:href="#DejaVuSans-115"/>
     </g>
    </g>
   </g>
   <g id="line2d_22">
    <path clip-path="url(#p70ca1c09c6)" d="M 115.363636 151.322727 
L 116.730948 151.322727 
L 116.730948 143.711116 
L 119.465572 143.711116 
L 119.465572 139.258609 
L 120.832884 139.258609 
L 120.832884 136.099505 
L 126.302132 136.099505 
L 126.302132 124.99088 
L 127.669444 124.99088 
L 127.669444 124.035388 
L 129.036756 124.035388 
L 129.036756 121.584996 
L 131.77138 121.584996 
L 131.77138 120.876284 
L 133.138691 120.876284 
L 133.138691 118.989156 
L 134.506003 118.989156 
L 134.506003 116.891134 
L 135.873315 116.891134 
L 135.873315 116.423777 
L 138.607939 116.423777 
L 138.607939 115.975501 
L 139.975251 115.975501 
L 139.975251 115.130374 
L 141.342563 115.130374 
L 141.342563 114.731012 
L 148.179123 114.731012 
L 148.179123 114.345666 
L 149.546435 114.345666 
L 149.546435 113.973385 
L 150.913747 113.973385 
L 150.913747 113.613313 
L 153.64837 113.613313 
L 153.64837 100.321587 
L 155.015682 100.321587 
L 155.015682 92.923211 
L 156.382994 92.923211 
L 156.382994 84.65854 
L 157.750306 84.65854 
L 157.750306 81.040007 
L 159.117618 81.040007 
L 159.117618 77.473564 
L 160.48493 77.473564 
L 160.48493 75.722573 
L 161.852242 75.722573 
L 161.852242 72.920451 
L 163.219554 72.920451 
L 163.219554 69.22184 
L 164.586866 69.22184 
L 164.586866 66.145437 
L 165.954178 66.145437 
L 165.954178 62.867161 
L 167.32149 62.867161 
L 167.32149 60.993619 
L 168.688802 60.993619 
L 168.688802 59.360643 
L 170.056114 59.360643 
L 170.056114 57.392355 
L 171.423426 57.392355 
L 171.423426 56.50785 
L 172.790738 56.50785 
L 172.790738 55.631438 
L 174.158049 55.631438 
L 174.158049 54.756356 
L 175.525361 54.756356 
L 175.525361 54.034431 
L 176.892673 54.034431 
L 176.892673 53.616703 
L 178.259985 53.616703 
L 178.259985 53.373194 
L 180.994609 53.321917 
L 180.994609 52.97378 
L 182.361921 52.97378 
L 182.361921 52.813529 
L 183.729233 52.813529 
L 183.729233 52.661086 
L 185.096545 52.661086 
L 185.096545 52.514804 
L 187.831169 52.412074 
L 187.831169 52.312962 
L 189.198481 52.312962 
L 189.198481 52.20153 
L 190.565793 52.20153 
L 190.565793 52.079464 
L 191.933105 52.079464 
L 191.933105 51.882834 
L 194.667728 51.771854 
L 194.667728 51.586847 
L 196.03504 51.586847 
L 196.03504 51.386508 
L 200.136976 51.293767 
L 200.136976 51.17292 
L 201.504288 51.17292 
L 201.504288 51.048634 
L 204.238912 50.941027 
L 204.238912 50.770554 
L 205.606224 50.770554 
L 205.606224 50.64957 
L 208.340848 50.560551 
L 208.340848 50.41938 
L 209.70816 50.41938 
L 209.70816 50.306625 
L 212.442784 50.208218 
L 212.442784 50.113957 
L 215.177407 50.011846 
L 215.177407 49.924612 
L 219.279343 49.824238 
L 219.279343 49.768046 
L 224.748591 49.666991 
L 224.748591 49.633512 
L 231.585151 49.528507 
L 231.585151 49.505767 
L 245.25827 49.399926 
L 245.25827 49.385618 
L 261.666013 49.296108 
L 261.666013 49.261719 
L 267.135261 49.173208 
L 267.135261 49.144196 
L 275.339133 49.057615 
L 275.339133 49.025941 
L 283.543004 48.931461 
L 283.543004 48.912858 
L 286.277628 48.873796 
L 286.277628 48.797055 
L 290.379564 48.703556 
L 290.379564 48.677671 
L 294.4815 48.607992 
L 294.4815 48.561467 
L 298.583435 48.487811 
L 298.583435 48.439918 
L 302.685371 48.351257 
L 302.685371 48.315993 
L 306.787307 48.228323 
L 306.787307 48.17697 
L 312.256555 48.069542 
L 312.256555 48.038783 
L 316.358491 47.947017 
L 316.358491 47.903205 
L 320.460426 47.801061 
L 320.460426 47.786042 
L 325.929674 47.676233 
L 325.929674 47.642196 
L 330.03161 47.544168 
L 330.03161 47.507955 
L 334.133546 47.428191 
L 334.133546 47.382141 
L 338.235481 47.275436 
L 338.235481 47.224147 
L 342.337417 47.14891 
L 342.337417 47.096549 
L 347.806665 46.990106 
L 347.806665 46.954035 
L 353.275913 46.844906 
L 353.275913 46.795585 
L 358.74516 46.68881 
L 358.74516 46.668058 
L 362.847096 46.582273 
L 362.847096 46.53569 
L 365.58172 46.503435 
L 365.58172 46.415024 
L 371.050968 46.328866 
L 371.050968 46.291817 
L 379.25484 46.185991 
L 379.25484 46.160074 
L 386.091399 46.054751 
L 386.091399 46.027636 
L 391.560647 45.940721 
L 391.560647 45.899007 
L 394.295271 45.822694 
L 394.295271 45.70081 
L 395.662583 45.70081 
L 395.662583 45.498955 
L 397.029895 45.498955 
L 397.029895 45.358629 
L 398.397207 45.358629 
L 398.397207 45.185881 
L 399.764519 45.185881 
L 399.764519 44.980876 
L 401.13183 44.980876 
L 401.13183 44.785673 
L 402.499142 44.785673 
L 402.499142 44.57014 
L 403.866454 44.57014 
L 403.866454 44.353586 
L 405.233766 44.353586 
L 405.233766 44.10012 
L 406.601078 44.10012 
L 406.601078 43.933507 
L 407.96839 43.933507 
L 407.96839 43.760814 
L 409.335702 43.760814 
L 409.335702 43.566719 
L 410.703014 43.566719 
L 410.703014 43.304732 
L 412.070326 43.304732 
L 412.070326 43.089071 
L 413.437638 43.089071 
L 413.437638 42.9047 
L 414.80495 42.9047 
L 414.80495 42.736744 
L 416.172262 42.736744 
L 416.172262 42.599359 
L 417.539574 42.599359 
L 417.539574 42.470743 
L 418.906886 42.470743 
L 418.906886 42.326418 
L 421.641509 42.222198 
L 421.641509 42.117377 
L 424.376133 42.029216 
L 424.376133 41.942276 
L 427.110757 41.880741 
L 427.110757 41.810836 
L 429.845381 41.731195 
L 429.845381 41.652633 
L 432.580005 41.564102 
L 432.580005 41.496178 
L 435.314629 41.436096 
L 435.314629 41.382253 
L 439.416565 41.274865 
L 439.416565 41.200459 
L 442.151188 41.139559 
L 442.151188 41.086667 
L 447.620436 40.984969 
L 447.620436 40.932815 
L 450.35506 40.873848 
L 450.35506 40.820345 
L 455.824308 40.72432 
L 455.824308 40.706698 
L 459.926244 40.61901 
L 459.926244 40.590089 
L 465.395491 40.493321 
L 465.395491 40.459291 
L 470.864739 40.352442 
L 470.864739 40.320186 
L 474.966675 40.251067 
L 474.966675 40.205818 
L 480.435923 40.104466 
L 480.435923 40.072492 
L 485.90517 39.974524 
L 485.90517 39.935149 
L 488.639794 39.88387 
L 488.639794 39.817435 
L 494.109042 39.708159 
L 494.109042 39.670991 
L 498.210978 39.575271 
L 498.210978 39.527722 
L 502.312914 39.424164 
L 502.312914 39.384245 
L 506.414849 39.305247 
L 506.414849 39.254385 
L 510.516785 39.159798 
L 510.516785 39.102394 
L 514.618721 39.012279 
L 514.618721 38.954454 
L 517.353345 38.89811 
L 517.353345 38.823303 
L 520.087969 38.743574 
L 520.087969 38.663267 
L 522.822593 38.577815 
L 522.822593 38.490751 
L 524.189904 38.490751 
L 524.189904 38.372857 
L 525.557216 38.372857 
L 525.557216 38.245099 
L 526.924528 38.245099 
L 526.924528 38.111492 
L 528.29184 38.111492 
L 528.29184 37.971181 
L 529.659152 37.971181 
L 529.659152 37.85263 
L 532.393776 37.756224 
L 532.393776 37.633303 
L 533.761088 37.633303 
L 533.761088 37.500317 
L 535.1284 37.500317 
L 535.1284 37.300413 
L 536.495712 37.300413 
L 536.495712 37.108757 
L 537.863024 37.108757 
L 537.863024 36.947007 
L 539.230336 36.947007 
L 539.230336 36.800259 
L 540.597648 36.800259 
L 540.597648 36.67854 
L 541.96496 36.67854 
L 541.96496 36.53468 
L 543.332272 36.53468 
L 543.332272 36.373926 
L 544.699583 36.373926 
L 544.699583 36.206568 
L 546.066895 36.206568 
L 546.066895 36.01479 
L 547.434207 36.01479 
L 547.434207 35.839979 
L 548.801519 35.839979 
L 548.801519 35.65386 
L 550.168831 35.65386 
L 550.168831 35.475445 
L 551.536143 35.475445 
L 551.536143 35.305832 
L 552.903455 35.305832 
L 552.903455 35.11566 
L 554.270767 35.11566 
L 554.270767 34.931738 
L 555.638079 34.931738 
L 555.638079 34.744921 
L 557.005391 34.744921 
L 557.005391 34.492076 
L 558.372703 34.492076 
L 558.372703 34.224361 
L 559.740015 34.224361 
L 559.740015 34.041527 
L 561.107327 34.041527 
L 561.107327 33.821515 
L 562.474639 33.821515 
L 562.474639 33.557872 
L 563.841951 33.557872 
L 563.841951 33.316238 
L 565.209262 33.316238 
L 565.209262 33.068014 
L 566.576574 33.068014 
L 566.576574 32.82686 
L 567.943886 32.82686 
L 567.943886 32.58204 
L 569.311198 32.58204 
L 569.311198 32.379181 
L 570.67851 32.379181 
L 570.67851 32.192158 
L 572.045822 32.192158 
L 572.045822 31.961988 
L 573.413134 31.961988 
L 573.413134 31.758471 
L 574.780446 31.758471 
L 574.780446 31.507612 
L 576.147758 31.507612 
L 576.147758 31.282963 
L 577.51507 31.282963 
L 577.51507 31.094053 
L 578.882382 31.094053 
L 578.882382 30.939137 
L 580.249694 30.939137 
L 580.249694 30.741968 
L 581.617006 30.741968 
L 581.617006 30.547727 
L 582.984318 30.547727 
L 582.984318 30.371495 
L 584.35163 30.371495 
L 584.35163 30.18702 
L 585.718941 30.18702 
L 585.718941 30.041498 
L 587.086253 30.041498 
L 587.086253 29.927878 
L 588.453565 29.927878 
L 588.453565 29.752185 
L 589.820877 29.752185 
L 589.820877 29.630683 
L 591.188189 29.630683 
L 591.188189 29.489802 
L 592.555501 29.489802 
L 592.555501 29.34593 
L 595.290125 29.235825 
L 595.290125 29.131818 
L 598.024749 29.024948 
L 598.024749 28.953216 
L 600.759373 28.868224 
L 600.759373 28.78013 
L 603.493997 28.699723 
L 603.493997 28.620362 
L 606.22862 28.531474 
L 606.22862 28.452253 
L 608.963244 28.393361 
L 608.963244 28.335233 
L 611.697868 28.274872 
L 611.697868 28.215287 
L 614.432492 28.164301 
L 614.432492 28.1009 
L 617.167116 28.043419 
L 617.167116 27.979692 
L 619.90174 27.928338 
L 619.90174 27.84845 
L 622.636364 27.777273 
L 622.636364 27.777273 
" style="fill:none;stroke:#348abd;stroke-linecap:square;stroke-width:3;"/>
   </g>
   <g id="line2d_23">
    <path clip-path="url(#p70ca1c09c6)" d="M 153.64837 181 
L 153.64837 151.322727 
L 155.015682 151.322727 
L 155.015682 143.711116 
L 157.750306 143.711116 
L 157.750306 131.646999 
L 159.117618 131.646999 
L 159.117618 128.487895 
L 160.48493 128.487895 
L 160.48493 126.037503 
L 161.852242 126.037503 
L 161.852242 124.035388 
L 163.219554 124.035388 
L 163.219554 123.15642 
L 165.954178 123.15642 
L 165.954178 120.876284 
L 167.32149 120.876284 
L 167.32149 120.210551 
L 168.688802 120.210551 
L 168.688802 114.731012 
L 171.423426 114.731012 
L 171.423426 112.280621 
L 174.158049 112.280621 
L 174.158049 110.278505 
L 175.525361 110.278505 
L 175.525361 109.767658 
L 176.892673 109.767658 
L 176.892673 108.36389 
L 178.259985 108.36389 
L 178.259985 107.724026 
L 179.627297 107.724026 
L 179.627297 107.518763 
L 180.994609 107.518763 
L 180.994609 106.361774 
L 182.361921 106.361774 
L 182.361921 105.315151 
L 185.096545 105.315151 
L 185.096545 104.359659 
L 186.463857 104.359659 
L 186.463857 103.911383 
L 189.198481 103.911383 
L 189.198481 103.066256 
L 190.565793 103.066256 
L 190.565793 102.666894 
L 191.933105 102.666894 
L 191.933105 101.787927 
L 193.300417 101.787927 
L 193.300417 101.431747 
L 194.667728 101.431747 
L 194.667728 100.534822 
L 196.03504 100.534822 
L 196.03504 99.606277 
L 198.769664 99.606277 
L 198.769664 98.750164 
L 200.136976 98.750164 
L 200.136976 98.214387 
L 201.504288 98.214387 
L 201.504288 97.787048 
L 202.8716 97.787048 
L 202.8716 97.136118 
L 204.238912 97.136118 
L 204.238912 96.748048 
L 205.606224 96.748048 
L 205.606224 96.154323 
L 206.973536 96.154323 
L 206.973536 95.72919 
L 208.340848 95.72919 
L 208.340848 95.454645 
L 209.70816 95.454645 
L 209.70816 95.253149 
L 211.075472 95.253149 
L 211.075472 94.990113 
L 212.442784 94.990113 
L 212.442784 94.669937 
L 213.810096 94.669937 
L 213.810096 94.482219 
L 215.177407 94.482219 
L 215.177407 94.116144 
L 216.544719 94.116144 
L 216.544719 93.937584 
L 217.912031 93.937584 
L 217.912031 93.588944 
L 219.279343 93.588944 
L 219.279343 93.140668 
L 220.646655 93.140668 
L 220.646655 92.923211 
L 222.013967 92.923211 
L 222.013967 92.709976 
L 223.381279 92.709976 
L 223.381279 92.552725 
L 224.748591 92.552725 
L 224.748591 92.397693 
L 226.115903 92.397693 
L 226.115903 92.244819 
L 227.483215 92.244819 
L 227.483215 91.994667 
L 228.850527 91.994667 
L 228.850527 91.847265 
L 230.217839 91.847265 
L 230.217839 91.653758 
L 232.952463 91.60591 
L 232.952463 91.510833 
L 235.687086 91.416573 
L 235.687086 91.323116 
L 239.789022 91.230446 
L 239.789022 91.138553 
L 243.890958 91.047422 
L 243.890958 91.002138 
L 246.625582 90.957041 
L 246.625582 90.867397 
L 250.727518 90.77848 
L 250.727518 90.690277 
L 254.829454 90.602776 
L 254.829454 90.515968 
L 264.400637 90.42984 
L 264.400637 90.344383 
L 269.869885 90.259585 
L 269.869885 90.175437 
L 279.441068 90.091929 
L 279.441068 90.009052 
L 283.543004 89.967846 
L 283.543004 89.885896 
L 293.114188 89.804554 
L 293.114188 89.764107 
L 304.052683 89.683658 
L 304.052683 89.603794 
L 313.623867 89.524507 
L 313.623867 89.485077 
L 324.562362 89.406639 
L 324.562362 89.367629 
L 340.970105 89.290023 
L 340.970105 89.251425 
L 345.072041 89.174633 
L 345.072041 89.136437 
L 353.275913 89.098374 
L 353.275913 89.022641 
L 356.010537 88.947427 
L 356.010537 88.910012 
L 361.479784 88.835563 
L 361.479784 88.798526 
L 373.785592 88.688161 
L 373.785592 88.651618 
L 386.091399 88.542712 
L 386.091399 88.506649 
L 402.499142 88.434876 
L 402.499142 88.363569 
L 410.703014 88.257469 
L 410.703014 88.222329 
L 413.437638 88.117579 
L 413.437638 87.945186 
L 418.906886 87.843034 
L 418.906886 87.775457 
L 421.641509 87.674865 
L 421.641509 87.608312 
L 425.743445 87.509232 
L 425.743445 87.443673 
L 427.110757 87.443673 
L 427.110757 87.281465 
L 429.845381 87.185279 
L 429.845381 87.121619 
L 431.212693 87.121619 
L 431.212693 86.995397 
L 432.580005 86.995397 
L 432.580005 86.839632 
L 435.314629 86.747223 
L 435.314629 86.594915 
L 436.681941 86.594915 
L 436.681941 86.474571 
L 439.416565 86.474571 
L 439.416565 86.325973 
L 440.783877 86.325973 
L 440.783877 86.179359 
L 443.5185 86.15027 
L 443.5185 86.005967 
L 446.253124 85.948773 
L 446.253124 85.863537 
L 448.987748 85.863537 
L 448.987748 85.72293 
L 451.722372 85.667188 
L 451.722372 85.556545 
L 454.456996 85.501638 
L 454.456996 85.365562 
L 457.19162 85.338548 
L 457.19162 85.177844 
L 461.293556 85.098365 
L 461.293556 84.993281 
L 466.762803 84.941114 
L 466.762803 84.863324 
L 470.864739 84.786082 
L 470.864739 84.734887 
L 476.333987 84.633208 
L 476.333987 84.532462 
L 480.435923 84.457505 
L 480.435923 84.407816 
L 485.90517 84.309108 
L 485.90517 84.235654 
L 488.639794 84.162689 
L 488.639794 84.114313 
L 494.109042 84.06615 
L 494.109042 83.994299 
L 500.945602 83.899223 
L 500.945602 83.851991 
L 503.680225 83.804962 
L 503.680225 83.711505 
L 509.149473 83.618835 
L 509.149473 83.59579 
L 513.251409 83.526942 
L 513.251409 83.413146 
L 518.720657 83.34543 
L 518.720657 83.255786 
L 525.557216 83.166869 
L 525.557216 83.122679 
L 529.659152 83.012975 
L 529.659152 82.969399 
L 533.761088 82.861209 
L 533.761088 82.796802 
L 537.863024 82.732772 
L 537.863024 82.60582 
L 544.699583 82.521993 
L 544.699583 82.45954 
L 546.066895 82.45954 
L 546.066895 82.315184 
L 548.801519 82.233539 
L 548.801519 82.132329 
L 551.536143 82.052027 
L 551.536143 81.992183 
L 554.270767 81.912896 
L 554.270767 81.756019 
L 555.638079 81.756019 
L 555.638079 81.601351 
L 557.005391 81.601351 
L 557.005391 81.486763 
L 559.740015 81.448831 
L 559.740015 81.317092 
L 561.107327 81.317092 
L 561.107327 81.07655 
L 562.474639 81.07655 
L 562.474639 80.859093 
L 563.841951 80.859093 
L 563.841951 80.471272 
L 565.209262 80.471272 
L 565.209262 80.28238 
L 566.576574 80.28238 
L 566.576574 80.046578 
L 567.943886 80.046578 
L 567.943886 79.799428 
L 569.311198 79.799428 
L 569.311198 79.415206 
L 570.67851 79.415206 
L 570.67851 79.043974 
L 572.045822 79.043974 
L 572.045822 78.78841 
L 573.413134 78.78841 
L 573.413134 78.538659 
L 574.780446 78.538659 
L 574.780446 78.294462 
L 576.147758 78.294462 
L 576.147758 78.013955 
L 577.51507 78.013955 
L 577.51507 77.808179 
L 578.882382 77.808179 
L 578.882382 77.659691 
L 580.249694 77.659691 
L 580.249694 77.136053 
L 581.617006 77.136053 
L 581.617006 76.883309 
L 582.984318 76.883309 
L 582.984318 76.624043 
L 584.35163 76.624043 
L 584.35163 76.418555 
L 585.718941 76.418555 
L 585.718941 76.123184 
L 587.086253 76.123184 
L 587.086253 75.892477 
L 588.453565 75.892477 
L 588.453565 75.677706 
L 589.820877 75.677706 
L 589.820877 75.390454 
L 591.188189 75.390454 
L 591.188189 75.174494 
L 592.555501 75.174494 
L 592.555501 74.973192 
L 593.922813 74.973192 
L 593.922813 74.611765 
L 595.290125 74.611765 
L 595.290125 74.420432 
L 596.657437 74.420432 
L 596.657437 74.173652 
L 598.024749 74.173652 
L 598.024749 74.028203 
L 599.392061 74.028203 
L 599.392061 73.789989 
L 600.759373 73.789989 
L 600.759373 73.60307 
L 603.493997 73.51079 
L 603.493997 73.310464 
L 604.861309 73.310464 
L 604.861309 73.140347 
L 606.22862 73.140347 
L 606.22862 73.025452 
L 607.595932 73.025452 
L 607.595932 72.894357 
L 608.963244 72.894357 
L 608.963244 72.73052 
L 610.330556 72.73052 
L 610.330556 72.585972 
L 611.697868 72.585972 
L 611.697868 72.451643 
L 614.432492 72.351964 
L 614.432492 72.277794 
L 617.167116 72.179674 
L 617.167116 72.090494 
L 619.90174 72.002032 
L 619.90174 71.946107 
L 622.636364 71.88254 
L 622.636364 71.88254 
" style="fill:none;stroke:#e24a33;stroke-linecap:square;stroke-width:3;"/>
   </g>
   <g id="patch_3">
    <path d="M 90 157.5 
L 90 21.6 
" style="fill:none;stroke:#ffffff;stroke-linecap:square;stroke-linejoin:miter;"/>
   </g>
   <g id="patch_4">
    <path d="M 648 157.5 
L 648 21.6 
" style="fill:none;stroke:#ffffff;stroke-linecap:square;stroke-linejoin:miter;"/>
   </g>
   <g id="patch_5">
    <path d="M 90 157.5 
L 648 157.5 
" style="fill:none;stroke:#ffffff;stroke-linecap:square;stroke-linejoin:miter;"/>
   </g>
   <g id="patch_6">
    <path d="M 90 21.6 
L 648 21.6 
" style="fill:none;stroke:#ffffff;stroke-linecap:square;stroke-linejoin:miter;"/>
   </g>
   <g id="legend_1">
    <g id="patch_7">
     <path d="M 507.9625 152.5 
L 641 152.5 
Q 643 152.5 643 150.5 
L 643 122.14375 
Q 643 120.14375 641 120.14375 
L 507.9625 120.14375 
Q 505.9625 120.14375 505.9625 122.14375 
L 505.9625 150.5 
Q 505.9625 152.5 507.9625 152.5 
z
" style="fill:#e5e5e5;opacity:0.8;stroke:#cccccc;stroke-linejoin:miter;stroke-width:0.5;"/>
    </g>
    <g id="line2d_24">
     <path d="M 509.9625 128.242188 
L 529.9625 128.242188 
" style="fill:none;stroke:#348abd;stroke-linecap:square;stroke-width:3;"/>
    </g>
    <g id="line2d_25"/>
    <g id="text_14">
     <!-- Korea, South cases -->
     <g transform="translate(537.9625 131.742188)scale(0.1 -0.1)">
      <defs>
       <path d="M 9.8125 72.90625 
L 19.671875 72.90625 
L 19.671875 42.09375 
L 52.390625 72.90625 
L 65.09375 72.90625 
L 28.90625 38.921875 
L 67.671875 0 
L 54.6875 0 
L 19.671875 35.109375 
L 19.671875 0 
L 9.8125 0 
z
" id="DejaVuSans-75"/>
       <path d="M 11.71875 12.40625 
L 22.015625 12.40625 
L 22.015625 4 
L 14.015625 -11.625 
L 7.71875 -11.625 
L 11.71875 4 
z
" id="DejaVuSans-44"/>
       <path d="M 53.515625 70.515625 
L 53.515625 60.890625 
Q 47.90625 63.578125 42.921875 64.890625 
Q 37.9375 66.21875 33.296875 66.21875 
Q 25.25 66.21875 20.875 63.09375 
Q 16.5 59.96875 16.5 54.203125 
Q 16.5 49.359375 19.40625 46.890625 
Q 22.3125 44.4375 30.421875 42.921875 
L 36.375 41.703125 
Q 47.40625 39.59375 52.65625 34.296875 
Q 57.90625 29 57.90625 20.125 
Q 57.90625 9.515625 50.796875 4.046875 
Q 43.703125 -1.421875 29.984375 -1.421875 
Q 24.8125 -1.421875 18.96875 -0.25 
Q 13.140625 0.921875 6.890625 3.21875 
L 6.890625 13.375 
Q 12.890625 10.015625 18.65625 8.296875 
Q 24.421875 6.59375 29.984375 6.59375 
Q 38.421875 6.59375 43.015625 9.90625 
Q 47.609375 13.234375 47.609375 19.390625 
Q 47.609375 24.75 44.3125 27.78125 
Q 41.015625 30.8125 33.5 32.328125 
L 27.484375 33.5 
Q 16.453125 35.6875 11.515625 40.375 
Q 6.59375 45.0625 6.59375 53.421875 
Q 6.59375 63.09375 13.40625 68.65625 
Q 20.21875 74.21875 32.171875 74.21875 
Q 37.3125 74.21875 42.625 73.28125 
Q 47.953125 72.359375 53.515625 70.515625 
z
" id="DejaVuSans-83"/>
       <path d="M 54.890625 33.015625 
L 54.890625 0 
L 45.90625 0 
L 45.90625 32.71875 
Q 45.90625 40.484375 42.875 44.328125 
Q 39.84375 48.1875 33.796875 48.1875 
Q 26.515625 48.1875 22.3125 43.546875 
Q 18.109375 38.921875 18.109375 30.90625 
L 18.109375 0 
L 9.078125 0 
L 9.078125 75.984375 
L 18.109375 75.984375 
L 18.109375 46.1875 
Q 21.34375 51.125 25.703125 53.5625 
Q 30.078125 56 35.796875 56 
Q 45.21875 56 50.046875 50.171875 
Q 54.890625 44.34375 54.890625 33.015625 
z
" id="DejaVuSans-104"/>
       <path d="M 48.78125 52.59375 
L 48.78125 44.1875 
Q 44.96875 46.296875 41.140625 47.34375 
Q 37.3125 48.390625 33.40625 48.390625 
Q 24.65625 48.390625 19.8125 42.84375 
Q 14.984375 37.3125 14.984375 27.296875 
Q 14.984375 17.28125 19.8125 11.734375 
Q 24.65625 6.203125 33.40625 6.203125 
Q 37.3125 6.203125 41.140625 7.25 
Q 44.96875 8.296875 48.78125 10.40625 
L 48.78125 2.09375 
Q 45.015625 0.34375 40.984375 -0.53125 
Q 36.96875 -1.421875 32.421875 -1.421875 
Q 20.0625 -1.421875 12.78125 6.34375 
Q 5.515625 14.109375 5.515625 27.296875 
Q 5.515625 40.671875 12.859375 48.328125 
Q 20.21875 56 33.015625 56 
Q 37.15625 56 41.109375 55.140625 
Q 45.0625 54.296875 48.78125 52.59375 
z
" id="DejaVuSans-99"/>
      </defs>
      <use xlink:href="#DejaVuSans-75"/>
      <use x="60.576172" xlink:href="#DejaVuSans-111"/>
      <use x="121.757812" xlink:href="#DejaVuSans-114"/>
      <use x="160.621094" xlink:href="#DejaVuSans-101"/>
      <use x="222.144531" xlink:href="#DejaVuSans-97"/>
      <use x="283.423828" xlink:href="#DejaVuSans-44"/>
      <use x="315.210938" xlink:href="#DejaVuSans-32"/>
      <use x="346.998047" xlink:href="#DejaVuSans-83"/>
      <use x="410.474609" xlink:href="#DejaVuSans-111"/>
      <use x="471.65625" xlink:href="#DejaVuSans-117"/>
      <use x="535.035156" xlink:href="#DejaVuSans-116"/>
      <use x="574.244141" xlink:href="#DejaVuSans-104"/>
      <use x="637.623047" xlink:href="#DejaVuSans-32"/>
      <use x="669.410156" xlink:href="#DejaVuSans-99"/>
      <use x="724.390625" xlink:href="#DejaVuSans-97"/>
      <use x="785.669922" xlink:href="#DejaVuSans-115"/>
      <use x="837.769531" xlink:href="#DejaVuSans-101"/>
      <use x="899.292969" xlink:href="#DejaVuSans-115"/>
     </g>
    </g>
    <g id="line2d_26">
     <path d="M 509.9625 142.920312 
L 529.9625 142.920312 
" style="fill:none;stroke:#e24a33;stroke-linecap:square;stroke-width:3;"/>
    </g>
    <g id="line2d_27"/>
    <g id="text_15">
     <!-- Korea, South deaths -->
     <g transform="translate(537.9625 146.420312)scale(0.1 -0.1)">
      <defs>
       <path d="M 45.40625 46.390625 
L 45.40625 75.984375 
L 54.390625 75.984375 
L 54.390625 0 
L 45.40625 0 
L 45.40625 8.203125 
Q 42.578125 3.328125 38.25 0.953125 
Q 33.9375 -1.421875 27.875 -1.421875 
Q 17.96875 -1.421875 11.734375 6.484375 
Q 5.515625 14.40625 5.515625 27.296875 
Q 5.515625 40.1875 11.734375 48.09375 
Q 17.96875 56 27.875 56 
Q 33.9375 56 38.25 53.625 
Q 42.578125 51.265625 45.40625 46.390625 
z
M 14.796875 27.296875 
Q 14.796875 17.390625 18.875 11.75 
Q 22.953125 6.109375 30.078125 6.109375 
Q 37.203125 6.109375 41.296875 11.75 
Q 45.40625 17.390625 45.40625 27.296875 
Q 45.40625 37.203125 41.296875 42.84375 
Q 37.203125 48.484375 30.078125 48.484375 
Q 22.953125 48.484375 18.875 42.84375 
Q 14.796875 37.203125 14.796875 27.296875 
z
" id="DejaVuSans-100"/>
      </defs>
      <use xlink:href="#DejaVuSans-75"/>
      <use x="60.576172" xlink:href="#DejaVuSans-111"/>
      <use x="121.757812" xlink:href="#DejaVuSans-114"/>
      <use x="160.621094" xlink:href="#DejaVuSans-101"/>
      <use x="222.144531" xlink:href="#DejaVuSans-97"/>
      <use x="283.423828" xlink:href="#DejaVuSans-44"/>
      <use x="315.210938" xlink:href="#DejaVuSans-32"/>
      <use x="346.998047" xlink:href="#DejaVuSans-83"/>
      <use x="410.474609" xlink:href="#DejaVuSans-111"/>
      <use x="471.65625" xlink:href="#DejaVuSans-117"/>
      <use x="535.035156" xlink:href="#DejaVuSans-116"/>
      <use x="574.244141" xlink:href="#DejaVuSans-104"/>
      <use x="637.623047" xlink:href="#DejaVuSans-32"/>
      <use x="669.410156" xlink:href="#DejaVuSans-100"/>
      <use x="732.886719" xlink:href="#DejaVuSans-101"/>
      <use x="794.410156" xlink:href="#DejaVuSans-97"/>
      <use x="855.689453" xlink:href="#DejaVuSans-116"/>
      <use x="894.898438" xlink:href="#DejaVuSans-104"/>
      <use x="958.277344" xlink:href="#DejaVuSans-115"/>
     </g>
    </g>
   </g>
  </g>
 </g>
 <defs>
  <clipPath id="p70ca1c09c6">
   <rect height="135.9" width="558" x="90" y="21.6"/>
  </clipPath>
 </defs>
</svg>
